<svg width="221" height="145" viewBox="0 0 221 145" fill="none" xmlns="http://www.w3.org/2000/svg">
<path fill-rule="evenodd" clip-rule="evenodd" d="M212.84 96.2938C209.452 104.296 203.577 105.688 197.355 112.072C191.134 118.457 172.449 114.803 166.021 118.519C148.592 128.593 148.044 139.989 118.621 141.465C108.042 141.996 98.7624 140.792 89.3029 139.567C79.3868 138.282 67.6322 142.209 54.2156 133.979C21.4864 113.902 1.12573 80.8916 0.362776 63.538C-0.23721 49.8913 9.54192 40.4858 16.1274 34.2345C30.1257 20.9464 48.1469 24.5994 65.0289 19.8995C88.8494 13.2679 104.12 -0.748585 121.184 0.101442C145.274 -0.528917 160.302 18.9697 179.263 19.8995C192.746 20.5606 237.912 37.0664 212.84 96.2938Z" fill="url(#paint0_linear_139_1314)"/>
<path fill-rule="evenodd" clip-rule="evenodd" d="M212.84 96.2938C209.452 104.296 203.577 105.688 197.355 112.072C191.134 118.457 172.449 114.803 166.021 118.519C148.592 128.593 148.044 139.989 118.621 141.465C108.042 141.996 98.7624 140.792 89.3029 139.567C79.3868 138.282 67.6322 142.209 54.2156 133.979C21.4864 113.902 1.12573 80.8916 0.362776 63.538C-0.23721 49.8913 9.54192 40.4858 16.1274 34.2345C30.1257 20.9464 48.1469 24.5994 65.0289 19.8995C88.8494 13.2679 104.12 -0.748585 121.184 0.101442C145.274 -0.528917 160.302 18.9697 179.263 19.8995C192.746 20.5606 237.912 37.0664 212.84 96.2938Z" fill="#EF4444" fill-opacity="0.2"/>
<path fill-rule="evenodd" clip-rule="evenodd" d="M212.84 96.2938C209.452 104.296 203.577 105.688 197.355 112.072C191.134 118.457 172.449 114.803 166.021 118.519C148.592 128.593 148.044 139.989 118.621 141.465C108.042 141.996 98.7624 140.792 89.3029 139.567C79.3868 138.282 67.6322 142.209 54.2156 133.979C21.4864 113.902 1.12573 80.8916 0.362776 63.538C-0.23721 49.8913 9.54192 40.4858 16.1274 34.2345C30.1257 20.9464 48.1469 24.5994 65.0289 19.8995C88.8494 13.2679 104.12 -0.748585 121.184 0.101442C145.274 -0.528917 160.302 18.9697 179.263 19.8995C192.746 20.5606 237.912 37.0664 212.84 96.2938Z" fill="url(#paint1_linear_139_1314)"/>
<path fill-rule="evenodd" clip-rule="evenodd" d="M67.3497 130.704C67.8211 131.81 67.8589 133.485 66.7009 133.807C65.173 133.054 64.0841 131.476 63.9235 129.781C57.6573 130.054 51.3911 130.327 45.1249 130.601C42.7959 130.702 39.9214 131.199 39.2281 133.425C38.9574 131.671 36.6413 131.268 34.8669 131.291C29.5643 131.363 24.2617 131.434 18.9591 131.505C18.8783 129.084 18.7974 126.664 18.7166 124.243C18.7009 123.774 18.69 123.283 18.9003 122.863C19.4651 121.737 21.0871 121.857 22.3134 122.146C21.9192 118.205 21.525 114.264 21.1309 110.323C19.3026 110.741 19.8907 106.054 18.0504 106.415C16.9364 106.635 15.8861 105.612 15.6484 104.501C15.4106 103.391 15.7574 102.248 16.1006 101.166C17.1348 100.85 18.617 101.163 19.6652 100.85C20.7134 100.538 21.3521 99.9335 21.3155 98.8403C20.5552 76.1391 18.9136 53.4673 16.3957 30.8933C14.7882 31.5848 12.8741 30.3368 12.2274 28.7108C11.5807 27.0848 11.8577 25.2535 12.196 23.5366C12.3148 22.9341 12.4606 22.2939 12.9031 21.868C13.4671 21.3252 14.334 21.2911 15.1169 21.2894C39.6829 21.2335 64.2488 21.1776 88.8148 21.1217C89.3502 21.1205 89.9401 21.1392 90.3358 21.4998C90.6976 21.8295 90.793 22.3527 90.8681 22.8364C91.1601 24.7173 91.4468 26.6783 90.8726 28.493C90.2984 30.3078 88.582 31.9134 86.6916 31.6914C87.7256 54.0959 88.7597 76.5004 89.7938 98.9048C91.4791 98.5364 93.4502 99.1602 94.2908 100.667C95.1314 102.173 94.3647 104.45 92.6813 104.827C93.7553 105.72 93.237 107.62 92.0551 108.365C90.8732 109.109 89.3699 109.033 87.9789 108.906C86.5878 108.779 85.1034 108.644 83.8699 109.299C84.161 111.999 84.1248 114.734 83.7622 117.425C84.9585 116.711 86.5777 116.786 87.7033 117.606C88.4847 118.176 89.1948 116.79 89.1875 115.823C89.1703 113.571 89.1531 111.319 89.1359 109.066C90.3557 111.864 90.6951 115.038 90.0944 118.03C91.5983 118.148 93.1022 118.265 94.6061 118.382C95.0583 118.417 95.5479 118.468 95.8795 118.778C96.2095 119.086 96.2953 119.569 96.3526 120.016C96.7229 122.907 96.6676 125.852 96.1891 128.727C86.445 128.052 77.1991 128.267 67.5132 129.527C67.2701 129.527 66.8783 129.599 67.3497 130.704Z" fill="white"/>
<path d="M55.984 80.5171C55.8552 80.8526 55.6828 81.0984 55.5989 81.0662C55.5151 81.034 55.5515 80.736 55.6802 80.4005C55.809 80.065 55.9814 79.8191 56.0653 79.8513C56.1492 79.8835 56.1128 80.1816 55.984 80.5171Z" fill="#FFB61D"/>
<path fill-rule="evenodd" clip-rule="evenodd" d="M131.972 83.7831C131.972 83.7831 130.605 52.7321 131.397 37.2212C131.484 35.5278 131.579 33.7923 131.077 32.1725C130.576 30.5527 129.34 29.0461 127.673 28.7323C127.345 25.8266 127.389 22.8791 127.804 19.9845C151.82 20.1094 175.837 20.2343 199.853 20.3591C199.94 22.1865 200.027 24.0139 200.113 25.8413C200.195 27.5715 199.51 30.0212 197.813 29.6766C197.123 29.5366 196.792 30.4882 196.756 31.191C196.458 36.9638 196.16 42.7367 195.862 48.5096C194.977 65.6663 194.091 82.8485 194.685 100.018C196.22 100.094 197.755 100.171 199.29 100.248C199.697 101.212 200.113 102.237 199.961 103.272C199.809 104.307 198.848 105.299 197.825 105.08C198.717 107.159 196.338 109.765 194.187 109.067C194.359 111.552 194.532 114.038 194.704 116.524C194.737 116.993 194.786 117.501 195.104 117.847C196.097 118.926 198.224 117.26 199.272 118.285C199.414 120.73 199.556 123.175 199.698 125.62C199.737 126.287 199.741 127.046 199.256 127.506C198.931 127.814 198.462 127.906 198.02 127.98C189.405 129.437 180.574 129.609 171.909 128.489C172.374 130.717 172.734 133.349 171.159 134.992C169.997 136.204 170.12 137.942 170.643 137.122C170.542 138.186 169.551 139.091 168.482 139.095C167.564 139.193 167.746 137.659 168.373 136.981C169.748 135.492 171.527 134.16 171.965 132.181C172.402 130.202 167.611 131.211 167.747 132.422C166.88 131.444 166.993 129.76 167.983 128.907C165.402 129.496 162.724 129.657 160.092 129.383C163.417 128.879 166.742 128.375 170.068 127.871C169.121 125.251 158.33 132.187 158.091 137.402C157.573 134.401 157.955 131.251 159.173 128.46C158.88 127.995 158.5 127.584 158.059 127.256C161.091 126.068 155.002 132.577 154.013 130.104C150.681 130.483 147.349 130.863 144.017 131.242C144.137 131.853 144.452 132.423 144.904 132.85C142.928 133.136 140.943 131.254 141.126 129.265C140.154 131.019 141.653 133.109 143.197 134.388C144.741 135.666 146.612 137.103 146.547 139.106C145.012 139.644 143.127 138.55 142.832 136.951C143.39 137.99 142.754 135.716 142.081 135.929C140.832 136.324 139.918 139.818 140.519 138.657C140.453 140.219 138.941 141.569 137.382 141.459C136.276 139.288 138.102 136.254 140.538 136.214C141.542 136.198 142.137 134.939 141.873 133.971C141.608 133.002 140.798 132.296 140.029 131.651C139.511 132.328 138.842 132.888 138.085 133.279C138.06 132.137 138.285 130.99 138.738 129.942C137.714 131.105 137.137 132.651 137.148 134.201C136.626 132.924 136.672 131.426 137.273 130.183C134.244 130.699 131.168 130.941 128.095 130.905C127.589 127.396 127.083 123.886 126.577 120.376C128.477 119.863 130.445 119.602 132.414 119.604C131.428 113.701 132.414 113.537 131.188 110.879C131.022 110.517 130.431 111.208 130.028 110.394C129.626 109.581 129.446 107.462 129.446 107.462C129.446 107.462 127.803 107.222 127.673 106.78C127.165 105.044 126.594 103.494 127.83 102.56C129.148 101.565 131.211 102.417 132.592 101.512C132.302 100.365 132.698 96.3595 131.752 93.8693C131.009 91.9096 129.459 92.7861 127.81 91.3684C126.739 90.4487 125.572 89.512 125.105 88.1804C124.637 86.8489 125.275 85.0251 126.672 84.8307C128.039 84.6405 129.073 85.9927 129.771 87.1825C129.457 86.1325 130.297 84.9009 131.39 84.8106C132.741 89.0732 131.972 83.7831 131.972 83.7831Z" fill="white"/>
<path d="M155.872 75.5788C155.872 75.9381 155.726 76.2294 155.547 76.2294C155.367 76.2294 155.221 75.9381 155.221 75.5788C155.221 75.2194 155.367 74.9281 155.547 74.9281C155.726 74.9281 155.872 75.2194 155.872 75.5788Z" fill="#FFB61D"/>
<path fill-rule="evenodd" clip-rule="evenodd" d="M38.2878 39.8919C38.4292 40.0027 38.4541 40.2071 38.3433 40.3486L34.0718 45.8015C33.961 45.943 33.7565 45.9678 33.6151 45.857C33.4736 45.7462 33.4488 45.5417 33.5596 45.4003L37.831 39.9473C37.9418 39.8059 38.1463 39.7811 38.2878 39.8919Z" fill="#E7EAEE"/>
<path fill-rule="evenodd" clip-rule="evenodd" d="M43.8515 41.4533C43.9883 41.5699 44.0047 41.7752 43.8881 41.912L38.1715 48.6196C38.0549 48.7564 37.8496 48.7728 37.7128 48.6562C37.5761 48.5397 37.5597 48.3343 37.6763 48.1976L43.3929 41.4899C43.5094 41.3532 43.7148 41.3368 43.8515 41.4533Z" fill="#E7EAEE"/>
<path fill-rule="evenodd" clip-rule="evenodd" d="M52.9206 41.8961C53.0627 42.0061 53.0887 42.2104 52.9787 42.3525L48.2764 48.4259C48.1664 48.5679 47.9621 48.5939 47.82 48.4839C47.6779 48.3739 47.6519 48.1696 47.7619 48.0275L52.4642 41.9542C52.5742 41.8121 52.7786 41.7861 52.9206 41.8961Z" fill="#E7EAEE"/>
<path fill-rule="evenodd" clip-rule="evenodd" d="M65.6132 41.4056C65.7589 41.5107 65.7917 41.7141 65.6865 41.8598L61.8574 47.1642C61.7523 47.3099 61.5489 47.3427 61.4032 47.2375C61.2575 47.1324 61.2247 46.929 61.3299 46.7833L65.159 41.4789C65.2641 41.3332 65.4675 41.3004 65.6132 41.4056Z" fill="#E7EAEE"/>
<path fill-rule="evenodd" clip-rule="evenodd" d="M152.602 40.4566C152.73 40.5831 152.731 40.7891 152.604 40.9166L148.12 45.4384C147.993 45.566 147.787 45.5669 147.66 45.4404C147.532 45.3138 147.531 45.1078 147.658 44.9803L152.142 40.4585C152.269 40.3309 152.475 40.33 152.602 40.4566Z" fill="#E7EAEE"/>
<path fill-rule="evenodd" clip-rule="evenodd" d="M158.806 41.7159C158.93 41.8454 158.926 42.0514 158.797 42.1759L152.905 47.8465C152.776 47.9711 152.57 47.9672 152.445 47.8377C152.321 47.7082 152.324 47.5023 152.454 47.3777L158.346 41.7071C158.475 41.5825 158.681 41.5865 158.806 41.7159Z" fill="#E7EAEE"/>
<path fill-rule="evenodd" clip-rule="evenodd" d="M172.96 44.5597C173.084 44.6896 173.079 44.8955 172.949 45.0197L169.065 48.7349C168.935 48.8591 168.729 48.8545 168.605 48.7247C168.481 48.5948 168.485 48.3889 168.615 48.2647L172.5 44.5495C172.629 44.4253 172.835 44.4299 172.96 44.5597Z" fill="#E7EAEE"/>
<path fill-rule="evenodd" clip-rule="evenodd" d="M180.349 44.8211C180.471 44.9527 180.463 45.1585 180.332 45.2809L176.304 49.0249C176.173 49.1472 175.967 49.1397 175.844 49.0081C175.722 48.8765 175.73 48.6706 175.861 48.5483L179.889 44.8043C180.02 44.682 180.226 44.6895 180.349 44.8211Z" fill="#E7EAEE"/>
<path fill-rule="evenodd" clip-rule="evenodd" d="M109.435 68.6525C109.305 67.5119 109.249 66.3628 109.268 65.215C108.546 64.9323 107.743 64.9787 106.969 65.0293C104.015 65.2225 101.062 65.4156 98.1079 65.6088C97.6198 65.6408 97.1212 65.6717 96.6487 65.5452C96.166 65.4159 95.6137 65.1373 95.2139 65.4371C94.8674 65.6969 94.8961 66.2159 94.9593 66.6444C95.0782 67.4504 95.1972 68.2564 95.3161 69.0624C95.3364 69.1995 95.3634 69.3492 95.4696 69.4382C95.5674 69.5202 95.7057 69.5276 95.8333 69.531C99.9775 69.641 104.126 69.6029 108.267 69.4169C108.792 69.3933 109.494 69.1743 109.435 68.6525Z" fill="white"/>
<path fill-rule="evenodd" clip-rule="evenodd" d="M123.609 49.3436C123.701 48.9845 123.365 48.6328 123.003 48.5555C122.64 48.4782 122.268 48.591 121.909 48.6813C120.477 49.0412 116.498 49.0397 115.957 49.0434C114.376 49.0542 112.795 49.0651 111.214 49.076C110.84 49.0786 110.523 49.3869 110.39 49.7371C110.257 50.0873 110.269 50.4734 110.283 50.8478C110.297 51.2345 110.311 51.6212 110.326 52.0079C110.334 52.2384 110.365 52.5078 110.562 52.6264C110.648 52.6778 110.751 52.6899 110.85 52.7004C112.383 52.862 113.928 52.9051 115.467 52.8291C118.19 52.6948 120.914 52.1888 123.626 52.4688C123.355 51.4512 123.349 50.364 123.609 49.3436Z" fill="white"/>
<path fill-rule="evenodd" clip-rule="evenodd" d="M172.596 129.906C172.629 129.683 172.811 129.507 173.014 129.406C173.565 129.131 174.261 129.322 174.726 129.726C175.191 130.13 175.467 130.706 175.687 131.281C175.766 131.486 175.831 131.741 175.686 131.906C175.632 131.967 175.556 132.005 175.48 132.037C174.843 132.306 174.081 132.276 173.482 131.931C172.882 131.587 172.469 130.927 172.449 130.236C172.708 130.271 172.835 130.558 172.97 130.782C173.433 131.553 174.545 131.843 175.326 131.398C174.587 130.65 173.625 130.124 172.596 129.906Z" fill="#00160A"/>
<path fill-rule="evenodd" clip-rule="evenodd" d="M168.787 123.322C169.011 123.043 169.236 122.765 169.46 122.486C169.312 123.737 168.284 124.832 167.045 125.06C166.662 124.766 166.014 124.961 165.858 125.418C165.628 125.465 165.396 125.284 165.321 125.062C165.245 124.839 165.293 124.593 165.379 124.374C165.508 124.044 165.717 123.752 165.923 123.464C166.619 122.492 167.425 121.448 168.596 121.208C168.898 121.146 169.24 121.152 169.483 121.341C169.727 121.531 169.795 121.953 169.551 122.142C169.269 121.763 168.701 121.701 168.26 121.872C167.819 122.042 167.475 122.391 167.147 122.731C166.828 123.06 166.51 123.389 166.191 123.718C166.016 123.899 165.856 124.233 166.075 124.357C166.325 123.82 167.081 123.777 167.518 123.378C167.896 123.032 168.15 122.371 168.655 122.457C168.392 123.065 167.913 123.576 167.324 123.879C167.071 124.009 166.778 124.121 166.652 124.376C167.042 124.555 167.515 124.454 167.878 124.225C168.241 123.996 168.517 123.656 168.787 123.322Z" fill="#00160A"/>
<path fill-rule="evenodd" clip-rule="evenodd" d="M158.201 122.034C158.818 122.143 159.487 121.798 159.755 121.231C160.023 120.665 159.867 119.928 159.392 119.52C159.529 119.352 159.794 119.331 159.986 119.432C160.178 119.533 160.303 119.729 160.375 119.934C160.607 120.589 160.349 121.336 159.898 121.865C159.448 122.394 158.832 122.748 158.228 123.092C157.948 123.251 157.656 123.414 157.335 123.434C157.014 123.454 156.657 123.284 156.572 122.973C156.545 122.872 156.55 122.755 156.614 122.672C156.927 122.262 157.663 123.234 158 122.844C157.919 122.531 157.838 122.219 157.757 121.906C157.903 121.957 158.049 122.008 158.201 122.034Z" fill="#00160A"/>
<path fill-rule="evenodd" clip-rule="evenodd" d="M152.543 121.073C151.854 120.989 151.364 120.245 151.44 119.556C151.515 118.867 152.055 118.286 152.698 118.026C152.895 117.947 153.141 117.9 153.303 118.037C153.466 118.173 153.354 118.528 153.151 118.465C152.655 118.312 152.18 118.811 152.043 119.312C151.955 119.631 151.95 119.992 152.127 120.272C152.303 120.551 152.701 120.702 152.984 120.53C153.187 120.406 153.395 120.693 153.443 120.927C153.491 121.16 153.598 121.469 153.835 121.441C154.225 121.247 154.37 120.78 154.592 120.405C154.814 120.031 155.316 119.706 155.658 119.975C155.702 120.01 155.741 120.058 155.743 120.113C155.746 120.174 155.705 120.227 155.666 120.274C155.285 120.723 154.865 121.139 154.412 121.515C154.108 121.766 153.687 122.009 153.344 121.815C153.019 121.631 152.913 121.118 152.543 121.073Z" fill="#00160A"/>
<path fill-rule="evenodd" clip-rule="evenodd" d="M155.857 128.127C155.52 127.828 155.177 127.521 154.957 127.127C154.737 126.734 154.659 126.232 154.872 125.835C154.931 125.727 155.021 125.622 155.142 125.602C155.264 125.582 155.404 125.695 155.368 125.814C155.213 126.33 155.439 126.937 155.894 127.227C156.07 127.339 156.306 127.548 156.159 127.695C155.983 127.871 156.303 128.108 156.549 128.148C157.019 128.225 157.49 128.302 157.961 128.379C157.869 128.768 157.391 128.956 157 128.873C156.61 128.789 156.293 128.515 155.995 128.25C155.949 128.209 155.903 128.168 155.857 128.127Z" fill="#00160A"/>
<path fill-rule="evenodd" clip-rule="evenodd" d="M138.511 139.931C138.558 139.642 138.604 139.353 138.651 139.065C138.678 138.899 138.706 138.73 138.786 138.582C138.881 138.406 139.041 138.275 139.198 138.149C139.627 137.805 140.055 137.46 140.484 137.115C140.822 137.372 140.89 137.917 140.626 138.25C140.604 137.944 140.405 137.657 140.127 137.529C139.815 138.454 139.251 139.293 138.511 139.931Z" fill="#00160A"/>
<path fill-rule="evenodd" clip-rule="evenodd" d="M171.606 135.696C171.764 136.546 172.09 137.364 172.558 138.09C172.927 138.662 172.589 139.411 172.252 140.002C172.099 140.061 171.956 139.863 171.981 139.701C172.006 139.54 172.124 139.412 172.201 139.267C172.5 138.7 172.128 138.028 171.798 137.479C171.468 136.929 171.185 136.179 171.606 135.696Z" fill="#00160A"/>
<path fill-rule="evenodd" clip-rule="evenodd" d="M110.204 69.3996C110.197 69.5966 110.188 69.8036 110.085 69.9717C109.897 70.2781 109.485 70.3381 109.127 70.3649C104.293 70.7272 99.4353 70.7794 94.5946 70.5211C94.5343 70.5178 94.4722 70.5141 94.418 70.4877C94.2846 70.4227 94.2487 70.2528 94.2285 70.1058C94.0939 69.1224 93.9592 68.1389 93.8246 67.1555C93.7283 66.452 93.6466 65.6779 94.0366 65.0845C94.5667 64.2779 95.6909 64.1819 96.656 64.1684C101.042 64.107 105.428 64.0455 109.814 63.9841C109.999 63.9815 110.218 63.9962 110.316 64.1529C110.372 64.2435 110.371 64.3574 110.367 64.4642C110.313 66.1093 110.258 67.7544 110.204 69.3996ZM109.435 68.6525C109.305 67.5119 109.249 66.3628 109.268 65.215C108.546 64.9323 107.743 64.9787 106.969 65.0293C104.015 65.2225 101.062 65.4156 98.1079 65.6088C97.6198 65.6408 97.1212 65.6717 96.6487 65.5452C96.166 65.4159 95.6137 65.1373 95.2139 65.4371C94.8674 65.6969 94.8961 66.2159 94.9593 66.6444C95.0782 67.4504 95.1972 68.2564 95.3161 69.0624C95.3364 69.1995 95.3634 69.3492 95.4696 69.4382C95.5674 69.5202 95.7057 69.5276 95.8333 69.531C99.9775 69.641 104.126 69.6029 108.267 69.4169C108.792 69.3933 109.494 69.1743 109.435 68.6525Z" fill="#FFB61D"/>
<path fill-rule="evenodd" clip-rule="evenodd" d="M168.059 131.468C168.28 130.689 168.671 129.96 169.197 129.345C169.188 130.18 168.749 130.998 168.059 131.468Z" fill="#00160A"/>
<path fill-rule="evenodd" clip-rule="evenodd" d="M170.04 136.174C169.896 136.619 169.673 137.039 169.386 137.408C169.264 137.565 169.108 137.724 168.909 137.734C169.167 137.132 169.464 136.487 170.04 136.174Z" fill="#00160A"/>
<path fill-rule="evenodd" clip-rule="evenodd" d="M173.585 138.557C173.905 138.78 174.224 139.004 174.544 139.228C174.615 139.278 174.695 139.367 174.644 139.438C174.158 139.391 173.719 139.026 173.585 138.557Z" fill="#00160A"/>
<path fill-rule="evenodd" clip-rule="evenodd" d="M174.171 138.432C173.84 138.533 173.56 137.992 173.833 137.78C174.019 137.96 174.156 138.19 174.225 138.439L174.171 138.432Z" fill="#00160A"/>
<path fill-rule="evenodd" clip-rule="evenodd" d="M169.969 129.119C170.21 129.424 170.218 129.863 170.087 130.23C169.957 130.596 169.709 130.907 169.465 131.21C169.238 131.493 168.949 131.803 168.587 131.776C168.525 131.53 168.754 131.318 168.94 131.145C169.508 130.619 169.879 129.887 169.969 129.119Z" fill="#00160A"/>
<path fill-rule="evenodd" clip-rule="evenodd" d="M172.658 137.105C173.062 136.737 173.668 136.606 174.187 136.776C174.706 136.945 175.119 137.408 175.228 137.943C175.308 138.336 175.348 138.885 175.747 138.924C175.819 139.181 175.361 139.278 175.196 139.069C175.031 138.86 175.061 138.565 175.019 138.302C174.908 137.598 174.147 137.069 173.449 137.209C173.164 137.266 172.776 137.37 172.658 137.105Z" fill="#00160A"/>
<path fill-rule="evenodd" clip-rule="evenodd" d="M142.565 141.619C142.372 140.999 142.815 140.287 142.543 139.697C142.453 139.503 142.296 139.351 142.159 139.187C141.704 138.648 141.447 137.946 141.445 137.24C141.445 137.025 141.542 136.743 141.756 136.763C142.037 136.791 141.965 137.21 141.947 137.492C141.911 138.027 142.377 138.44 142.671 138.889C143.108 139.558 143.174 140.453 142.841 141.178C142.718 141.446 142.962 141.723 143.131 141.964C143.57 142.59 143.534 143.509 143.046 144.098C142.863 143.975 142.855 143.705 142.922 143.495C142.989 143.285 143.111 143.089 143.124 142.868C143.151 142.406 142.703 142.061 142.565 141.619Z" fill="#00160A"/>
<path fill-rule="evenodd" clip-rule="evenodd" d="M152.059 76.3371C152.312 76.058 152.744 76.362 153.096 76.4943C153.78 76.7505 154.534 76.2573 155.256 76.3614C154.854 77.1913 153.717 77.2886 152.803 77.17C152.574 77.1403 152.332 77.0989 152.156 76.95C151.979 76.8011 151.903 76.5083 152.059 76.3371Z" fill="#00160A"/>
<path fill-rule="evenodd" clip-rule="evenodd" d="M153.837 73.6928C153.703 73.5221 153.723 73.2807 153.75 73.0652C153.77 72.912 153.789 72.7588 153.808 72.6056C153.854 72.245 154.002 71.7862 154.365 71.7834C154.745 71.7804 154.89 72.2758 154.898 72.6553C154.904 72.9843 154.887 73.3384 154.687 73.6C154.488 73.8615 154.04 73.9515 153.837 73.6928Z" fill="#00160A"/>
<path fill-rule="evenodd" clip-rule="evenodd" d="M151.555 71.9775C151.733 72.0185 151.774 72.2503 151.778 72.4333C151.79 73.0403 151.665 73.829 151.068 73.941C150.776 73.3899 150.831 72.6731 151.203 72.1726C151.288 72.0585 151.416 71.9456 151.555 71.9775Z" fill="#00160A"/>
<path fill-rule="evenodd" clip-rule="evenodd" d="M152.734 72.7731C152.779 72.8513 152.749 72.949 152.724 73.0353C152.47 73.8841 152.751 74.8684 153.414 75.4555C152.918 75.7689 152.225 75.3363 152.054 74.7753C151.882 74.2143 152.066 73.6131 152.248 73.0555C152.322 72.828 152.615 72.5654 152.734 72.7731Z" fill="#00160A"/>
<path fill-rule="evenodd" clip-rule="evenodd" d="M124.522 53.3504C123.651 53.4058 122.78 53.4612 121.909 53.5167C118.142 53.7565 114.375 53.9963 110.608 54.2362C110.076 54.27 109.361 54.1621 109.3 53.6328C109.109 51.9932 109.144 50.3276 109.403 48.6975C109.511 48.018 110.391 47.8364 111.079 47.8138C115.24 47.6766 119.402 47.5394 123.563 47.4023C124.075 47.3854 124.529 47.7789 124.744 48.2442C124.959 48.7095 124.984 49.2367 125.006 49.7488C125.048 50.7285 125.089 51.7082 125.131 52.6879C125.138 52.8582 125.139 53.0463 125.029 53.1764C124.91 53.3168 124.705 53.3387 124.522 53.3504ZM123.609 49.3436C123.701 48.9845 123.365 48.6328 123.003 48.5555C122.64 48.4782 122.268 48.591 121.909 48.6813C120.477 49.0412 116.498 49.0397 115.957 49.0434C114.376 49.0542 112.795 49.0651 111.214 49.076C110.84 49.0786 110.523 49.3869 110.39 49.7371C110.257 50.0873 110.269 50.4734 110.283 50.8478C110.297 51.2345 110.311 51.6212 110.326 52.0079C110.334 52.2384 110.365 52.5078 110.562 52.6264C110.648 52.6778 110.751 52.6899 110.85 52.7004C112.383 52.862 113.928 52.9051 115.467 52.8291C118.19 52.6948 120.914 52.1888 123.626 52.4688C123.355 51.4512 123.349 50.364 123.609 49.3436Z" fill="#FFB61D"/>
<path fill-rule="evenodd" clip-rule="evenodd" d="M61.4709 119.977C61.2935 120.035 61.0272 120.044 60.9952 119.86C61.2647 119.539 61.8215 119.524 62.1075 119.831C61.9552 119.997 61.701 120.061 61.4883 119.986L61.4709 119.977Z" fill="#00160A"/>
<path fill-rule="evenodd" clip-rule="evenodd" d="M155.542 70.8832C155.784 71.1417 156.006 71.4316 156.107 71.7707C156.174 71.9957 155.854 72.171 155.637 72.0815C155.42 71.992 155.298 71.7671 155.168 71.5711C155.039 71.375 154.849 71.1762 154.614 71.1929C154.377 71.2098 154.222 70.8856 154.339 70.6782C154.456 70.4708 154.74 70.4056 154.968 70.4729C155.196 70.5402 155.379 70.7093 155.542 70.8832Z" fill="#00160A"/>
<path fill-rule="evenodd" clip-rule="evenodd" d="M71.3632 113.831C71.0783 112.463 70.7621 111.089 70.1662 109.825C69.5702 108.562 68.6675 107.404 67.4435 106.731C66.7987 106.376 66.0864 106.166 65.4075 105.882C64.5763 105.534 63.7923 105.074 63.0836 104.518C63.7163 104.162 64.5003 104.497 65.1452 104.831C66.6487 105.61 68.1869 106.415 69.3211 107.673C70.8307 109.346 71.452 111.623 71.9007 113.832C71.7379 113.925 71.5255 113.925 71.3632 113.831Z" fill="#00160A"/>
<path fill-rule="evenodd" clip-rule="evenodd" d="M64.3136 125.637C64.3164 125.528 64.3408 125.398 64.4408 125.355C64.7588 125.216 64.8656 126.112 65.1523 125.917C65.4855 125.69 65.9559 126.186 65.7821 126.55C65.6083 126.914 65.06 126.966 64.7399 126.721C64.4198 126.475 64.303 126.04 64.3136 125.637Z" fill="#00160A"/>
<path fill-rule="evenodd" clip-rule="evenodd" d="M63.2509 121.68C62.8926 121.08 63.0214 120.308 63.2766 119.658C63.4305 119.265 63.6661 118.854 64.0683 118.728C64.4706 118.602 64.9989 118.991 64.84 119.381C64.4644 119.501 64.0734 119.644 63.8179 119.945C63.5624 120.245 63.507 120.752 63.8041 121.011C63.9516 121.14 63.9223 121.377 63.8568 121.561C63.7912 121.746 63.7011 121.945 63.7669 122.129C63.8328 122.314 64.1565 122.374 64.2027 122.184C64.2536 121.974 64.5788 121.983 64.7325 122.134C64.8862 122.285 64.9474 122.509 65.0894 122.671C65.2314 122.833 65.5392 122.893 65.6354 122.7C65.7271 122.517 66.0264 122.529 66.151 122.692C66.2757 122.855 66.2504 123.094 66.1514 123.274C65.9362 123.665 65.3855 123.827 64.993 123.614C64.7622 123.488 64.6029 123.266 64.4076 123.091C64.2122 122.916 63.9328 122.782 63.6916 122.885C63.4611 122.985 63.2603 122.669 63.2717 122.418C63.283 122.168 63.3796 121.895 63.2509 121.68Z" fill="#00160A"/>
<path fill-rule="evenodd" clip-rule="evenodd" d="M54.8161 80.6248C55.2817 80.222 55.4475 79.509 55.2073 78.942C55.1176 78.7303 55.0304 78.3992 55.2536 78.3442C55.9332 78.9387 55.9909 80.1098 55.373 80.7682C55.2656 80.8827 55.1218 80.9884 54.9661 80.9674C54.8105 80.9464 54.6973 80.7275 54.8161 80.6248Z" fill="#00160A"/>
<path fill-rule="evenodd" clip-rule="evenodd" d="M53.7383 77.0356C54.0853 77.0449 54.3466 77.395 54.3765 77.7408C54.4063 78.0867 54.2637 78.4224 54.1118 78.7345C54.0179 78.9276 53.861 79.1498 53.6494 79.1137C53.4899 79.0865 53.3969 78.9229 53.3281 78.7764C53.1753 78.4507 53.0272 78.1025 53.0613 77.7443C53.0955 77.3862 53.3786 77.0259 53.7383 77.0356Z" fill="#00160A"/>
<path fill-rule="evenodd" clip-rule="evenodd" d="M56.1744 78.6634C55.8766 78.7446 55.7116 78.3228 55.7209 78.0143C55.7292 77.7412 55.768 77.4556 55.9277 77.2339C56.0874 77.0122 56.4851 76.746 56.6369 77.1131C56.7887 77.4801 56.6983 78.0357 56.4155 78.4558C56.355 78.5457 56.279 78.6348 56.1744 78.6634Z" fill="#00160A"/>
<path fill-rule="evenodd" clip-rule="evenodd" d="M52.7531 80.8177C52.8551 80.7986 52.9572 80.7795 53.0592 80.7604C53.09 81.1008 53.4203 81.3311 53.7384 81.4561C54.0565 81.581 54.4109 81.6606 54.6498 81.9049C54.7363 81.9933 54.7957 82.155 54.6952 82.2271C54.6511 82.2587 54.5923 82.2578 54.5381 82.2542C53.7036 82.1992 52.796 81.6529 52.7531 80.8177Z" fill="#00160A"/>
<path fill-rule="evenodd" clip-rule="evenodd" d="M52.6431 76.5508C52.4158 76.4996 52.4095 76.1352 52.5967 75.9964C52.7838 75.8576 53.0453 75.8891 53.269 75.9541C53.7624 76.0973 54.2162 76.3741 54.5695 76.747C53.9558 77.0207 53.1891 76.1592 52.6431 76.5508Z" fill="#00160A"/>
<path fill-rule="evenodd" clip-rule="evenodd" d="M38.4089 121.379C39.0003 121.656 39.7927 121.097 39.73 120.447C40.1108 120.777 40.531 121.241 40.3599 121.715C40.2961 121.892 40.1566 122.031 40.0082 122.146C39.4882 122.549 38.8288 122.728 38.1785 122.83C37.4973 122.936 36.7329 122.948 36.1965 122.515C35.6667 122.087 35.5212 121.253 35.875 120.671C35.9621 120.528 36.0853 120.393 36.2482 120.353C36.6051 120.265 36.9049 120.682 36.9006 121.05C36.8964 121.417 36.7127 121.758 36.6513 122.12C36.6404 122.185 36.6334 122.252 36.6495 122.315C36.7161 122.58 37.1218 122.589 37.3233 122.405C37.5248 122.221 37.5993 121.94 37.7384 121.705C37.8776 121.47 38.1617 121.264 38.4089 121.379ZM38.4206 122.516C38.5357 122.408 38.6509 122.3 38.766 122.193C38.7227 122.055 38.5371 121.984 38.4133 122.059C38.2894 122.134 38.265 122.331 38.367 122.433L38.4206 122.516Z" fill="#00160A"/>
<path fill-rule="evenodd" clip-rule="evenodd" d="M35.6911 125.265C35.8294 125.655 36.3699 125.755 36.7476 125.586C36.8216 125.553 36.8967 125.507 36.9304 125.434C37.0282 125.22 36.7157 125.004 36.7604 124.773C36.7982 124.578 37.0573 124.523 37.252 124.563C37.4467 124.604 37.6468 124.696 37.8357 124.634C38.0546 124.562 38.1585 124.315 38.2133 124.092C38.2681 123.868 38.3112 123.62 38.4857 123.469C38.6602 123.319 39.0127 123.384 39.02 123.614C39.0341 124.06 38.6939 124.436 38.3377 124.705C37.9815 124.973 37.5737 125.203 37.3399 125.583C37.1179 125.943 36.9892 126.478 36.5676 126.52C36.4325 126.533 36.2989 126.485 36.1764 126.426C35.2964 126.005 34.7727 124.947 34.9708 123.992C35.0587 123.568 35.4828 123.102 35.8532 123.326C36.1527 123.508 36.0928 123.961 35.94 124.276C35.7873 124.591 35.5741 124.935 35.6911 125.265Z" fill="#00160A"/>
<path fill-rule="evenodd" clip-rule="evenodd" d="M59.2727 96.551C59.674 102.136 63.365 106.863 66.8979 111.208C67.9016 112.442 68.9713 113.726 70.4504 114.312C73.235 115.414 76.6921 113.745 79.2648 115.278C65.8038 115.309 52.3443 116.046 38.9604 117.485C37.8086 117.609 36.619 117.735 35.5115 117.395C34.4041 117.055 33.392 116.118 33.346 114.961C32.7579 100.167 32.1698 85.3742 31.5817 70.5809C31.4727 67.8405 31.3626 65.0888 30.8624 62.3921C30.2079 58.8629 30.1923 55.2504 30.1787 51.661C30.161 46.9939 30.1434 42.3268 30.1257 37.6597C45.297 37.0029 60.4919 36.8913 75.6712 37.3254C76.2939 38.2517 76.4199 39.4142 76.524 40.5255C78.2856 59.3392 78.8325 78.243 79.3785 97.1312C79.5421 102.791 79.7057 108.451 79.8693 114.11C79.5885 114.017 79.3077 113.923 79.027 113.829C78.3653 95.9562 77.7036 78.083 77.0419 60.2098C77.0293 59.8685 76.9945 59.4816 76.7254 59.2714C76.5193 59.1104 76.2359 59.1043 75.9744 59.1052C61.9033 59.1565 47.8322 59.2077 33.7612 59.259C32.6702 59.263 31.1377 59.8304 31.4917 60.8624C33.2008 65.8451 32.5982 71.273 32.6186 76.5406C32.6299 79.468 32.8402 82.3906 33.0505 85.3104C33.3069 88.8714 33.5633 92.4324 33.8197 95.9933C34.4287 94.413 35.0377 92.8327 35.6467 91.2524C35.788 90.8858 35.9154 90.4293 35.6549 90.1353C33.7192 87.9515 34.326 84.0505 36.8335 82.5579C37.315 82.2713 37.8537 82.0594 38.2481 81.6614C39.3578 80.5415 38.8333 78.5662 39.6516 77.2187C40.8664 75.2182 44.6195 75.1434 44.75 72.8066C44.8679 70.6958 46.7839 68.9933 48.8589 68.589C50.9339 68.1846 53.0841 68.8428 54.9529 69.8312C56.777 70.796 58.5853 72.3615 58.6639 74.4236C58.6947 75.2349 58.4482 76.0283 58.2044 76.8027C57.321 79.6084 56.2833 82.6278 53.8433 84.2705C56.9913 87.5771 58.9455 91.9972 59.2727 96.551ZM56.9535 104.018C58.7649 107.584 62.203 110.125 63.9709 113.712C64.0502 113.873 64.1328 114.044 64.2826 114.143C64.4531 114.255 64.6722 114.25 64.8763 114.244C66.4226 114.2 67.9745 114.359 69.4799 114.714C65.9162 111.623 63.2284 107.658 60.79 103.62C59.9104 102.163 59.0345 100.616 58.9482 98.9169C58.6965 93.9612 56.8776 89.0968 53.8161 85.1918C52.6907 83.7563 50.2691 84.0339 48.9763 85.3208C47.6835 86.6077 47.2698 88.5229 47.0813 90.3373C47.02 90.9278 46.9785 91.5404 47.1742 92.1009C47.3698 92.6614 47.8623 93.1594 48.4556 93.1804C49.0489 93.2014 49.6264 92.5775 49.4207 92.0206C49.6314 92.472 49.8421 92.9235 50.0528 93.3749C49.1883 94.3046 47.5108 94.0019 46.7155 93.0125C45.9201 92.023 45.8528 90.6187 46.1244 89.3786C46.7656 86.4515 49.2095 83.9994 52.1345 83.3485C52.1687 82.7779 51.3246 82.6084 50.8049 82.8463C50.2851 83.0842 49.7896 83.5233 49.2266 83.4243C48.7119 83.3337 48.4185 83.9718 48.2357 84.4615C47.2063 87.2201 44.2612 88.6455 41.8798 90.3773C41.0678 90.9677 40.2665 91.6357 39.2918 91.8763C38.317 92.1169 37.1013 91.7601 36.754 90.818C33.7723 98.5223 33.0661 107.091 34.7463 115.18C34.8657 115.755 35.3946 116.174 35.9587 116.337C36.5229 116.5 37.1234 116.454 37.7087 116.406C46.3878 115.704 55.0668 115.003 63.7459 114.301C61.6786 110.317 57.7897 107.451 56.0183 103.327C55.6051 102.365 55.3134 101.346 54.7888 100.44C53.9944 99.0686 52.6988 98.0132 52.0502 96.5667C51.2669 97.6441 50.4837 98.7214 49.7004 99.7988C49.5241 100.041 49.6056 100.378 49.6942 100.664C49.8906 101.299 50.0958 101.951 50.5139 102.467C50.9319 102.983 51.6187 103.339 52.2622 103.174C53.5746 102.837 55.0696 103.404 55.8287 104.527C54.2236 104.224 52.6185 103.921 51.0135 103.618C50.781 103.575 50.537 103.525 50.3567 103.372C50.2037 103.242 50.116 103.053 50.0328 102.871C49.7342 102.215 49.4355 101.559 49.1369 100.903C48.8765 100.331 48.621 99.6403 48.9531 99.1068C49.2344 98.6551 49.8188 98.5194 50.2571 98.2176C51.4668 97.3849 51.3085 95.5425 50.7571 94.1814C50.2058 92.8203 49.3798 91.4188 49.6983 89.9852C50.3509 92.1061 51.0184 94.2592 52.2364 96.1141C53.1356 97.4834 54.316 98.6589 55.1404 100.075C55.8689 101.326 56.298 102.727 56.9535 104.018ZM31.18 39.016C31.2171 42.3306 31.2543 45.6452 31.2914 48.9597C31.2996 49.6902 31.5681 50.6781 32.2963 50.6202C46.6848 49.4767 61.1383 49.1517 75.5636 49.6472C75.9631 49.6609 76.2932 49.2938 76.382 48.904C76.4707 48.5142 76.3788 48.1089 76.293 47.7185C75.6387 44.7432 75.3277 41.6926 75.3679 38.6464C75.3743 38.1631 74.7304 38.0002 74.2471 37.9913C60.1051 37.7329 45.957 37.8109 31.8187 38.2253C31.6796 38.2293 31.5327 38.2358 31.4157 38.311C31.1976 38.4513 31.1771 38.7567 31.18 39.016ZM76.9945 57.7337C77.0488 55.2473 76.8979 52.7564 76.5438 50.2947C75.3857 50.7302 74.1156 50.8638 72.8922 50.6787C71.6791 50.4951 70.4472 50.4846 69.2203 50.4745C63.5968 50.4281 57.9724 50.3817 52.3495 50.4809C45.5453 50.6011 38.7467 50.9345 31.9524 51.3216C31.7668 51.3322 31.5665 51.3485 31.4259 51.4701C31.2433 51.6279 31.2279 51.9009 31.2277 52.1423C31.2257 54.0685 31.3084 55.9949 31.4754 57.9139C31.4855 58.03 31.4989 58.1538 31.5727 58.244C31.689 58.386 31.9016 58.388 32.0848 58.3781C45.521 57.6538 58.9888 58.1213 72.4445 58.1337C73.9717 58.1351 75.5191 58.1281 76.9945 57.7337ZM45.6385 71.6146C45.2741 72.4945 45.259 73.5169 44.7365 74.3131C43.6753 75.9305 41.0393 75.908 40.0468 77.5684C39.243 78.913 39.857 80.8694 38.8018 82.0272C38.2714 82.6091 37.4537 82.8175 36.7916 83.2435C35.4038 84.1363 34.8247 86.0142 35.251 87.6083C35.6772 89.2024 36.9778 90.4775 38.5009 91.1125C38.7716 91.2254 39.0621 91.3219 39.3532 91.286C39.6821 91.2455 39.9652 91.0431 40.2324 90.8472C42.0756 89.4959 43.9188 88.1446 45.762 86.7933C46.4408 86.2957 47.1453 85.7678 47.5119 85.0103C48.1328 83.7271 47.6844 81.9919 48.6639 80.9563C49.0419 80.5567 49.5848 80.3313 49.9241 79.8983C50.2634 79.4653 50.2218 78.6545 49.6836 78.5407C49.0969 78.4166 49.2517 77.4831 49.7176 77.1056C50.1834 76.728 50.8452 76.4916 51.0206 75.9182C51.1859 75.3776 50.9373 74.5685 51.4721 74.3851C51.7797 74.2797 52.0847 74.5192 52.3571 74.6968C53.5587 75.4802 55.3729 75.0703 56.121 73.8465C56.4117 73.3708 57.16 73.8771 57.296 74.4177C57.4321 74.9583 57.4526 75.655 57.9657 75.873C58.474 75.0756 58.3208 73.9912 57.8227 73.1875C57.3247 72.3837 56.5399 71.8055 55.7558 71.2769C54.147 70.1924 52.3815 69.2048 50.4468 69.0591C48.512 68.9133 46.3809 69.8221 45.6385 71.6146ZM51.4054 78.5787C50.958 80.2189 48.6537 80.9299 48.4645 82.6195C48.8955 83.0922 49.6859 82.8688 50.2186 82.5146C50.4901 82.3341 50.7523 82.1194 50.9005 81.8291C51.0487 81.5388 51.058 81.1579 50.8494 80.9074C50.6683 80.6898 51.0766 80.3946 51.319 80.5412C51.5613 80.6877 51.6218 81.0037 51.6955 81.2772C51.8525 81.8602 52.1741 82.398 52.6133 82.8122C52.9793 83.1574 53.5137 83.4248 53.9756 83.2256C54.1659 83.1435 54.3168 82.9923 54.4575 82.8402C55.9176 81.2624 56.8256 79.1834 56.9906 77.04C57.0094 76.7966 56.9989 76.509 56.7994 76.3682C56.6035 76.23 56.3377 76.3102 56.1001 76.3426C55.8625 76.375 55.5472 76.2857 55.5361 76.0462C55.8075 75.7834 56.2717 75.7516 56.5764 75.9749C56.7049 76.069 56.831 75.8468 56.8265 75.6876C56.8134 75.2324 56.667 74.7819 56.4099 74.406C55.8441 75.0369 55.1102 75.5485 54.2772 75.7037C53.4442 75.8589 52.5109 75.6088 51.9736 74.9535C51.6494 75.6456 51.5056 76.4212 51.56 77.1835C51.5795 77.4573 51.1815 77.5416 50.9217 77.4535C50.6618 77.3653 50.365 77.2116 50.1363 77.3634C49.9144 77.5107 49.9395 77.8688 50.1169 78.0674C50.2944 78.2661 50.5659 78.3461 50.8226 78.4172C51.0169 78.4711 51.2111 78.5249 51.4054 78.5787ZM35.0323 94.4041C35.072 94.2356 35.0903 94.0152 34.9384 93.9322C34.5565 95.056 34.1976 96.1877 33.8621 97.3263C33.7334 97.7634 33.6133 98.2569 33.8344 98.6553C33.994 98.6622 34.0757 98.4701 34.1123 98.3146C34.419 97.0111 34.7257 95.7076 35.0323 94.4041Z" fill="#00160A"/>
<path fill-rule="evenodd" clip-rule="evenodd" d="M70.9639 127.285C79.2474 126.618 87.5689 126.422 95.8746 126.7C95.6325 123.908 95.3903 121.116 95.1481 118.323C86.6746 118.705 78.2011 119.087 69.7276 119.469C69.4669 121.949 68.5047 124.352 66.9813 126.327C66.2474 127.279 66.8783 128.623 67.3497 129.728C67.8211 130.834 67.8589 132.509 66.7009 132.831C65.173 132.078 64.0841 130.5 63.9235 128.805C57.6573 129.078 51.3911 129.351 45.125 129.625C42.7959 129.726 39.9214 130.223 39.2281 132.449C38.9574 130.695 36.6414 130.292 34.8669 130.315C29.5643 130.387 24.2617 130.458 18.9591 130.529C18.8783 128.108 18.7974 125.688 18.7166 123.267C18.7009 122.798 18.69 122.307 18.9003 121.887C19.4651 120.761 21.0871 120.881 22.3134 121.17C21.9192 117.229 21.525 113.288 21.1309 109.347C19.3026 109.765 19.8907 105.077 18.0504 105.439C16.9364 105.659 15.8861 104.636 15.6484 103.525C15.4106 102.415 15.7574 101.272 16.1006 100.19C17.1348 99.8742 18.6171 100.187 19.6652 99.8742C20.7134 99.5616 21.3521 98.9575 21.3155 97.8643C20.5552 75.163 18.9136 52.4913 16.3957 29.9173C14.7882 30.6087 12.8741 29.3608 12.2274 27.7348C11.5807 26.1088 11.8577 24.2774 12.196 22.5606C12.3148 21.958 12.4606 21.3179 12.9031 20.892C13.4671 20.3491 14.334 20.3151 15.1169 20.3133C39.6829 20.2574 64.2488 20.2015 88.8148 20.1456C89.3502 20.1444 89.9401 20.1631 90.3358 20.5238C90.6976 20.8535 90.793 21.3767 90.8681 21.8604C91.1601 23.7413 91.4468 25.7022 90.8726 27.517C90.2984 29.3317 88.582 30.9374 86.6916 30.7154C87.7256 53.1199 88.7597 75.5243 89.7938 97.9288C91.4792 97.5604 93.4502 98.1842 94.2908 99.6907C95.1314 101.197 94.3647 103.474 92.6813 103.851C93.7553 104.744 93.237 106.644 92.0551 107.389C90.8732 108.133 89.3699 108.057 87.9789 107.93C86.5878 107.803 85.1034 107.668 83.8699 108.323C84.161 111.023 84.1248 113.758 83.7622 116.449C84.9585 115.735 86.5777 115.81 87.7033 116.63C88.4847 117.2 89.1948 115.814 89.1875 114.847C89.1703 112.595 89.1531 110.343 89.1359 108.09C90.3557 110.888 90.6951 114.062 90.0944 117.054C91.5983 117.172 93.1022 117.289 94.6061 117.406C95.0583 117.441 95.5479 117.492 95.8795 117.802C96.2095 118.11 96.2953 118.593 96.3526 119.04C96.7229 121.931 96.6676 124.876 96.1891 127.751C86.445 127.075 76.6339 127.371 66.948 128.631C67.9524 127.592 69.5238 127.402 70.9639 127.285ZM42.055 119.951C42.754 118.007 45.3075 117.658 47.3732 117.634C48.324 117.624 49.2749 117.613 50.2257 117.602C52.2821 117.579 54.3465 117.557 56.386 117.82C56.6398 118.123 56.8935 118.425 57.1473 118.728C57.9602 118.47 58.9251 118.812 59.3928 119.526C60.7839 118.081 62.5003 116.824 64.4843 116.532C66.4682 116.24 68.7252 117.157 69.4837 119.013C69.7577 118.072 70.0999 117.073 70.8909 116.493C71.6819 115.914 73.0501 116.055 73.3739 116.981C74.6506 115.565 77.2313 115.683 78.3734 117.209C78.3863 116.466 79.3943 116.205 80.1223 116.355C80.8503 116.506 81.6534 116.829 82.2898 116.445C82.9751 116.031 83.0167 115.07 82.9778 114.271C81.7017 88.0269 80.4255 61.7827 79.1494 35.5386C79.1404 35.3543 79.1237 35.1516 78.993 35.0214C78.8566 34.8855 78.6431 34.8747 78.4505 34.8722C61.7572 34.6598 45.0638 34.4475 28.3705 34.2351C28.0119 34.2305 27.61 34.243 27.3601 34.5003C27.1245 34.7429 27.109 35.1176 27.1078 35.4559C27.0343 56.5104 27.8731 77.568 29.6212 98.5499C29.6898 99.3742 30.145 100.486 30.9378 100.25C30.978 102.619 31.0182 104.987 31.0584 107.356C31.0675 107.893 31.0329 108.52 30.5923 108.826C30.3473 108.997 30.0329 109.021 29.7351 109.04C27.2978 109.193 24.8604 109.347 22.4231 109.501C22.8038 113.267 23.1844 117.034 23.5651 120.8C25.7464 120.873 27.9341 120.759 30.0958 120.458C29.0601 117.187 28.6959 113.705 29.0323 110.29C29.7633 110.35 29.9935 111.296 30.0308 112.028C30.1203 113.786 30.2097 115.544 30.2992 117.302C30.3465 118.232 30.4169 119.226 30.9895 119.961C31.5621 120.695 32.8336 120.944 33.3928 120.199C35.3849 117.548 39.9141 117.418 42.055 119.951ZM88.3486 87.3621C87.4652 68.4992 86.5817 49.6364 85.6983 30.7736C62.8242 30.5423 39.95 30.311 17.0759 30.0797C20.3625 53.1019 21.3058 76.3861 22.2448 99.6228C24.3975 99.8776 26.5803 99.8771 28.7328 99.6214C28.1132 90.4436 27.4935 81.2657 26.8738 72.0879C26.6536 68.8262 26.4334 65.5638 26.3254 62.2964C26.2356 59.5782 26.2236 56.8581 26.2116 54.1384C26.1837 47.8446 26.1559 41.5508 26.1281 35.257C26.125 34.5656 26.342 33.6368 27.0334 33.6401C44.3865 33.725 61.7395 33.8098 79.0926 33.8947C79.4745 33.8965 79.9247 33.9349 80.1228 34.2614C80.2188 34.4197 80.2307 34.6132 80.2401 34.7981C80.9442 48.6747 81.6484 62.5516 82.1992 76.4352C82.291 78.7504 82.3786 81.0657 82.4662 83.3811C82.6484 88.197 82.8306 93.0129 83.0127 97.8288C83.0301 98.2884 83.6583 98.3989 84.1172 98.3685C85.6946 98.2639 87.272 98.1592 88.8494 98.0546C88.6824 94.4904 88.5155 90.9262 88.3486 87.3621ZM12.8006 27.1818C13.1279 28.3199 14.0801 29.3676 15.2635 29.4134C32.4619 30.0783 49.6932 29.0737 66.8907 29.7626C73.8601 30.0418 80.8822 30.5964 87.7791 29.5556C88.251 29.4843 88.7471 29.3945 89.1114 29.0863C89.4525 28.7977 89.6259 28.3606 89.7616 27.9349C90.3207 26.1814 90.4558 24.2944 90.1523 22.4791C90.0764 22.0252 89.9431 21.5297 89.5573 21.2789C89.2694 21.0918 88.9045 21.0849 88.5612 21.0841C78.2011 21.0594 67.841 21.0347 57.4809 21.01C55.8058 21.006 54.1308 21.002 52.4558 20.998C46.9685 20.985 41.4813 20.9719 35.9941 20.9588C28.8608 20.9418 21.727 20.9248 14.5945 21.0353C13.4344 21.0532 12.954 22.5073 12.7951 23.6566C12.633 24.8297 12.4733 26.0437 12.8006 27.1818ZM58.1803 120.324C52.8758 120.517 47.5712 120.709 42.2667 120.901C42.7042 120.999 42.7489 121.627 42.5595 122.033C42.3702 122.439 42.0447 122.824 42.0873 123.27C42.221 124.672 41.7865 126.119 40.903 127.216C40.2769 127.993 39.3788 128.962 39.8969 129.814C41.3864 129.08 43.0964 128.976 44.7543 128.885C50.8454 128.55 56.9366 128.214 63.0278 127.879C63.4244 126.403 61.2423 125.025 61.848 123.622C61.9863 123.301 61.7653 122.948 61.5552 122.669C60.6961 121.529 59.6069 120.273 58.1803 120.324ZM19.8365 123.366C19.965 125.438 20.2251 127.502 20.6148 129.541C25.8356 129.525 31.0564 129.509 36.2773 129.493C36.538 129.492 36.9089 129.283 36.7398 129.085C35.9111 128.113 35.0824 127.142 34.2537 126.17C33.7925 125.629 33.3139 125.053 33.1888 124.354C32.9996 123.296 33.6 121.993 32.8278 121.246C28.7726 121.934 24.6462 122.203 20.536 122.045C19.9712 122.023 19.8015 122.802 19.8365 123.366ZM63.0255 125.557C63.5048 126.372 63.2098 127.607 63.9725 128.166C65.2615 129.11 65.0534 131.552 66.5841 132.01C66.8571 131.735 67.1372 131.449 67.2775 131.089C67.4178 130.728 67.3811 130.268 67.0867 130.017C66.2789 129.327 66.0923 128.121 66.3132 127.082C66.5341 126.043 67.0898 125.112 67.5657 124.162C68.1167 123.062 68.5695 121.914 68.9167 120.734C69.0718 120.206 69.1749 119.554 68.7738 119.178C68.4397 118.866 67.8462 118.856 67.6402 118.447C67.5328 118.234 67.5691 117.968 67.4501 117.761C67.3203 117.536 67.0466 117.444 66.7963 117.374C65.9798 117.144 65.1344 116.939 64.291 117.03C63.4476 117.121 62.5962 117.563 62.2298 118.329C61.9195 118.977 60.829 118.661 60.3241 119.173C59.8127 119.69 60.2914 120.577 60.8769 121.01C61.4625 121.442 62.2176 121.815 62.3664 122.528C62.5 123.167 62.0666 123.844 62.2669 124.466C62.4034 124.89 62.7998 125.173 63.0255 125.557ZM17.1348 104.473C17.3861 104.87 17.9352 104.92 18.4046 104.921C22.0843 104.929 25.75 104.51 29.4058 104.092C30.0667 104.017 30.2292 103.122 30.118 102.466C30.0069 101.81 29.8436 101.014 30.3485 100.58C26.1379 100.278 21.9024 100.323 17.6991 100.713C17.4928 100.732 17.2678 100.761 17.1247 100.911C16.9691 101.073 16.962 101.323 16.9641 101.548C16.9709 102.268 16.9776 102.988 16.9844 103.708C16.9869 103.972 16.9937 104.251 17.1348 104.473ZM40.8184 119.866C40.037 119.332 39.1202 118.772 38.2061 119.017C37.9709 119.081 37.7033 119.191 37.5019 119.054C36.4933 118.367 34.8865 118.938 34.5376 120.108C34.4262 120.481 34.0222 120.674 33.7767 120.976C33.5311 121.278 33.6224 121.907 34.0078 121.85C34.3279 121.803 34.4917 122.268 34.3554 122.562C34.2191 122.855 33.9306 123.051 33.7677 123.33C33.3336 124.075 33.9345 124.979 34.5029 125.627C35.3904 126.639 36.2779 127.651 37.1654 128.663C37.9136 129.516 38.6781 130.396 39.0628 131.464C39.615 131.095 39.5011 130.263 39.2984 129.631C39.0957 128.999 38.9054 128.205 39.3929 127.755C39.5949 127.568 39.8922 127.473 40.0164 127.228C40.1406 126.983 39.7901 126.611 39.6358 126.838C39.3601 127.245 38.9005 127.608 38.4195 127.507C37.9385 127.407 37.7287 126.61 38.1865 126.431C38.3468 126.757 38.8396 126.579 39.1298 126.361C39.5437 126.051 39.9575 125.741 40.3714 125.431C40.9082 125.029 41.4869 124.56 41.5917 123.898C41.7034 123.192 41.2667 122.343 41.7541 121.819C41.3467 121.467 41.5745 120.765 41.2963 120.304C41.1838 120.118 40.9983 119.989 40.8184 119.866ZM83.1802 103.535C83.6414 103.311 84.1656 103.264 84.6765 103.219C87.2986 102.991 89.9181 102.734 92.5345 102.448C92.8602 102.413 93.1971 102.373 93.4789 102.206C94.0461 101.869 94.2191 101.067 93.9644 100.459C93.7097 99.8503 93.1176 99.4338 92.4881 99.2373C91.8585 99.0407 91.1873 99.0346 90.5278 99.0405C88.3438 99.0601 86.1607 99.1937 83.9906 99.4407C83.6057 99.4845 83.1752 99.558 82.9514 99.8742C82.7507 100.158 82.7874 100.539 82.8325 100.884C82.9484 101.767 83.0643 102.651 83.1802 103.535ZM20.7862 107.998C21.087 108.477 21.7158 108.649 22.2804 108.613C22.845 108.577 23.3856 108.376 23.9437 108.284C25.7397 107.987 27.6771 108.804 29.3566 108.102C29.4901 108.046 29.6259 107.976 29.7069 107.856C29.7869 107.738 29.8019 107.589 29.813 107.446C29.8661 106.766 29.8845 106.084 29.8681 105.402C29.8656 105.296 29.8564 105.177 29.7765 105.107C29.7148 105.052 29.6268 105.043 29.5449 105.036C26.5721 104.807 23.6197 105.735 20.6384 105.692C20.4384 105.689 20.3885 105.968 20.4093 106.167C20.4453 106.511 20.4896 106.854 20.5423 107.196C20.5852 107.474 20.6365 107.759 20.7862 107.998ZM92.3245 104.115C92.2974 103.973 92.2607 103.823 92.1554 103.724C92.0063 103.584 91.7752 103.594 91.5715 103.613C89.1965 103.832 86.8229 104.065 84.4508 104.314C84.1266 104.348 83.7539 104.412 83.5925 104.695C83.3955 105.041 83.6406 105.464 83.6566 105.861C83.6665 106.11 83.587 106.378 83.7039 106.598C83.8593 106.89 84.2576 106.924 84.5886 106.918C85.5494 106.901 86.5099 106.87 87.4704 106.838C88.9687 106.789 90.4671 106.739 91.9654 106.69C92.2608 106.68 92.3866 106.312 92.4144 106.018C92.4743 105.384 92.444 104.741 92.3245 104.115ZM83.1787 117.314C83.057 117.247 82.9673 117.132 82.8449 117.066C82.5849 116.927 82.2617 117.05 82.0188 117.217C81.7759 117.384 81.5515 117.6 81.2641 117.666C80.9766 117.731 80.6061 117.548 80.6224 117.254C80.6447 116.849 80.0601 116.69 79.6949 116.865C79.3297 117.039 79.0648 117.389 78.6875 117.535C78.4368 117.633 78.1419 117.639 77.9361 117.812C77.7303 117.985 77.777 118.43 78.0454 118.412C80.8173 118.217 83.5892 118.021 86.3612 117.826C86.5946 117.81 86.8659 117.771 86.9818 117.568C87.158 117.259 86.7759 116.886 86.4205 116.893C86.0652 116.9 85.755 117.12 85.4249 117.252C84.8529 117.48 84.2142 117.444 83.5995 117.404C83.4552 117.394 83.3055 117.383 83.1787 117.314ZM49.6421 119.718C51.7879 119.583 53.9338 119.448 56.0796 119.313C56.2065 119.305 56.3461 119.291 56.4342 119.199C56.6051 119.021 56.4217 118.702 56.1822 118.641C55.9427 118.581 55.6962 118.679 55.4567 118.739C55.2173 118.799 54.9259 118.808 54.7641 118.621C54.4239 118.229 53.7541 119.02 53.3117 118.749C52.7018 118.374 51.9818 118.157 51.2686 118.216C50.5553 118.276 49.8553 118.632 49.4511 119.222C49.3516 119.368 49.2883 119.602 49.4402 119.691C49.4997 119.726 49.5733 119.723 49.6421 119.718ZM72.8511 116.599C72.523 116.413 72.1214 116.664 71.8566 116.932C71.5395 117.253 71.2623 117.771 71.5418 118.126C71.7334 118.369 72.0874 118.391 72.3971 118.393C73.134 118.398 73.871 118.402 74.6079 118.406C74.7401 118.407 74.8782 118.407 74.9959 118.347C75.1769 118.254 75.2634 118.048 75.3357 117.858C75.4794 117.481 75.5879 116.973 75.2579 116.74C75.1346 116.653 74.9778 116.633 74.8279 116.614C74.5094 116.576 74.138 116.555 73.9198 116.79C73.6244 117.108 73.7431 117.766 73.3294 117.898C73.1188 117.471 73.2656 116.833 72.8511 116.599ZM48.0597 119.564C48.1647 119.56 48.2728 119.554 48.3681 119.51C48.7121 119.35 48.6313 118.776 48.2995 118.592C47.9677 118.409 47.549 118.516 47.2138 118.694C46.9093 118.855 46.5472 118.677 46.2221 118.563C45.3263 118.25 44.2637 118.479 43.5765 119.133C43.3995 119.302 43.2383 119.563 43.3575 119.776C44.9249 119.706 46.4923 119.635 48.0597 119.564ZM75.8565 118.486C75.9103 118.521 75.9773 118.526 76.0412 118.529C76.5289 118.552 77.1376 118.378 77.2161 117.896C77.2617 117.616 77.0688 117.318 76.7952 117.245C76.327 117.12 75.9134 117.606 75.7828 118.073C75.7423 118.218 75.7302 118.405 75.8565 118.486ZM71.0696 117.537C71.0918 117.333 70.9793 117.026 70.7972 117.121C70.6102 117.465 70.4955 117.849 70.4627 118.239C70.4508 118.382 70.4529 118.536 70.5365 118.652C70.6201 118.767 70.8134 118.81 70.904 118.699C70.9479 118.646 70.9571 118.573 70.9646 118.504C70.9996 118.182 71.0346 117.86 71.0696 117.537ZM40.3433 126.077C40.2004 126.36 40.3022 126.743 40.5669 126.917C40.7517 126.69 40.9483 126.416 40.8798 126.132C40.8113 125.847 40.304 125.76 40.2615 126.05M58.1499 119.664C58.3414 119.692 58.5845 119.664 58.6549 119.484C58.45 119.331 58.1736 119.28 57.9277 119.349C57.8706 119.423 57.8496 119.524 57.872 119.615C57.9518 119.669 58.0537 119.687 58.1472 119.666L58.1499 119.664Z" fill="#00160A"/>
<path fill-rule="evenodd" clip-rule="evenodd" d="M184.475 37.821C185.228 37.8406 186.081 37.9069 186.555 38.4922C186.945 38.9736 186.946 39.6517 186.927 40.271C186.2 64.649 185.333 89.0227 184.326 113.391C183.424 106.288 183.762 99.0933 184.101 91.9417C184.697 79.3938 185.293 66.8459 185.889 54.298C185.845 56.4328 185.103 59.2831 182.969 59.2202C171.16 58.8721 159.35 58.524 147.541 58.1758C146.625 58.1488 145.504 57.9849 145.18 57.128C158.153 57.4794 171.126 57.8308 184.1 58.1821C184.661 56.1479 184.81 54.0009 184.535 51.9087C171.52 51.653 158.506 51.3973 145.492 51.1415C145.222 50.4358 146.299 50.038 147.055 50.0542C159.364 50.3185 171.674 50.5828 183.984 50.8471C184.635 50.8611 184.882 50.0096 184.925 49.359C185.109 46.584 185.292 43.8091 185.476 41.0341C185.516 40.425 185.533 39.7437 185.127 39.2879C184.706 38.8161 183.998 38.7692 183.366 38.7559C170.728 38.4894 158.091 38.223 145.453 37.9566C144.616 54.5337 144.356 71.1399 144.672 87.7352C145.965 84.3808 148.679 81.6008 152.001 80.2264C149.8 78.1704 149.087 74.6819 150.304 71.9272C148.903 72.6493 147.72 70.4157 148.146 68.8984C148.272 68.4514 148.968 68.0207 149.152 67.5763C149.592 66.5122 149.385 65.8434 149.179 64.3812C148.973 62.919 150.975 62.5038 152.171 63.2158C153.367 63.9279 154.55 65.1735 155.884 64.7781C157.503 64.2984 159.22 65.5818 159.83 67.1557C160.44 68.7297 160.236 70.4865 160.023 72.1612C159.716 74.5787 158.933 77.5413 156.545 78.0287C156.367 79.7524 158.902 80.0003 160.611 80.2891C162.941 80.683 164.857 82.459 165.978 84.5393C167.099 86.6196 167.539 88.9906 167.893 91.3271C169.024 98.8131 169.386 106.633 166.943 113.799C172.507 113.711 178.07 113.623 183.634 113.534C180.399 114.661 176.901 114.705 173.475 114.713C164.106 114.735 154.737 114.578 145.375 114.243C144.812 114.223 144.199 114.183 143.779 113.807C143.329 113.405 143.239 112.746 143.187 112.144C142.854 108.273 142.893 104.369 143.305 100.505C143.652 104.799 143.998 109.093 144.345 113.387C148.891 113.555 153.437 113.723 157.984 113.892C159.711 113.956 161.9 113.718 162.438 112.076C162.435 112.617 162.432 113.159 162.428 113.701C163.619 113.96 164.86 113.986 166.061 113.777C168.148 107.644 168.571 100.954 167.272 94.6073C165.868 94.4571 164.677 95.7881 164.38 97.1684C164.084 98.5487 164.416 99.974 164.579 101.376C164.992 104.926 164.286 108.597 162.584 111.739C164.038 107.58 164.358 103.03 163.501 98.7083C162.878 95.564 161.64 92.4855 161.767 89.2825C162.787 91.1948 163.275 93.3873 163.163 95.5517C164.548 94.9758 165.934 94.3999 167.319 93.824C167.094 90.7048 166.838 87.4781 165.351 84.727C163.864 81.9759 160.785 79.8245 157.717 80.4304C157.445 82.3478 156.141 84.3624 154.209 84.4861C152.276 84.6098 150.787 81.6438 152.436 80.6274C148.537 81.7301 146.244 85.6489 144.362 89.2372C143.609 90.6714 142.839 92.1895 142.892 93.8081C142.945 95.4268 144.149 97.129 145.769 97.1215C147.645 95.1122 148.735 92.3867 148.761 89.6377C149.248 96.7465 149.227 103.89 148.7 110.996C148.646 111.717 147.872 112.671 147.47 112.071C148.457 106.661 148.574 101.094 147.815 95.6476C146.068 98.0567 143.666 99.9863 140.937 101.174C139.684 101.719 139.362 103.373 139.567 104.724C139.772 106.075 140.326 107.406 140.149 108.761C139.971 110.116 139.238 111.363 137.336 110.879C135.435 110.394 132.686 111.176 132.686 111.176C132.686 111.176 133.043 117.418 133.662 119.276C136.049 121.129 139.631 117.62 142.388 118.857C144.102 119.626 146.056 119.584 147.934 119.527C149.107 119.492 150.756 118.609 150.073 117.656C147.088 117.969 144.07 117.965 141.086 117.643C139.803 117.505 138.864 116.263 138.639 114.992C138.415 113.722 138.742 112.425 139.067 111.176C139.266 112.198 139.194 113.982 139.304 114.713C139.414 115.444 139.735 116.654 140.538 116.732C146.837 117.348 148.95 116.948 153.359 115.919C154.134 115.739 155.089 115.511 155.884 115.516C156.837 115.521 157.727 116.035 158.651 116.264C161.86 117.059 165.223 116.811 168.519 116.558C174.88 116.069 181.241 115.58 187.602 115.091C190.191 110.732 185.28 104.117 188.769 100.439C189.063 78.3243 189.358 56.2097 189.653 34.0951C173.104 33.5724 156.54 33.5734 139.991 34.0982C138.861 53.2943 138.646 72.5444 139.349 91.761C138.3 89.0175 138.226 86.012 138.18 83.0751C137.932 67.2011 138.119 51.3203 138.741 35.4565C138.77 34.7297 138.845 33.908 139.414 33.4555C139.842 33.1159 140.43 33.0867 140.976 33.0728C157.343 32.6538 173.722 32.6611 190.089 33.0945C190.089 48.8251 190.923 62.2856 189.838 76.838C189.235 84.9121 189.653 92.3935 189.653 100.505C191.229 100.694 193.313 99.9469 193.815 98.4412C194.317 96.9356 194.124 95.2993 193.964 93.7201C191.811 72.5108 196.7 51.1078 195.109 29.849C174.714 28.9149 154.282 28.798 133.879 29.4986C133.456 29.5131 132.994 29.544 132.686 29.834C132.342 30.1588 132.316 30.688 132.313 31.1612C132.199 48.7018 132.085 66.2425 131.972 83.7831C130.903 68.2888 130.605 52.7321 131.397 37.2212C131.484 35.5278 131.579 33.7923 131.077 32.1725C130.576 30.5527 129.34 29.0461 127.673 28.7323C127.345 25.8266 127.389 22.8791 127.804 19.9845C151.82 20.1094 175.837 20.2343 199.853 20.3591C199.94 22.1865 200.027 24.0139 200.113 25.8413C200.195 27.5715 199.51 30.0212 197.813 29.6766C197.123 29.5366 196.792 30.4882 196.756 31.191C196.458 36.9638 196.16 42.7367 195.862 48.5096C194.977 65.6663 194.091 82.8485 194.685 100.018C196.22 100.094 197.755 100.171 199.29 100.248C199.697 101.212 200.113 102.237 199.961 103.272C199.809 104.307 198.848 105.299 197.825 105.08C198.717 107.159 196.338 109.765 194.187 109.067C194.359 111.552 194.532 114.038 194.704 116.524C194.737 116.993 194.786 117.501 195.104 117.847C196.097 118.926 198.224 117.26 199.272 118.285C199.414 120.73 199.556 123.175 199.698 125.62C199.737 126.287 199.741 127.046 199.256 127.506C198.931 127.814 198.462 127.906 198.02 127.98C189.405 129.437 180.574 129.609 171.909 128.489C172.374 130.717 172.734 133.349 171.159 134.992C169.997 136.204 167.776 137.148 168.305 138.741C169.258 138.539 170.12 137.942 170.643 137.122C170.542 138.186 169.551 139.091 168.482 139.095C167.564 139.193 167.746 137.659 168.373 136.981C169.748 135.492 171.527 134.16 171.965 132.181C172.402 130.202 170.136 127.783 168.532 129.022C167.567 129.768 167.611 131.211 167.747 132.422C166.88 131.444 166.993 129.76 167.983 128.907C165.402 129.496 162.724 129.657 160.092 129.383C163.417 128.879 166.742 128.375 170.068 127.871C169.121 125.251 169.368 122.225 170.726 119.793C168.646 119.564 166.528 119.68 164.484 120.135C163.913 120.262 163.328 120.424 162.871 120.791C162.391 121.176 162.101 121.744 161.839 122.301C159.612 127.022 158.33 132.187 158.091 137.402C157.573 134.401 157.955 131.251 159.173 128.46C158.88 127.995 158.5 127.584 158.059 127.256C161.091 126.068 162.545 121.967 160.938 119.135C160.685 118.689 160.373 118.279 160.017 117.91C157.881 115.696 154.109 115.31 151.568 117.045C150.482 118.412 151.007 118.872 150.547 119.683C150.266 120.177 149.644 120.487 149.377 120.998C149.277 121.19 149.252 121.475 149.152 121.667C149.895 122.273 150.827 122.645 151.783 122.716C151.689 123.742 151.594 124.768 151.5 125.794C152.043 125.889 152.585 125.983 153.128 126.078C152.401 126.801 153.049 128.308 154.074 128.279C155.043 131.36 156.011 134.441 156.98 137.522C155.991 135.049 155.002 132.577 154.013 130.104C150.681 130.483 147.349 130.863 144.017 131.242C144.137 131.853 144.452 132.423 144.904 132.85C142.928 133.136 140.943 131.254 141.126 129.265C140.154 131.019 141.653 133.109 143.197 134.388C144.741 135.666 146.612 137.103 146.547 139.106C145.012 139.644 143.127 138.55 142.832 136.951C143.39 137.99 144.595 138.643 145.769 138.542C145.006 137.775 144.242 137.008 143.478 136.241C144.042 136.579 144.607 136.918 145.171 137.256C145.425 136.597 144.839 135.858 144.155 135.68C143.472 135.501 142.754 135.716 142.081 135.929C140.832 136.324 139.54 136.743 138.569 137.623C137.599 138.504 137.042 139.984 137.62 141.16C138.857 140.734 139.918 139.818 140.519 138.657C140.453 140.219 138.941 141.569 137.382 141.459C136.276 139.288 138.102 136.254 140.538 136.214C141.542 136.198 142.137 134.939 141.873 133.971C141.608 133.002 140.798 132.296 140.029 131.651C139.511 132.328 138.842 132.888 138.085 133.279C138.06 132.137 138.285 130.99 138.738 129.942C137.714 131.105 137.137 132.651 137.148 134.201C136.626 132.924 136.672 131.426 137.273 130.183C134.244 130.699 131.168 130.941 128.095 130.905C127.589 127.396 127.083 123.886 126.577 120.376C128.477 119.863 130.445 119.602 132.414 119.604C131.428 113.701 132.414 113.537 131.188 110.879C131.022 110.517 130.431 111.208 130.028 110.394C129.626 109.581 129.446 107.462 129.446 107.462C129.446 107.462 127.803 107.222 127.673 106.78C127.165 105.044 126.594 103.494 127.83 102.56C129.148 101.565 131.211 102.417 132.592 101.512C132.073 99.463 131.972 97.3093 132.298 95.2213C133.11 96.6006 132.821 98.354 133.267 99.8908C133.714 101.428 135.817 102.719 136.823 101.474C135.349 98.8461 133.373 95.0666 131.377 92.8099C130.101 91.3675 128.29 91.712 126.965 90.1193C125.64 88.5266 125.247 88.2107 124.779 86.8791C124.312 85.5475 124.949 83.7238 126.347 83.5293C127.714 83.3392 128.747 84.6914 129.446 85.8812C129.132 84.8312 129.972 83.5996 131.064 83.5093C132.416 87.7719 134.865 91.6814 138.111 94.7575C139.13 95.7228 141.185 96.3717 141.59 95.0281C140.868 93.8988 142.123 92.6043 142.821 91.4601C143.665 90.0771 143.702 88.3662 143.715 86.7459C143.838 70.6462 143.962 54.5465 144.085 38.4469C144.095 37.1799 145.808 36.813 147.075 36.846C159.542 37.171 172.009 37.496 184.475 37.821ZM128.603 28.1524C128.791 28.2967 129.047 28.3031 129.283 28.3033C134.144 28.3077 139.005 28.3122 143.865 28.3166C146.682 28.3191 149.499 28.3217 152.316 28.3242C157.711 28.3292 163.105 28.3341 168.5 28.339C178.162 28.3477 187.824 28.3565 197.486 28.3653C198.011 28.3658 198.634 28.3139 198.901 27.8609C199.037 27.6297 199.042 27.3468 199.042 27.0784C199.045 25.2713 199.049 23.4643 199.052 21.6573C199.052 21.4693 199.045 21.2613 198.916 21.1246C198.779 20.9791 198.555 20.9681 198.355 20.9669C175.439 20.8315 152.524 20.6961 129.609 20.5607C129.325 20.559 129.007 20.5707 128.809 20.7742C128.631 20.9577 128.609 21.2381 128.597 21.4939C128.51 23.3923 128.422 25.2907 128.335 27.1892C128.319 27.5362 128.328 27.9406 128.603 28.1524ZM170.056 125.118C169.913 124.977 169.648 125.126 169.611 125.323C169.574 125.52 169.681 125.713 169.786 125.884C170.155 126.483 170.571 127.087 171.181 127.437C171.773 127.776 172.478 127.836 173.159 127.888C175.499 128.068 177.84 128.248 180.181 128.428C181.686 128.544 183.193 128.659 184.703 128.633C189.391 128.552 193.98 127.107 198.669 127.084C199.054 127.082 199.16 126.557 199.142 126.172C199.05 124.171 198.957 122.17 198.865 120.169C198.84 119.627 198.625 118.905 198.085 118.949C189.149 119.675 180.17 119.863 171.212 119.512C171.264 121.326 170.737 123.152 169.728 124.66C170.695 124.702 171.667 124.628 172.616 124.438C171.898 124.202 171.141 124.085 170.386 124.093C171.661 123.416 173.4 123.795 174.278 124.941C174.359 125.046 174.436 125.169 174.425 125.302C174.402 125.56 174.086 125.664 173.831 125.706C172.524 125.922 170.999 126.048 170.056 125.118ZM137.533 126.401C137.32 126.555 137.02 126.71 136.817 126.543C136.718 126.462 136.682 126.33 136.651 126.207C136.49 125.57 136.327 124.917 136.388 124.263C136.449 123.608 136.776 122.939 137.365 122.648C137.963 122.351 138.668 121.834 138.485 121.192C138.311 120.582 137.501 120.48 136.866 120.498C133.898 120.583 130.93 120.668 127.962 120.754C127.84 120.757 127.706 120.766 127.622 120.854C127.522 120.959 127.54 121.126 127.565 121.269C128.038 123.971 128.51 126.673 128.983 129.374C129.02 129.585 129.075 129.823 129.26 129.929C129.383 129.999 129.533 129.993 129.674 129.984C131.6 129.865 133.521 129.681 135.435 129.431C137.008 129.226 138.863 129.073 139.922 130.254C139.915 129.212 140.699 128.362 141.243 127.473C141.786 126.583 142.025 125.243 141.175 124.638C140.295 124.013 139.53 123.226 138.929 122.329C138.56 122.791 139.006 123.438 139.096 124.023C139.249 125.012 138.343 125.813 137.533 126.401ZM125.207 85.1684C125.238 85.4594 125.422 85.708 125.6 85.9405C126.439 87.0389 127.278 88.1373 128.117 89.2357C127.162 88.4661 126.207 87.6965 125.252 86.9269C126.249 89.0844 128.119 90.8229 130.343 91.6598C130.713 91.7991 131.098 91.9168 131.428 92.1351C132.004 92.5169 132.347 93.1562 132.682 93.7611C133.829 95.8282 135.165 97.7906 136.667 99.6158C137.337 100.43 138.231 101.292 139.274 101.138C141.494 100.81 143.558 99.5381 144.849 97.7032C144.254 97.0774 143.659 96.4516 143.063 95.8258C142.857 95.6087 142.636 95.3825 142.347 95.3015C142.059 95.2206 141.688 95.3513 141.619 95.6428C141.412 96.513 140.293 96.8902 139.438 96.6268C138.583 96.3634 137.945 95.6657 137.351 94.9971C134.5 91.7901 131.529 88.3385 130.842 84.1029C130.343 83.8563 130.014 84.6581 130.028 85.215C130.044 85.8349 130.061 86.4548 130.077 87.0747C128.507 86.4329 127.967 83.9284 126.271 83.9358C127.055 85.2847 127.928 86.5816 128.883 87.8153C127.476 87.1335 126.316 85.9523 125.661 84.5322C125.369 84.5421 125.176 84.8775 125.207 85.1684ZM189.108 113.133C188.9 114.197 188.324 115.243 187.368 115.755C186.684 116.12 185.884 116.181 185.111 116.234C179.992 116.586 174.872 116.938 169.753 117.29C170.324 118.057 171.046 118.902 172.002 118.881C179.173 118.725 186.344 118.568 193.515 118.412C193.768 118.407 194.06 118.381 194.203 118.173C194.313 118.015 194.295 117.804 194.272 117.612C193.957 114.925 193.642 112.237 193.327 109.55C193.306 109.377 193.278 109.188 193.148 109.072C192.995 108.935 192.764 108.953 192.56 108.978C191.669 109.09 190.777 109.202 189.886 109.313C189.524 109.359 189.054 109.529 189.092 109.892C189.204 110.971 189.315 112.068 189.108 113.133ZM145.269 130.348C147.751 130.16 150.221 129.834 152.666 129.371C153.099 129.289 153.63 129.097 153.659 128.658C153.152 128.698 152.634 128.401 152.411 127.943C152.188 127.485 152.275 126.895 152.621 126.52C152.229 126.532 151.819 126.539 151.47 126.363C151.12 126.187 150.863 125.761 151.012 125.399C151.253 124.808 151.278 124.132 151.08 123.525C150.961 123.161 150.679 122.773 150.297 122.805C149.642 122.86 148.987 122.361 148.866 121.716C148.744 121.07 149.172 120.367 149.802 120.179C149.767 120.015 149.545 119.988 149.377 120C146.116 120.22 142.856 120.44 139.595 120.66C139.482 120.668 139.347 120.689 139.3 120.792C139.271 120.856 139.286 120.931 139.304 120.998C139.612 122.173 140.389 123.218 141.425 123.852C140.904 123.318 141.373 122.31 142.098 122.132C142.823 121.955 143.571 122.376 144.08 122.922C144.588 123.469 144.941 124.143 145.438 124.7C145.583 124.862 145.746 125.025 145.797 125.237C145.847 125.449 145.719 125.719 145.501 125.723C145.405 125.725 145.316 125.677 145.232 125.629C144.194 125.04 143.155 124.452 142.117 123.863C142.337 123.447 142.985 123.586 143.343 123.892C143.7 124.198 144.014 124.632 144.483 124.677C144.282 124.333 144.081 123.989 143.88 123.645C143.579 123.131 143.103 122.537 142.527 122.689C142.061 122.813 141.857 123.405 141.984 123.87C142.111 124.335 142.468 124.696 142.811 125.035C143.349 125.564 144.097 126.136 144.78 125.816C144.983 125.72 145.18 126.04 145.067 126.234C144.953 126.429 144.696 126.481 144.471 126.476C143.827 126.464 143.196 126.137 142.816 125.618C142.683 126.359 142.551 127.101 142.418 127.842C143.289 128.139 143.967 128.938 144.119 129.845C144.195 130.301 144.809 130.383 145.269 130.348ZM156.141 65.2361C155.637 65.2595 155.169 65.5041 154.669 65.5664C154.051 65.6434 153.403 65.421 152.962 64.9808C152.408 64.4274 150.734 62.9989 150.14 63.5383C149.546 64.0776 149.423 66.1908 150.107 67.3321C150.237 67.5487 150.108 67.8389 149.912 67.9982C149.717 68.1575 149.467 68.2328 149.249 68.3602C148.636 68.7184 148.329 69.5273 148.55 70.202C148.771 70.8767 149.497 71.3471 150.203 71.2729C149.691 70.6467 149.755 69.6273 150.342 69.0702C150.929 68.5131 151.95 68.502 152.549 69.0463C152.935 69.3971 153.547 69.3224 154.025 69.1122C154.502 68.902 154.937 68.578 155.448 68.4758C156.118 68.3419 156.854 68.6479 157.231 69.2168C157.609 69.7857 157.605 70.583 157.221 71.1479C156.862 71.6783 157.166 72.5221 157.782 72.7002C158.398 72.8783 159.106 72.3274 159.084 71.6868C159.049 70.627 159.796 69.6454 159.707 68.5887C159.632 67.6994 158.987 66.9731 158.339 66.3594C157.724 65.7771 156.986 65.1967 156.141 65.2361ZM151.071 69.4672C150.441 69.6122 150.225 70.5859 150.734 70.9838C151.173 70.5979 151.878 70.5574 152.358 70.8905C152.113 71.3072 151.443 71.0784 151.021 71.3141C150.663 71.5137 150.581 71.9835 150.547 72.3914C150.455 73.4957 150.434 74.6058 150.482 75.7128C150.515 76.4505 150.582 77.2027 150.878 77.8791C151.174 78.5556 151.737 79.153 152.458 79.3152C153.089 79.4572 153.759 79.2487 154.297 78.8889C154.834 78.529 155.261 78.0292 155.671 77.529C156.192 76.8942 156.705 76.2368 157.016 75.477C157.328 74.7173 157.418 73.8324 157.086 73.0814C156.813 72.4619 156.691 71.7762 156.733 71.1003C156.767 70.563 156.885 69.9581 156.548 69.5377C156.139 69.026 155.328 69.1326 154.73 69.4007C154.132 69.6688 153.527 70.0597 152.878 69.9633C152.251 69.87 151.689 69.3247 151.071 69.4672ZM127.864 105.48C127.864 105.745 127.934 106.029 128.045 106.236C128.335 106.78 130.97 106.248 131.377 106.207C133.712 105.974 136.047 105.74 138.382 105.507C138.74 105.471 139.172 105.379 139.284 105.037C139.34 104.868 139.295 104.683 139.25 104.511C139.144 104.107 139.038 103.703 138.933 103.299C138.869 103.056 138.799 102.8 138.622 102.622C138.326 102.323 137.847 102.34 137.428 102.377C134.592 102.627 131.756 102.878 128.921 103.129C128.545 103.162 128.104 103.238 127.939 103.577C127.867 103.725 127.866 103.897 127.865 104.062C127.865 104.535 127.865 105.007 127.864 105.48ZM188.305 103.897C188.411 104.044 188.621 104.059 188.802 104.059C192.023 104.075 195.243 104.091 198.464 104.106C198.676 104.107 198.903 104.104 199.079 103.986C199.372 103.789 199.398 103.377 199.395 103.025C199.391 102.601 199.385 102.166 199.231 101.771C199.076 101.376 198.739 101.025 198.317 100.98C195.287 100.657 192.252 101.745 189.213 101.529C188.767 101.497 188.376 101.876 188.24 102.301C188.104 102.727 188.163 103.187 188.223 103.629C188.236 103.723 188.25 103.82 188.305 103.897ZM188.173 105.594C188.087 106.501 188.151 107.421 188.359 108.308C191.031 108.217 193.701 108.066 196.367 107.857C196.807 107.822 197.386 107.637 197.354 107.196C197.32 106.732 197.287 106.269 197.253 105.805C197.242 105.654 197.227 105.492 197.133 105.372C197.005 105.208 196.773 105.176 196.565 105.158C193.971 104.931 191.36 104.885 188.759 105.022C188.614 105.029 188.456 105.042 188.345 105.137C188.218 105.245 188.189 105.427 188.173 105.594ZM139.148 106.977C139.102 106.624 138.619 106.57 138.265 106.609C135.736 106.894 133.207 107.178 130.678 107.462C130.57 107.474 130.457 107.488 130.37 107.552C130.197 107.679 130.2 107.933 130.223 108.146C130.295 108.803 130.437 109.518 130.952 109.932C131.646 110.491 132.656 110.25 133.528 110.065C135.151 109.721 136.837 109.674 138.477 109.929C138.836 109.985 139.173 109.689 139.292 109.346C139.41 109.003 139.365 108.628 139.318 108.269C139.261 107.838 139.205 107.407 139.148 106.977ZM155.892 82.8671C156.163 82.5095 156.411 82.1346 156.634 81.7453C156.804 81.4484 156.964 81.1031 156.865 80.7757C156.8 80.5625 156.637 80.3972 156.501 80.2201C156.081 79.6686 155.918 78.9281 156.069 78.2509C156.081 78.193 156.096 78.1316 156.076 78.0758C155.998 77.8572 155.679 78.0658 155.56 78.2649C155.045 79.1233 154.158 79.7489 153.176 79.9452C152.963 79.9879 153.019 80.32 152.907 80.4835C152.436 81.167 151.466 82.0724 152.358 83.131C153.029 83.9261 153.171 84.1012 153.359 84.1588C154.326 84.4556 155.282 83.6735 155.892 82.8671ZM162.919 119.631C163.182 119.584 163.446 119.536 163.71 119.489C164.223 119.396 164.755 119.296 165.18 118.995C165.742 118.597 166.093 117.869 166.762 117.706C166.924 117.667 167.149 117.5 167.011 117.405C166.978 117.382 166.934 117.382 166.894 117.382C165.097 117.405 163.302 117.484 161.51 117.621C161.733 118.208 161.993 118.78 162.287 119.334C162.345 119.444 162.411 119.56 162.522 119.616C162.642 119.677 162.786 119.655 162.919 119.631ZM168.185 117.734C167.354 117.855 166.645 118.401 166.075 119.017C165.937 119.166 166.081 119.46 166.284 119.441C166.504 119.094 166.978 119.034 167.388 119.01C168.33 118.955 169.272 118.899 170.215 118.843C169.968 118.041 169.016 117.613 168.185 117.734ZM157.518 75.4417C157.344 76.1311 156.96 76.7659 156.429 77.2391C156.463 77.4153 156.721 77.3981 156.889 77.335C157.492 77.1082 158.114 76.8596 158.554 76.3882C158.993 75.9168 159.192 75.156 158.836 74.6183C158.715 75.1552 157.652 74.9079 157.518 75.4417ZM141.794 129.41C141.589 129.829 141.581 130.43 141.984 130.665C142.329 130.865 142.824 130.632 142.937 130.249C143.051 129.867 142.812 129.431 142.448 129.268C142.223 129.167 141.903 129.188 141.794 129.41ZM140.019 119.441C139.958 119.538 139.942 119.7 140.05 119.736C140.793 119.657 141.542 119.639 142.288 119.683C142.372 119.502 142.26 119.279 142.092 119.172C141.925 119.064 141.718 119.043 141.52 119.024C140.974 118.973 140.311 118.977 140.019 119.441ZM173.158 125.298C173.283 125.259 173.368 125.122 173.35 124.993C172.482 124.812 171.575 124.825 170.713 125.029C171.443 125.452 172.353 125.552 173.158 125.298ZM137.328 125.384C137.536 124.578 137.682 123.755 137.764 122.926C136.955 123.411 136.735 124.651 137.328 125.384ZM157.885 74.6005C158.215 74.5737 158.506 74.2923 158.544 73.9635C158.583 73.6347 158.363 73.2942 158.048 73.1927C157.751 73.4894 157.587 73.9153 157.609 74.3349C157.613 74.4161 157.628 74.5052 157.691 74.5568C157.744 74.6 157.817 74.606 157.885 74.6005ZM143.167 131.328C142.899 131.05 142.414 131.022 142.115 131.266C142.241 131.551 142.464 131.792 142.739 131.94C142.865 132.007 143.019 132.055 143.149 131.996C143.386 131.887 143.348 131.515 143.167 131.328ZM143.392 129.595C143.418 129.187 143.198 128.772 142.845 128.564C142.493 128.356 142.023 128.365 141.678 128.586C142.316 128.787 142.907 129.135 143.392 129.595ZM138.5 124.042C138.448 123.916 138.342 123.785 138.207 123.803C137.929 124.245 137.931 124.847 138.212 125.287C138.552 124.986 138.673 124.462 138.5 124.042ZM138.826 131.777C138.76 131.89 138.82 132.056 138.942 132.101C139.122 132.01 139.241 131.809 139.233 131.607C139.088 131.546 138.899 131.638 138.858 131.79M184.825 51.1732C184.741 51.2352 184.657 51.2971 184.573 51.359C184.625 51.4546 184.678 51.5502 184.731 51.6458C184.885 51.567 184.947 51.3493 184.858 51.2012L184.825 51.1732Z" fill="#00160A"/>
<path d="M151.317 75.9041C151.317 76.2635 151.172 76.5548 150.992 76.5548C150.812 76.5548 150.667 76.2635 150.667 75.9041C150.667 75.5448 150.812 75.2534 150.992 75.2534C151.172 75.2534 151.317 75.5448 151.317 75.9041Z" fill="#FFB61D"/>
<path fill-rule="evenodd" clip-rule="evenodd" d="M157.796 112.037C158.351 105.489 158.816 98.9323 159.46 92.3923C159.621 90.7609 164.223 92.737 162.313 106.884C162.011 109.121 160.572 112.463 158.005 112.634L157.796 112.037Z" fill="#E7EAEE"/>
<path fill-rule="evenodd" clip-rule="evenodd" d="M44.978 89.6084C45.3908 98.4973 43.9609 92.866 47.6646 95.2465C48.295 95.6516 48.9842 96.4078 48.8644 97.1475C48.6292 98.6 47.2288 99.6272 46.731 101.012C44.267 107.866 55.4335 108.172 57.459 109.25C58.1361 109.61 57.8318 110.927 57.3839 111.55C55.7555 113.813 46.2794 107.667 45.0856 106.749C37.1743 100.661 38.1168 96.6778 44.3278 90.4244L44.978 89.6084Z" fill="#E7EAEE"/>
<path d="M53.0668 79.8081C53.0668 80.1675 52.9211 80.4588 52.7414 80.4588C52.5618 80.4588 52.4161 80.1675 52.4161 79.8081C52.4161 79.4488 52.5618 79.1574 52.7414 79.1574C52.9211 79.1574 53.0668 79.4488 53.0668 79.8081Z" fill="#FFB61D"/>
<defs>
<linearGradient id="paint0_linear_139_1314" x1="0.336424" y1="8.2482" x2="232.614" y2="51.3272" gradientUnits="userSpaceOnUse">
<stop stop-color="#FAB3B3"/>
<stop offset="1" stop-color="#F0C2A0"/>
</linearGradient>
<linearGradient id="paint1_linear_139_1314" x1="0.336424" y1="8.2482" x2="232.614" y2="51.3272" gradientUnits="userSpaceOnUse">
<stop stop-color="#FD8686"/>
<stop offset="1" stop-color="#FFD178"/>
</linearGradient>
</defs>
</svg>
