<svg width="200" height="200" viewBox="0 0 200 200" fill="none" xmlns="http://www.w3.org/2000/svg">
<path fill-rule="evenodd" clip-rule="evenodd" d="M18.3703 154.119C17.9625 152.243 17.5153 150.376 17.1248 148.496C16.9359 147.587 16.828 146.661 16.6996 145.74C16.46 144.023 16.2233 142.306 16.0046 140.586C15.9276 139.981 15.8725 139.37 15.8655 138.761C15.8094 133.826 15.6752 128.889 15.7614 123.956C15.8013 121.672 16.275 119.395 16.559 117.115C16.9325 114.117 17.7173 111.213 18.6227 108.34C19.9257 104.206 21.2451 100.076 22.5602 95.9457C23.2667 93.7266 24.0254 91.5226 24.6675 89.2851C24.9638 88.2526 25.0836 87.161 25.1981 86.0872C25.3069 85.0664 25.4233 84.0223 25.3255 83.0088C25.1423 81.1126 24.8273 79.2278 24.528 77.3445C24.2726 75.7369 23.9739 74.1358 23.6735 72.5358C23.207 70.0507 23.0692 67.5428 23.1193 65.021C23.1589 63.0318 23.0975 61.0321 23.2845 59.0563C23.5547 56.2003 23.9658 53.3387 25.0934 50.6733C25.9561 48.6339 26.9122 46.619 28.0115 44.699C29.0976 42.8022 30.3871 41.0183 31.6425 39.2235C32.4082 38.1287 33.2196 37.0538 34.1149 36.0645C35.4942 34.5403 36.9201 33.0524 38.404 31.6302C40.7213 29.4092 43.3173 27.5369 46.0762 25.9042C48.6798 24.3633 51.4354 23.142 54.3292 22.2478C56.31 21.6357 58.3078 21.0772 60.279 20.4366C61.6893 19.9782 63.0411 19.3229 64.4682 18.9372C66.239 18.4585 68.049 18.0908 69.8635 17.8163C71.7258 17.5345 73.6124 17.4066 75.491 17.2422C76.8689 17.1215 78.25 17.0215 79.6318 16.9648C81.4721 16.8892 83.3143 16.8441 85.1561 16.8234C87.2419 16.8 89.329 16.7829 91.414 16.8295C93.005 16.865 94.5954 16.9812 96.1828 17.1028C98.3172 17.2662 100.45 17.4513 102.581 17.6615C104.158 17.8171 105.737 17.9832 107.303 18.2246C109.435 18.5533 111.561 18.9286 113.679 19.3375C116.667 19.9142 119.667 20.4499 122.622 21.1695C125.743 21.9296 128.865 22.7494 131.796 24.1101C134.432 25.3336 137.072 26.558 139.635 27.9225C141.971 29.1656 144.202 30.6039 146.487 31.9427C147.363 32.4566 148.276 32.9104 149.146 33.4353C149.729 33.7872 150.317 34.1611 150.815 34.6198C153.08 36.7035 155.324 38.81 157.554 40.9307C158.629 41.9535 159.658 43.0257 160.708 44.0755C161.886 45.254 163.121 46.3825 164.229 47.6238C165.636 49.1995 166.927 50.8787 168.293 52.4916C170.13 54.6607 171.363 57.1907 172.695 59.6693C173.6 61.352 174.163 63.1583 174.824 64.9297C175.276 66.1403 175.793 67.3596 175.999 68.621C176.313 70.5466 177.453 72.076 178.138 73.8147C178.839 75.5963 179.398 77.4344 179.993 79.2564C180.503 80.8151 181.031 82.3712 181.446 83.956C181.827 85.415 182.071 86.91 182.369 88.3905C182.599 89.5296 182.838 90.6672 183.034 91.8121C183.172 92.6242 183.243 93.4478 183.348 94.2657C183.532 95.7008 183.731 97.1341 183.902 98.5707C184.016 99.5298 184.119 100.492 184.178 101.456C184.253 102.667 184.28 103.882 184.324 105.096C184.373 106.449 184.508 107.806 184.446 109.154C184.301 112.331 179.071 125.103 176.96 128.237C175.735 130.054 174.555 131.901 173.299 133.696C171.653 136.047 169.97 138.373 168.27 140.685C166.234 143.453 164.188 146.215 162.096 148.941C161.107 150.229 160.024 151.447 158.942 152.659C158.038 153.673 157.131 154.696 156.124 155.604C154.159 157.377 152.134 159.082 150.116 160.796C147.456 163.054 144.539 164.963 141.524 166.682C139.063 168.084 136.459 169.264 133.836 170.344C129.882 171.973 125.864 173.448 121.859 174.952C118.798 176.102 115.737 177.256 112.638 178.295C110.017 179.173 107.362 179.967 104.685 180.653C102.419 181.234 100.105 181.641 97.8008 182.06C96.187 182.354 94.5571 182.571 92.9272 182.76C91.3387 182.945 89.7417 183.058 88.1471 183.185C87.3073 183.252 86.4652 183.306 85.6232 183.324C82.8283 183.382 80.0331 183.443 77.2377 183.459C75.8617 183.466 74.4818 183.42 73.1096 183.318C71.1831 183.174 69.2537 183.018 67.3412 182.754C65.1596 182.452 62.997 182.015 60.8229 181.657C59.0339 181.362 57.232 181.138 55.4502 180.806C52.3913 180.236 49.3291 179.67 46.2958 178.981C43.868 178.43 41.4507 177.793 39.0829 177.026C35.3158 175.807 31.7861 174.061 28.599 171.691C27.5305 170.896 26.4737 170.046 25.5748 169.07C23.4331 166.747 21.7109 164.125 20.466 161.136C19.5133 158.827 18.8858 156.491 18.3703 154.119Z" fill="#64FCD9"/>
<path fill-rule="evenodd" clip-rule="evenodd" d="M18.3703 154.119C17.9625 152.243 17.5153 150.376 17.1248 148.496C16.9359 147.587 16.828 146.661 16.6996 145.74C16.46 144.023 16.2233 142.306 16.0046 140.586C15.9276 139.981 15.8725 139.37 15.8655 138.761C15.8094 133.826 15.6752 128.889 15.7614 123.956C15.8013 121.672 16.275 119.395 16.559 117.115C16.9325 114.117 17.7173 111.213 18.6227 108.34C19.9257 104.206 21.2451 100.076 22.5602 95.9457C23.2667 93.7266 24.0254 91.5226 24.6675 89.2851C24.9638 88.2526 25.0836 87.161 25.1981 86.0872C25.3069 85.0664 25.4233 84.0223 25.3255 83.0088C25.1423 81.1126 24.8273 79.2278 24.528 77.3445C24.2726 75.7369 23.9739 74.1358 23.6735 72.5358C23.207 70.0507 23.0692 67.5428 23.1193 65.021C23.1589 63.0318 23.0975 61.0321 23.2845 59.0563C23.5547 56.2003 23.9658 53.3387 25.0934 50.6733C25.9561 48.6339 26.9122 46.619 28.0115 44.699C29.0976 42.8022 30.3871 41.0183 31.6425 39.2235C32.4082 38.1287 33.2196 37.0538 34.1149 36.0645C35.4942 34.5403 36.9201 33.0524 38.404 31.6302C40.7213 29.4092 43.3173 27.5369 46.0762 25.9042C48.6798 24.3633 51.4354 23.142 54.3292 22.2478C56.31 21.6357 58.3078 21.0772 60.279 20.4366C61.6893 19.9782 63.0411 19.3229 64.4682 18.9372C66.239 18.4585 68.049 18.0908 69.8635 17.8163C71.7258 17.5345 73.6124 17.4066 75.491 17.2422C76.8689 17.1215 78.25 17.0215 79.6318 16.9648C81.4721 16.8892 83.3143 16.8441 85.1561 16.8234C87.2419 16.8 89.329 16.7829 91.414 16.8295C93.005 16.865 94.5954 16.9812 96.1828 17.1028C98.3172 17.2662 100.45 17.4513 102.581 17.6615C104.158 17.8171 105.737 17.9832 107.303 18.2246C109.435 18.5533 111.561 18.9286 113.679 19.3375C116.667 19.9142 119.667 20.4499 122.622 21.1695C125.743 21.9296 128.865 22.7494 131.796 24.1101C134.432 25.3336 137.072 26.558 139.635 27.9225C141.971 29.1656 144.202 30.6039 146.487 31.9427C147.363 32.4566 148.276 32.9104 149.146 33.4353C149.729 33.7872 150.317 34.1611 150.815 34.6198C153.08 36.7035 155.324 38.81 157.554 40.9307C158.629 41.9535 159.658 43.0257 160.708 44.0755C161.886 45.254 163.121 46.3825 164.229 47.6238C165.636 49.1995 166.927 50.8787 168.293 52.4916C170.13 54.6607 171.363 57.1907 172.695 59.6693C173.6 61.352 174.163 63.1583 174.824 64.9297C175.276 66.1403 175.793 67.3596 175.999 68.621C176.313 70.5466 177.453 72.076 178.138 73.8147C178.839 75.5963 179.398 77.4344 179.993 79.2564C180.503 80.8151 181.031 82.3712 181.446 83.956C181.827 85.415 182.071 86.91 182.369 88.3905C182.599 89.5296 182.838 90.6672 183.034 91.8121C183.172 92.6242 183.243 93.4478 183.348 94.2657C183.532 95.7008 183.731 97.1341 183.902 98.5707C184.016 99.5298 184.119 100.492 184.178 101.456C184.253 102.667 184.28 103.882 184.324 105.096C184.373 106.449 184.508 107.806 184.446 109.154C184.301 112.331 179.071 125.103 176.96 128.237C175.735 130.054 174.555 131.901 173.299 133.696C171.653 136.047 169.97 138.373 168.27 140.685C166.234 143.453 164.188 146.215 162.096 148.941C161.107 150.229 160.024 151.447 158.942 152.659C158.038 153.673 157.131 154.696 156.124 155.604C154.159 157.377 152.134 159.082 150.116 160.796C147.456 163.054 144.539 164.963 141.524 166.682C139.063 168.084 136.459 169.264 133.836 170.344C129.882 171.973 125.864 173.448 121.859 174.952C118.798 176.102 115.737 177.256 112.638 178.295C110.017 179.173 107.362 179.967 104.685 180.653C102.419 181.234 100.105 181.641 97.8008 182.06C96.187 182.354 94.5571 182.571 92.9272 182.76C91.3387 182.945 89.7417 183.058 88.1471 183.185C87.3073 183.252 86.4652 183.306 85.6232 183.324C82.8283 183.382 80.0331 183.443 77.2377 183.459C75.8617 183.466 74.4818 183.42 73.1096 183.318C71.1831 183.174 69.2537 183.018 67.3412 182.754C65.1596 182.452 62.997 182.015 60.8229 181.657C59.0339 181.362 57.232 181.138 55.4502 180.806C52.3913 180.236 49.3291 179.67 46.2958 178.981C43.868 178.43 41.4507 177.793 39.0829 177.026C35.3158 175.807 31.7861 174.061 28.599 171.691C27.5305 170.896 26.4737 170.046 25.5748 169.07C23.4331 166.747 21.7109 164.125 20.466 161.136C19.5133 158.827 18.8858 156.491 18.3703 154.119Z" fill="url(#paint0_linear_114_2096)"/>
<path d="M108.537 159.182C108.257 160.648 108.146 162.107 107.656 163.424C107.021 165.134 105.55 166.168 103.851 166.693C101.986 167.271 100.064 167.676 98.1544 168.1C97.5201 168.241 96.8477 168.214 96.192 168.253C93.8311 168.396 91.4696 168.528 89.1091 168.675C87.8211 168.756 86.5355 168.876 85.2471 168.947C84.0117 169.016 82.7733 169.095 81.5377 169.076C81.2634 169.072 79.5493 169.32 77.151 169.488C76.6853 169.521 77.4102 172.037 76.5728 172.301C74.7071 172.889 70.1376 172.724 69.3404 171.476C68.5432 170.228 68.8258 169.703 67.942 169.342C63.6199 167.578 59.1678 167.166 57.8631 163.424C56.9947 160.934 58.6476 155.034 58.167 150.505C56.9345 138.89 54.4834 125.931 54.4033 125.864C54.4115 125.856 51.7932 126.079 51.5982 125.12C49.1789 113.212 48.0756 97.5183 54.4033 93.561C58.2136 91.1781 65.4717 88.7306 73.5183 86.7314C74.6878 86.4409 75.3781 84.7226 76.5728 84.4526C76.84 84.3922 77.6575 82.8397 78.3588 81.2801C79.0649 79.7097 79.6587 78.132 81.1082 78.063C84.088 77.9212 89.2282 74.1046 92.7153 75.2956C95.9084 76.3861 97.5274 82.5249 98.7606 81.7815C100.003 81.0323 101.103 82.3331 102.806 82.3331C114.99 82.3331 124.167 105.48 125.443 111.176C123.31 114.253 116.994 114.253 111.026 116.076C110.039 114.858 108.055 111.205 107.414 109.15C106.754 107.035 106.526 111.831 106.48 113.53C106.42 115.729 106.618 117.934 106.726 120.136C106.798 121.587 106.916 123.036 106.999 124.486C107.145 127.033 107.3 129.579 107.414 132.128C107.494 133.921 107.459 135.721 107.575 137.511C107.693 139.346 107.937 141.172 108.116 143.003C108.221 144.079 108.316 145.157 108.393 146.236C108.458 147.146 108.55 148.06 108.524 148.969C108.474 150.73 108.29 152.489 108.282 154.25C108.278 155.17 108.586 156.087 108.65 157.012C108.698 157.706 108.58 158.412 108.537 159.182Z" fill="white"/>
<path d="M128.02 49.3503C127.234 48.6061 126.754 47.6764 126.136 46.8489C126.118 46.8245 126.1 46.7989 126.087 46.7716C125.604 45.7227 125.132 44.6741 124.902 43.5275C124.768 42.8579 124.774 42.2054 124.875 41.5413C124.926 41.211 124.947 40.8755 125.013 40.5487C125.214 39.5454 125.703 38.6717 126.277 37.8407C126.45 37.5909 126.649 37.3582 126.817 37.1052C127.446 36.1576 128.335 35.5476 129.37 35.1225C130.043 34.8459 130.734 34.6126 131.393 34.2999C131.474 34.2614 131.564 34.2269 131.652 34.2186C132.742 34.1155 133.831 34.0083 134.923 33.9213C135.987 33.8363 137.053 33.8598 138.118 33.9285C138.695 33.9655 139.275 33.9816 139.85 34.0399C141.096 34.1666 142.302 34.4481 143.459 34.9542C144.268 35.3077 145.083 35.6383 145.858 36.066C146.749 36.5574 147.505 37.21 148.22 37.9189C148.547 38.2434 148.798 38.6237 149.022 39.0235C149.156 39.2622 149.274 39.5121 149.431 39.735C150.342 41.0312 150.538 42.4745 150.317 44.0005C150.265 44.3604 150.15 44.7114 150.18 45.0819C150 45.8212 149.825 46.5634 149.385 47.2036C149.039 47.7057 148.664 48.1842 148.198 48.5843C148.037 48.723 147.874 48.8626 147.728 49.0171C147.412 49.3523 147.026 49.5925 146.66 49.8645C145.871 50.4504 144.994 50.864 144.125 51.2991C144.017 51.3531 143.903 51.3962 143.787 51.4313C143.322 51.5729 142.855 51.7096 142.389 51.8472C141.864 52.002 141.341 52.1663 140.812 52.307C139.983 52.5276 139.124 52.5307 138.28 52.6428C138.161 52.6586 138.035 52.6499 137.916 52.6295C137.016 52.4767 136.103 52.4302 135.198 52.3173C135.048 52.2987 134.9 52.2596 134.752 52.2286C133.739 52.0178 132.719 51.8305 131.736 51.4953C131.49 51.4114 131.268 51.4304 131.038 51.5651C130.777 51.7188 130.498 51.8446 130.225 51.9776C129.646 52.2585 129.143 52.6537 128.621 53.0222C128.473 53.1267 128.318 53.2218 128.16 53.3114C128.039 53.3806 127.83 53.2767 127.798 53.1322C127.759 52.955 127.72 52.7795 127.772 52.5931C128.065 51.5536 128.055 50.4903 128.02 49.3503Z" fill="white"/>
<path fill-rule="evenodd" clip-rule="evenodd" d="M76.9689 83.5887C76.9689 83.5887 78.2953 81.7726 78.7532 80.8259C79.2111 79.8793 79.6417 78.0632 79.6417 78.0632C79.6417 78.0632 89.1065 91.4643 87.6089 91.6388C84.6151 91.9875 76.9689 83.5887 76.9689 83.5887Z" fill="#E7EAEE"/>
<path d="M117.783 126.487C116.285 124.105 113.101 118.552 111.634 116.206C111.601 116.152 118.429 109.873 124.506 111.462C125.11 111.62 126.27 113.973 126.839 114.253C127.899 114.775 127.709 112.224 129.736 108.629C132.928 102.968 138.808 94.5148 141.116 89.4682C142.054 87.4172 141.391 85.8186 141.292 85.3707C140.925 83.714 140.066 82.3624 138.825 81.2273C138.02 80.491 137.988 78.8478 138.904 78.3951C139.581 78.0608 140.344 77.9549 141.116 78.3405C141.997 78.7809 142.875 79.1974 143.481 80.0182C143.563 80.129 143.707 80.1942 143.822 80.2805C143.877 80.1406 143.938 80.0028 143.987 79.8606C144.476 78.4349 144.925 76.9943 145.461 75.5864C145.934 74.3422 146.458 73.112 147.053 71.9225C147.249 71.5305 147.744 71.0256 148.092 71.0336C148.603 71.0452 148.937 71.5976 149.014 72.1768C149.054 72.4839 149.098 72.7911 149.156 73.0953C149.181 73.2289 149.246 73.3551 149.293 73.4846C149.386 73.3736 149.472 73.2561 149.572 73.1529C149.876 72.8418 150.146 72.4746 150.503 72.2434C150.993 71.9258 151.551 72.2789 151.512 72.8891C151.457 73.7322 151.392 74.5893 151.188 75.4048C150.822 76.8711 150.349 78.3107 149.927 79.7631C149.902 79.8495 149.926 79.9504 149.927 80.0446C150.022 79.9935 150.164 79.9666 150.205 79.8876C150.471 79.3714 150.756 78.8589 150.957 78.3165C151.283 77.4401 151.776 76.6895 152.49 76.0968C152.656 75.9589 152.925 75.9453 153.147 75.8745C153.211 76.0806 153.372 76.3126 153.324 76.4885C152.981 77.7608 152.684 79.0564 152.205 80.2795C151.001 83.361 149.714 86.4106 148.449 89.4682C147.718 91.2353 146.868 92.9603 146.248 94.7646C145.615 96.6043 145.247 98.533 144.672 100.395C144.064 102.369 143.362 104.315 142.677 106.265C141.636 109.229 140.699 112.238 139.482 115.128C138.53 117.387 137.292 119.537 136.046 121.656C135.113 123.244 134.044 124.77 132.882 126.198C132.2 127.037 131.23 127.649 130.366 128.333C128.982 129.427 127.411 130.126 125.691 130.52C123.71 130.974 121.953 130.621 120.475 129.176C119.58 128.301 118.703 127.407 117.783 126.487Z" fill="white"/>
<path fill-rule="evenodd" clip-rule="evenodd" d="M71.2034 67.7481C71.0126 68.1338 71.025 68.4714 71.2736 68.799C71.385 68.9459 71.5054 69.0858 71.6259 69.2258C71.7552 69.3761 71.8846 69.5264 72.0027 69.6852C72.181 69.9249 72.3653 70.1616 72.5496 70.3983C73.0334 71.0199 73.5177 71.642 73.8976 72.322C74.4343 73.2828 75.0559 73.9914 76.1839 74.1949C76.6418 74.2775 76.8146 74.6434 76.8694 75.1252C76.9457 75.7956 77.0706 76.4752 77.2932 77.1093C77.4525 77.563 77.8737 77.8637 78.4102 77.8056C78.6616 77.7784 78.9122 77.736 79.1625 77.6935C79.5478 77.6282 79.9326 77.5629 80.3192 77.5537C80.6897 77.5448 81.1703 77.6416 81.4194 77.8805C82.085 78.519 82.6978 79.2132 83.31 79.9067C83.4365 80.0501 83.563 80.1934 83.69 80.3362C83.7368 80.3889 83.7829 80.4421 83.8285 80.4949L83.8286 80.4949C84.2757 81.0114 84.6912 81.4914 85.5796 81.1832C86.6344 80.8172 87.7438 80.6533 88.8882 80.7278C89.9377 80.7961 90.3476 80.4406 90.6706 79.4129C90.7037 79.3075 90.7318 79.1998 90.7598 79.0921C90.8139 78.8842 90.868 78.6766 90.9586 78.486C90.9929 78.4138 91.0268 78.3407 91.0608 78.2673L91.061 78.267C91.2475 77.8645 91.4382 77.453 91.726 77.1369C92.2459 76.5658 92.9198 76.6535 93.6106 76.8985C94.3881 77.1743 94.7913 77.0052 95.1268 76.2983C95.2687 75.9992 95.3156 76.003 95.5752 76.1944C95.7853 76.3494 96.1162 76.4209 96.384 76.4011C97.0464 76.3521 97.7099 76.2594 98.3593 76.1206C98.5939 76.0705 98.9049 75.8848 98.9851 75.683C99.083 75.4367 99.1816 75.1905 99.2802 74.9442L99.2807 74.943C99.8377 73.552 100.396 72.159 100.842 70.732C101.568 68.4108 102.108 66.0344 102.107 63.5826C102.106 61.9401 102.058 60.2975 102.01 58.6551L102.01 58.6545C101.997 58.2384 101.985 57.8224 101.974 57.4064C101.968 57.2087 101.964 57.0109 101.959 56.813V56.8129C101.937 55.9121 101.916 55.0103 101.825 54.1161C101.662 52.5024 101.452 50.8934 101.242 49.2846C101.206 49.0142 101.171 48.7438 101.136 48.4733C101.033 47.6808 100.913 46.8904 100.793 46.1001L100.793 46.1L100.793 46.0995C100.754 45.8383 100.714 45.5771 100.675 45.3158L100.591 44.7491L100.591 44.749C100.403 43.4927 100.216 42.2363 100.018 40.9816C100.01 40.9325 100.003 40.8818 99.9962 40.8304C99.96 40.5692 99.9212 40.2895 99.7739 40.1129C99.6424 39.9554 99.5113 39.7975 99.3801 39.6394L99.3795 39.6387C98.5387 38.6259 97.6955 37.6104 96.7576 36.6939C96.0218 35.975 95.1349 35.3976 94.264 34.8306L94.1508 34.7569C91.771 33.2063 89.1054 32.5083 86.3035 32.3241C85.5358 32.2737 84.7641 32.2853 83.9922 32.2969C83.5301 32.3039 83.0679 32.3109 82.6064 32.3045C82.185 32.2987 81.9569 32.4329 81.6834 32.8005C81.3206 33.2881 80.7784 33.6806 80.2432 33.9942C78.9063 34.7775 77.7298 35.6976 76.8262 36.9909C75.6393 38.6898 74.5519 40.4378 73.8412 42.3865C73.293 43.8895 72.9138 45.4332 72.783 47.0501C72.7407 47.5721 72.6355 48.0873 72.5302 48.6028C72.3265 49.6001 72.1225 50.5987 72.3742 51.6503C72.4827 52.1035 72.5458 52.5683 72.6089 53.0328C72.6828 53.5773 72.7567 54.1214 72.9035 54.6457L72.9847 54.9348C73.4531 56.6001 73.9126 58.2343 73.8212 60.0264C73.7229 61.9527 73.0394 63.6357 72.2476 65.4591C72.1465 65.6829 72.0469 65.9074 71.9473 66.132C71.7067 66.6743 71.4662 67.2167 71.2034 67.7481ZM102.535 55.0644C102.535 55.081 102.534 55.0989 102.532 55.1166C102.528 55.1484 102.525 55.1797 102.538 55.2015C102.579 55.2691 102.628 55.3318 102.676 55.3945C102.696 55.4192 102.715 55.444 102.734 55.469C102.754 55.4505 102.776 55.4327 102.798 55.415C102.844 55.3766 102.891 55.3382 102.929 55.2924C103.036 55.1623 103.144 55.0327 103.252 54.9032C103.56 54.5345 103.867 54.1659 104.155 53.7828C104.792 52.9381 105.414 52.0824 106.023 51.218C106.382 50.7084 106.025 50.4972 105.599 50.467C104.712 50.4041 103.961 50.779 103.199 51.217C102.654 51.53 102.253 51.7922 102.395 52.6184L102.417 52.9973L102.417 52.999C102.456 53.6874 102.496 54.3759 102.535 55.0644ZM72.1604 55.4565C72.1412 55.4878 72.122 55.5191 72.108 55.5494C71.7287 55.3686 71.377 55.1526 71.0288 54.9388C70.7239 54.7516 70.4218 54.5661 70.1062 54.4072C69.393 54.0482 69.142 53.3961 68.9136 52.7481C68.6507 52.0022 69.2357 51.2898 70.0289 51.2952C70.0642 51.2955 70.0996 51.2956 70.1351 51.2957C70.4178 51.2967 70.7048 51.2977 70.9767 51.3573C71.5107 51.4744 71.5637 51.8883 71.6148 52.2871C71.6306 52.4109 71.6463 52.5332 71.6761 52.6447C71.8668 53.3585 72.0061 54.0862 72.1453 54.8133C72.1741 54.9637 72.2029 55.1141 72.2321 55.2644C72.2432 55.3216 72.2018 55.3891 72.1604 55.4565Z" fill="white"/>
<circle cx="97.5999" cy="63.7334" r="1.86667" fill="#FFB61D"/>
<ellipse cx="78.1334" cy="62.1333" rx="1.86666" ry="1.86667" fill="#FFB61D"/>
<path fill-rule="evenodd" clip-rule="evenodd" d="M86.958 39.6412C88.0216 39.8697 89.1752 40.147 90.2501 39.5633C90.6142 39.3656 90.9564 39.1222 91.2881 38.8725C91.4904 38.7202 91.6725 38.5311 91.8316 38.3329C93.0942 36.7589 94.0259 36.9939 95.7645 38.0216C97.9889 39.3364 100.565 43.1662 93.6683 43.1662C90.1948 43.1662 76.3209 41.2748 78.258 39.3946C79.0497 38.6261 80.0869 38.1118 81.0059 37.4725C81.352 37.2317 81.7043 36.9907 82.0097 36.703C82.4522 36.2863 82.7207 36.5063 82.9969 36.8894C83.36 37.393 83.7391 37.885 84.1462 38.4169C85.1036 38.8626 85.9918 39.4337 86.958 39.6412Z" fill="#E7EAEE"/>
<path fill-rule="evenodd" clip-rule="evenodd" d="M124.127 111.645L124.127 111.645C123.767 111.862 123.407 112.078 123.02 112.225C122.083 112.58 121.134 112.902 120.175 113.226L120.174 113.226L120.174 113.226L120.174 113.226L120.173 113.226L120.173 113.227L120.173 113.227L120.172 113.227L120.172 113.227L120.171 113.227L120.171 113.227L120.171 113.227L120.17 113.227L120.17 113.228L120.17 113.228C119.564 113.433 118.954 113.639 118.341 113.856C118.156 113.928 117.994 113.975 117.836 114.021L117.836 114.021C117.799 114.032 117.762 114.043 117.725 114.054C117.179 114.216 116.633 114.381 116.087 114.545L116.08 114.547L116.08 114.547L116.08 114.547L116.079 114.547L116.079 114.547L116.079 114.547L116.078 114.548L116.078 114.548L116.078 114.548L116.077 114.548L116.077 114.548L116.077 114.548L116.076 114.548L116.076 114.548L116.076 114.548C114.701 114.962 113.327 115.375 111.945 115.763C111.385 115.92 110.922 115.744 110.618 115.139C109.862 113.634 109.053 112.156 108.239 110.682C108.182 110.579 108.043 110.523 107.903 110.467L107.903 110.467C107.838 110.44 107.774 110.414 107.717 110.383C107.696 110.455 107.662 110.533 107.629 110.61C107.556 110.778 107.483 110.945 107.537 111.047C108.444 112.791 109.376 114.524 110.351 116.231C110.472 116.442 110.908 116.636 111.149 116.588C112.429 116.336 113.699 116.027 114.961 115.693C115.448 115.564 115.929 115.413 116.41 115.262L116.411 115.262L116.411 115.262L116.411 115.262L116.411 115.262L116.411 115.262L116.412 115.262L116.412 115.262L116.412 115.262L116.412 115.262L116.413 115.261L116.413 115.261L116.413 115.261L116.413 115.261L116.413 115.261L116.414 115.261C117.109 115.043 117.803 114.826 118.513 114.674C120.947 114.153 123.277 113.4 125.367 112.008C126.117 111.508 126.323 110.743 125.958 109.951C125.831 109.674 125.701 109.398 125.571 109.123L125.571 109.122C125.123 108.171 124.675 107.219 124.324 106.233C123.249 103.209 122.039 100.244 120.614 97.3716C119.712 95.5539 118.754 93.7599 117.737 92.0047C116.377 89.6596 114.953 87.3165 112.767 85.6478C111.248 84.4889 109.622 83.3974 107.893 82.6053C105.367 81.4475 102.591 81.1939 99.8299 81.0014C99.2656 80.9621 98.6726 80.7504 98.1742 80.4724C97.1749 79.9149 96.7689 78.9272 96.3601 77.9327C96.3153 77.8239 96.2705 77.7149 96.2249 77.6065C96.0232 77.1267 96.3479 77.037 96.5522 76.9947C97.0783 76.8858 97.6341 76.7995 98.163 76.853C98.987 76.9362 99.4404 76.5526 99.7428 75.8693C100.485 74.1933 101.134 72.4889 101.625 70.7151C102.304 68.2595 102.884 65.8039 102.822 63.2304C102.795 62.1149 102.801 60.9987 102.807 59.8824C102.811 59.3004 102.814 58.7183 102.812 58.1363C102.812 57.9775 102.793 57.8114 102.774 57.6459C102.735 57.3129 102.696 56.9821 102.812 56.7168C103.097 56.0644 103.565 55.4789 104.019 54.9162C104.379 54.4712 104.754 54.0389 105.129 53.6067L105.129 53.6067C105.584 53.0829 106.039 52.5593 106.465 52.013C106.808 51.573 107.063 51.0126 106.718 50.4283C106.381 49.8577 105.84 49.6261 105.211 49.7679C105.103 49.7922 104.995 49.8152 104.886 49.8382C104.096 50.0053 103.297 50.1743 102.739 50.8748C102.471 51.2114 102.316 51.2125 102.247 50.7244C102.195 50.3619 102.122 50.0025 102.048 49.6431L102.048 49.6429C101.972 49.2707 101.896 48.8984 101.845 48.5228C101.781 48.0601 101.738 47.5945 101.695 47.1289L101.695 47.1287C101.654 46.6781 101.612 46.2274 101.552 45.7794C101.467 45.1504 101.371 44.5227 101.276 43.8951L101.276 43.8949C101.131 42.945 100.986 41.9951 100.879 41.0409C100.816 40.4742 100.658 40.0203 100.278 39.6073C100.081 39.393 99.8805 39.1807 99.6801 38.9684L99.68 38.9684C99.0658 38.3176 98.4507 37.666 97.9208 36.952C96.4586 34.9818 94.3822 33.9486 92.2273 33.0115C90.8388 32.4076 89.4031 31.9757 87.8763 31.8885C87.2044 31.8502 86.533 31.8023 85.8617 31.7545L85.8616 31.7544C85.1761 31.7056 84.4905 31.6567 83.8044 31.6179C83.2399 31.5861 82.6659 31.5633 82.1085 31.6335C81.8314 31.6685 81.5541 31.89 81.3255 32.0843C81.0997 32.2761 80.8849 32.4813 80.6701 32.6864C80.3934 32.9506 80.1169 33.2147 79.8174 33.4498C79.5017 33.6977 79.1672 33.9253 78.8332 34.1526C78.2849 34.5258 77.7377 34.8982 77.2762 35.3584C76.7457 35.8874 76.3219 36.5248 75.8989 37.1611L75.8989 37.1611C75.7432 37.3953 75.5876 37.6294 75.4269 37.8578C74.2336 39.5532 73.3168 41.3855 72.812 43.4026C72.4996 44.651 72.235 45.912 71.9724 47.1722L71.9308 47.3716C71.7382 48.2942 71.5451 49.219 71.4238 50.152L71.4184 50.1933C71.3225 50.9323 71.3152 50.9884 70.6063 50.7262C69.8741 50.4555 69.2432 50.6384 68.7278 51.135C68.2213 51.6231 68.1656 52.2814 68.3416 52.945C68.8573 54.8886 70.3427 55.7023 72.1185 56.1871C72.2735 56.2294 72.4447 56.3806 72.5185 56.5267C73.2842 58.0411 73.3173 59.6518 72.8327 61.2137C72.3865 62.652 71.8579 64.0648 71.3293 65.4775L71.3292 65.4777C71.096 66.101 70.8628 66.7243 70.6367 67.3498C70.4038 67.994 70.2761 68.5846 70.8096 69.2085C71.9571 70.5506 73.053 71.9395 73.8807 73.5137C74.209 74.1379 74.7127 74.5873 75.3884 74.7229C76.0321 74.8521 76.1195 75.1704 76.1953 75.7744C76.2952 76.5703 76.5601 77.4069 76.9902 78.0737C77.1267 78.2854 77.4948 78.3427 77.8717 78.4013C78.0712 78.4323 78.2731 78.4637 78.4444 78.5186C78.5843 78.5634 78.8063 78.7499 78.7891 78.8257C78.7586 78.9606 78.7288 79.0959 78.699 79.2314L78.699 79.2317C78.5562 79.8817 78.4127 80.5351 78.1714 81.1487C77.6431 82.4922 76.5194 83.3328 75.4288 84.1485C75.2797 84.26 75.1313 84.3711 74.985 84.4828C73.0809 85.9387 70.8158 86.7381 68.54 87.4279C67.471 87.752 66.3865 88.0247 65.3019 88.2974L65.3018 88.2974L65.3017 88.2975L65.3015 88.2975L65.3014 88.2975L65.3013 88.2976L65.3012 88.2976L65.301 88.2976L65.3009 88.2977L65.3008 88.2977L65.3007 88.2977L65.3005 88.2978L65.3004 88.2978L65.3003 88.2979L65.3001 88.2979C64.5962 88.4749 63.8922 88.6519 63.1922 88.843C62.7561 88.9621 62.3252 89.1029 61.8944 89.2437L61.8944 89.2437L61.8943 89.2438C61.2555 89.4526 60.6171 89.6612 59.9633 89.7984C57.4514 90.3254 55.2356 91.4093 53.2895 93.0694C51.9814 94.1852 51.2792 95.6857 50.5731 97.1946L50.4701 97.4146C49.5158 99.4484 48.6791 101.617 48.5612 103.818C48.5282 104.435 48.5753 105.056 48.6225 105.678C48.6463 105.992 48.6702 106.306 48.6837 106.62C48.714 107.326 48.74 108.032 48.766 108.738C48.8225 110.274 48.879 111.81 48.9803 113.342C49.0367 114.197 49.1887 115.046 49.3405 115.894C49.3841 116.138 49.4277 116.381 49.4689 116.624C49.5813 117.287 49.7067 117.947 49.8321 118.607C49.9157 119.048 49.9994 119.488 50.0792 119.929C50.1312 120.217 50.1871 120.504 50.2429 120.792L50.2429 120.792C50.3932 121.565 50.5435 122.339 50.6198 123.119C50.69 123.836 50.6696 124.563 50.6492 125.289C50.6432 125.503 50.6371 125.718 50.6335 125.932C50.627 126.31 50.693 126.616 51.1468 126.513C51.5952 126.412 52.0359 126.276 52.4763 126.14C52.6147 126.097 52.7531 126.054 52.8917 126.012C53.3592 125.872 53.6456 126.037 53.7059 126.517C53.7655 126.993 53.818 127.469 53.8706 127.945C53.9503 128.668 54.03 129.391 54.1345 130.111C54.3886 131.86 54.6681 133.605 54.9695 135.347C55.5228 138.543 56.3203 141.683 57.3682 144.751C58.2998 147.478 59.3075 150.18 60.3248 152.877C60.9108 154.43 61.5375 155.968 62.1642 157.506L62.1643 157.506C62.3244 157.899 62.4846 158.292 62.644 158.685C63.2901 160.278 63.9501 161.866 64.6111 163.453C64.7645 163.821 64.9161 164.19 65.0676 164.559C65.5121 165.642 65.9566 166.724 66.4473 167.786C66.8734 168.707 67.3575 169.602 67.8414 170.496C67.9842 170.76 68.127 171.024 68.2682 171.288C68.3121 171.37 68.4003 171.429 68.4884 171.487C68.5294 171.514 68.5703 171.542 68.6068 171.571C68.6244 171.523 68.6449 171.475 68.6653 171.427C68.7133 171.314 68.7612 171.201 68.7722 171.085C68.7808 170.994 68.7292 170.895 68.6799 170.8L68.6652 170.771C68.6573 170.756 68.6496 170.741 68.6424 170.726C68.4778 170.381 68.3076 170.038 68.1373 169.695L68.1372 169.695C67.7802 168.977 67.4233 168.259 67.1186 167.519C66.0629 164.955 65.0501 162.374 64.0411 159.791C63.5877 158.631 63.1444 157.467 62.7011 156.302C62.2648 155.156 61.8284 154.01 61.3823 152.867C61.105 152.157 60.8117 151.452 60.5186 150.747C59.9938 149.486 59.4691 148.225 59.0358 146.933C58.1157 144.19 57.2926 141.41 56.5472 138.614C56.1272 137.038 55.8385 135.426 55.5504 133.817C55.4986 133.528 55.4468 133.239 55.3942 132.95C55.2489 132.15 55.1564 131.341 55.0638 130.533L55.0638 130.533C55.0323 130.257 55.0007 129.981 54.967 129.705C54.8207 128.508 54.6828 127.309 54.5488 126.11C54.5041 125.711 54.681 125.521 55.0888 125.392C56.6498 124.898 58.2033 124.381 59.7568 123.863L59.7569 123.863L59.7571 123.863L59.7572 123.863L59.7573 123.863L59.7574 123.863L59.7575 123.863L59.7576 123.863L59.7577 123.863L59.7579 123.863L59.758 123.863L59.7581 123.862L59.7584 123.862L59.7587 123.862L59.759 123.862C60.3104 123.678 60.8618 123.495 61.4135 123.312C61.8239 123.176 62.2609 123.046 62.7102 122.912C64.3736 122.416 66.2045 121.87 67.4704 120.805C67.5438 120.743 67.7357 120.708 67.7817 120.753C67.8644 120.834 67.9228 120.989 67.9141 121.107C67.8704 121.698 67.8174 122.289 67.7643 122.88L67.7643 122.88C67.6597 124.045 67.5551 125.21 67.5223 126.378C67.4807 127.858 67.5518 129.343 67.6227 130.826L67.6227 130.826L67.6227 130.826L67.6228 130.827L67.6228 130.828L67.6228 130.828C67.6321 131.023 67.6415 131.218 67.6505 131.413C67.6943 132.354 67.7645 133.302 67.9332 134.227C68.3626 136.579 69.2535 138.781 70.2996 140.919C70.4517 141.23 70.6325 141.529 70.8131 141.828C71.0832 142.275 71.3526 142.721 71.524 143.203C71.7861 143.94 72.0631 144.672 72.3402 145.404C73.101 147.414 73.8619 149.425 74.3137 151.54C74.4558 152.206 74.6218 152.866 74.7877 153.526L74.7877 153.526C74.9718 154.259 75.1559 154.991 75.3074 155.731C75.5412 156.871 75.7232 158.022 75.9051 159.173L75.9052 159.173C75.9471 159.438 75.989 159.703 76.0315 159.968C76.0834 160.292 76.1413 160.615 76.1992 160.938L76.1992 160.938L76.1993 160.938L76.1993 160.938L76.1993 160.938L76.1993 160.939L76.1994 160.939L76.1994 160.939L76.1994 160.939L76.1994 160.939L76.1994 160.939L76.1995 160.939L76.1995 160.94L76.1995 160.94L76.1995 160.94C76.357 161.819 76.5147 162.699 76.5526 163.583C76.6282 165.343 76.6522 167.105 76.6762 168.867C76.689 169.808 76.7018 170.749 76.7224 171.689C76.7255 171.829 76.7851 171.968 76.8447 172.107C76.8724 172.172 76.9001 172.236 76.9221 172.301C76.9589 172.236 77.0047 172.171 77.0505 172.106L77.0507 172.106C77.1499 171.966 77.2491 171.825 77.2575 171.68C77.3036 170.887 77.3307 170.092 77.3577 169.298L77.3577 169.298L77.3577 169.298L77.3577 169.297L77.3577 169.297L77.3577 169.297L77.3577 169.297L77.3578 169.297L77.3578 169.297L77.3578 169.297L77.3578 169.296L77.3578 169.296L77.3578 169.296L77.3578 169.296L77.3578 169.296C77.3752 168.784 77.3926 168.272 77.4152 167.761C77.4259 167.517 77.4513 167.273 77.4767 167.029C77.5148 166.664 77.5528 166.299 77.5413 165.935C77.5292 165.553 77.5184 165.172 77.5075 164.79L77.5075 164.79L77.5075 164.79C77.4579 163.045 77.4082 161.298 77.2442 159.563C77.1343 158.399 76.8586 157.248 76.5842 156.102L76.584 156.101C76.5314 155.881 76.4789 155.662 76.4275 155.443C76.3044 154.916 76.1842 154.389 76.064 153.862C75.6378 151.992 75.2113 150.121 74.6512 148.291C73.7313 145.287 72.4826 142.403 71.0482 139.596C70.3961 138.32 69.8496 136.958 69.4834 135.575C68.7644 132.858 68.7021 130.051 68.6402 127.259L68.6343 126.996C68.6055 125.711 68.6584 124.424 68.7112 123.138L68.7112 123.137C68.7292 122.698 68.7473 122.259 68.762 121.821C68.7814 121.244 68.8257 120.669 68.87 120.093C68.8797 119.967 68.8894 119.841 68.8988 119.715C68.9417 119.142 68.994 118.569 69.0464 117.996L69.0464 117.996L69.0464 117.996L69.0464 117.996L69.0464 117.996L69.0464 117.996L69.0464 117.996L69.0464 117.996L69.0464 117.996L69.0464 117.996L69.0464 117.995L69.0464 117.995L69.0465 117.995L69.0465 117.995L69.0465 117.995L69.0465 117.995C69.1609 116.742 69.2754 115.49 69.291 114.236C69.3036 113.227 69.2381 112.218 69.1726 111.208L69.1726 111.208C69.1183 110.372 69.0641 109.535 69.0541 108.699C69.0401 107.518 68.6994 106.427 68.3584 105.335C68.2503 104.989 68.1421 104.643 68.0444 104.293C68.0068 104.159 67.8679 104.053 67.729 103.947C67.6647 103.898 67.6004 103.849 67.5462 103.797C67.525 103.873 67.4945 103.951 67.464 104.028C67.3973 104.198 67.3307 104.367 67.3611 104.517C67.4221 104.817 67.5131 105.113 67.604 105.409C67.7311 105.822 67.8579 106.234 67.9017 106.656C68.098 108.547 68.284 110.445 68.3144 112.343C68.3271 113.138 68.2651 113.934 68.2031 114.73L68.2031 114.73C68.134 115.618 68.0648 116.505 68.0996 117.39C68.1493 118.651 67.5058 119.321 66.6442 119.961C65.5108 120.803 63.8919 121.29 62.4386 121.727L62.4385 121.727L62.4383 121.727L62.4382 121.727L62.4379 121.727L62.4375 121.727L62.437 121.727L62.4364 121.727C62.0521 121.843 61.6794 121.955 61.3304 122.069C59.1581 122.78 56.9987 123.53 54.8393 124.28C53.9477 124.59 53.0562 124.9 52.1637 125.207L52.1486 125.212C51.8503 125.315 51.6041 125.4 51.6046 124.89C51.6051 124.269 51.5407 123.647 51.4766 123.028L51.4732 122.995C51.4367 122.642 51.401 122.29 51.3653 121.937L51.3652 121.936C51.2271 120.574 51.089 119.211 50.9093 117.853C50.7995 117.024 50.6662 116.198 50.5329 115.372C50.3736 114.384 50.2144 113.397 50.0953 112.405C49.9278 111.01 49.8285 109.6 49.8171 108.196C49.8057 106.773 49.8494 105.351 49.8932 103.928C49.9104 103.369 49.9276 102.811 49.9415 102.252C49.9786 100.754 50.7143 99.3794 51.4318 98.0388L51.4318 98.0387C51.7002 97.5372 51.9661 97.0405 52.1919 96.5438C53.337 94.0245 55.4933 92.6354 57.9206 91.6541C59.0871 91.1825 60.3041 90.834 61.5203 90.4858L61.5209 90.4856C61.9675 90.3578 62.414 90.2299 62.8579 90.096C63.8525 89.7959 64.8497 89.5036 65.8469 89.2114L65.8476 89.2112C67.8153 88.6344 69.7829 88.0577 71.731 87.4211C73.4686 86.8532 75.1231 86.0398 76.4916 84.7807C76.8664 84.4358 77.0509 84.497 77.3815 84.813C78.4599 85.8438 79.5641 86.8479 80.6679 87.8519L80.6684 87.8523L80.6687 87.8526L80.669 87.8528L80.6693 87.8531L80.6696 87.8534L80.6701 87.8538L80.6702 87.8539L80.6703 87.854L80.6709 87.8545L80.8611 88.0275C82.7449 89.741 84.8416 91.142 87.1729 92.1637C87.5183 92.3151 88.084 92.294 88.405 92.1073C89.1287 91.6863 89.8056 91.1828 90.4811 90.6803L90.4812 90.6802L90.4813 90.6802L90.4814 90.6801L90.4814 90.6801L90.4815 90.6801L90.4815 90.68L90.6408 90.5616C90.7269 90.4976 90.8131 90.4338 90.8993 90.3703C91.1797 90.1638 91.4606 89.9578 91.7414 89.7518C92.909 88.8957 94.0768 88.0393 95.2123 87.1423C96.4186 86.1895 97.2817 84.9341 98.1417 83.683L98.142 83.6827L98.1423 83.6823L98.1425 83.6819L98.1428 83.6815L98.1431 83.6812L98.1433 83.6808L98.1436 83.6804L98.1438 83.68L98.1441 83.6796C98.2809 83.4807 98.4176 83.2818 98.5556 83.0844C98.6101 83.0063 98.4178 82.6043 98.2945 82.5794C97.8111 82.4815 97.5892 82.7964 97.3565 83.1267L97.3564 83.1269C97.3121 83.1896 97.2675 83.253 97.2207 83.3141C97.0276 83.5659 96.8392 83.8246 96.6504 84.0836C96.0656 84.8863 95.4776 85.6933 94.7386 86.3164C93.5592 87.3107 92.3205 88.2341 91.0814 89.1577L91.0813 89.1577C90.2003 89.8144 89.3191 90.4712 88.459 91.1538C87.9237 91.5786 87.5296 91.5474 87.0123 91.2554C86.8989 91.1914 86.7854 91.1277 86.6721 91.064C85.4652 90.3862 84.2683 89.7139 83.2242 88.7544C81.8822 87.5212 80.4738 86.36 79.0658 85.1992L79.0657 85.1991L79.0648 85.1983L79.0639 85.1976L79.063 85.1969L79.0627 85.1966L79.0625 85.1964L79.0622 85.1962L79.062 85.196L79.0617 85.1958L79.0614 85.1956L79.0612 85.1953L79.0609 85.1951L79.0607 85.1949L79.0604 85.1947C78.6595 84.8642 78.2587 84.5338 77.8595 84.2017C77.4877 83.8924 77.5545 83.7012 77.8742 83.4087C78.9458 82.4285 79.5206 81.216 79.6765 79.7529C79.686 79.6636 79.6892 79.5654 79.6925 79.4634V79.4634C79.7074 79.0022 79.7249 78.4631 80.342 78.3192C80.935 78.1809 81.3773 78.5686 81.7313 78.9982C81.9586 79.2741 82.1757 79.5587 82.3926 79.8433L82.3927 79.8434C82.6626 80.1974 82.9324 80.5513 83.2221 80.8884L83.2765 80.9518C83.8301 81.5977 84.4399 82.3091 85.4024 81.9763C86.7481 81.511 88.1064 81.4243 89.505 81.4078C89.9026 81.4031 90.4547 81.1058 90.6585 80.7729C90.9955 80.2225 91.2445 79.618 91.4934 79.0138L91.4934 79.0137L91.4934 79.0137L91.4935 79.0136L91.4935 79.0136L91.4935 79.0135L91.4935 79.0135L91.4935 79.0134L91.4936 79.0134L91.4936 79.0133L91.4936 79.0133L91.4936 79.0133L91.4937 79.0132L91.4937 79.0132L91.4937 79.0131L91.4937 79.0131C91.5899 78.7796 91.686 78.5461 91.7872 78.3158C92.1442 77.5038 92.5154 77.2004 93.4092 77.5259C93.7975 77.6673 94.3115 77.7798 94.6629 77.6401C95.3588 77.3634 95.4904 77.6988 95.6856 78.1965L95.7097 78.2579C96.1655 79.4122 96.6291 80.5698 97.7289 81.3226C98.4539 81.8189 99.2747 81.9563 100.096 82.0937L100.097 82.0939L100.098 82.094L100.099 82.0942C100.174 82.1068 100.25 82.1194 100.325 82.1324C101.038 82.2544 101.752 82.3639 102.467 82.4733L102.468 82.4734L102.468 82.4734L102.468 82.4735L102.469 82.4736L102.469 82.4736L102.47 82.4737L102.47 82.4738L102.471 82.4738L102.471 82.4739L102.471 82.474L102.472 82.474L102.472 82.4741L102.473 82.4742L102.473 82.4743C103.504 82.6321 104.535 82.7899 105.558 82.9852C108.224 83.4941 110.509 84.8636 112.468 86.6356C113.835 87.8733 114.94 89.4319 116.018 90.9518L116.049 90.9956C116.831 92.0994 117.468 93.3121 118.1 94.5175C118.173 94.6565 118.246 94.7954 118.319 94.934C118.515 95.3065 118.713 95.6785 118.911 96.0506L118.912 96.0527C119.817 97.756 120.724 99.4613 121.492 101.226C122.381 103.267 123.191 105.343 124.001 107.419L124.002 107.42L124.002 107.42C124.395 108.428 124.788 109.436 125.191 110.44C125.325 110.776 125.369 110.989 124.96 111.181C124.674 111.316 124.4 111.481 124.127 111.645ZM71.9472 66.1319L71.9473 66.1318L71.9473 66.1318L71.9473 66.1317L71.9474 66.1316L71.9474 66.1315L71.9474 66.1314L71.9475 66.1314L71.9475 66.1313L71.9475 66.1312L71.9476 66.1311L71.9476 66.131L71.9476 66.131L71.9477 66.1309L71.9477 66.1308C72.0471 65.9066 72.1466 65.6825 72.2476 65.4591C73.0394 63.6357 73.7229 61.9527 73.8212 60.0263C73.9126 58.2342 73.453 56.6001 72.9847 54.9347L72.9035 54.6456C72.7567 54.1214 72.6828 53.5775 72.6089 53.0331L72.6089 53.0331L72.6089 53.0331L72.6089 53.033L72.6089 53.033L72.6089 53.033L72.6089 53.0329L72.6089 53.0329L72.6089 53.0329L72.6089 53.0329L72.6089 53.0328L72.6089 53.0328L72.6088 53.0328L72.6088 53.0327L72.6088 53.0327L72.6088 53.0327C72.5458 52.5682 72.4827 52.1035 72.3742 51.6503C72.1225 50.5986 72.3265 49.6001 72.5302 48.6027C72.6355 48.0872 72.7407 47.5721 72.7829 47.05C72.9137 45.4332 73.293 43.8895 73.8411 42.3865C74.5519 40.4377 75.6393 38.6898 76.8262 36.9909C77.7298 35.6975 78.9062 34.7774 80.2431 33.9941C80.7784 33.6805 81.3206 33.2881 81.6834 32.8004C81.9568 32.4329 82.185 32.2987 82.6063 32.3045C83.0678 32.3108 83.5301 32.3039 83.9922 32.2969C84.7641 32.2852 85.5357 32.2736 86.3035 32.3241C89.1054 32.5083 91.7709 33.2063 94.1508 34.7568L94.264 34.8306C95.1349 35.3975 96.0217 35.9749 96.7576 36.6939C97.6954 37.6103 98.5386 38.6259 99.3794 39.6386C99.5108 39.7969 99.6422 39.9551 99.7738 40.1129C99.9212 40.2894 99.9599 40.5692 99.9961 40.8303C100.003 40.8818 100.01 40.9325 100.018 40.9816C100.216 42.2364 100.403 43.493 100.591 44.7495L100.675 45.3157C100.714 45.5768 100.754 45.8379 100.793 46.099L100.793 46.0997L100.793 46.1005C100.913 46.8907 101.033 47.6809 101.136 48.4733C101.171 48.7425 101.206 49.0118 101.241 49.281L101.242 49.2846C101.452 50.8933 101.662 52.5024 101.825 54.116C101.916 55.0102 101.937 55.9121 101.959 56.8129V56.813C101.964 57.0109 101.968 57.2087 101.974 57.4064C101.985 57.8198 101.997 58.2333 102.009 58.6468L102.009 58.6475L102.009 58.6481L102.009 58.6487L102.009 58.6494L102.009 58.65L102.009 58.6506L102.009 58.6513L102.009 58.6519L102.009 58.6525L102.009 58.6532L102.009 58.6538L102.01 58.6544L102.01 58.6551C102.058 60.2974 102.106 61.94 102.107 63.5825C102.108 66.0343 101.568 68.4108 100.842 70.7319C100.396 72.1589 99.8377 73.5518 99.2808 74.9428L99.2807 74.9428C99.1819 75.1896 99.0832 75.4362 98.985 75.683C98.9048 75.8847 98.5939 76.0704 98.3593 76.1205C97.7098 76.2593 97.0464 76.352 96.3839 76.4011C96.1161 76.4209 95.7852 76.3493 95.5752 76.1944C95.3156 76.003 95.2687 75.9991 95.1267 76.2983C94.7913 77.0051 94.388 77.1742 93.6106 76.8985C92.9198 76.6535 92.2459 76.5658 91.726 77.1369C91.4382 77.453 91.2475 77.8645 91.0609 78.2669C91.0269 78.3404 90.9929 78.4137 90.9586 78.486C90.868 78.6765 90.8139 78.8842 90.7598 79.0921L90.7597 79.0922L90.7597 79.0922L90.7597 79.0923L90.7597 79.0924L90.7597 79.0925L90.7596 79.0926L90.7596 79.0927L90.7596 79.0928L90.7596 79.0929L90.7595 79.093L90.7595 79.0931C90.7316 79.2004 90.7036 79.3078 90.6705 79.4129C90.3476 80.4405 89.9377 80.7961 88.8882 80.7278C87.7438 80.6533 86.6344 80.8172 85.5795 81.1832C84.6911 81.4914 84.2757 81.0114 83.8285 80.4948C83.7828 80.4421 83.7368 80.3889 83.6899 80.3361C83.5635 80.1939 83.4375 80.0512 83.3114 79.9084L83.3099 79.9067L83.3098 79.9066L83.3098 79.9065L83.3098 79.9065L83.3097 79.9065L83.3097 79.9065L83.3097 79.9064L83.3097 79.9064L83.3097 79.9064L83.3096 79.9064L83.3096 79.9063L83.3096 79.9063L83.3096 79.9063L83.3095 79.9063L83.3095 79.9063C82.6975 79.2129 82.0848 78.5188 81.4194 77.8805C81.1703 77.6415 80.6897 77.5447 80.3192 77.5536C79.9325 77.5629 79.5477 77.6281 79.1624 77.6935L79.1624 77.6935L79.1623 77.6935L79.1623 77.6935L79.1622 77.6935L79.1621 77.6935L79.1621 77.6935L79.162 77.6935L79.162 77.6936L79.1619 77.6936L79.1619 77.6936L79.1618 77.6936L79.1617 77.6936L79.1617 77.6936L79.1616 77.6936C78.9116 77.736 78.6613 77.7784 78.4101 77.8056C77.8736 77.8636 77.4524 77.563 77.2931 77.1092C77.0705 76.4752 76.9457 75.7955 76.8694 75.1251C76.8146 74.6433 76.6417 74.2774 76.1839 74.1948C75.0559 73.9913 74.4343 73.2828 73.8976 72.322C73.5177 71.642 73.0334 71.0199 72.5495 70.3983C72.3652 70.1615 72.181 69.9249 72.0026 69.6851C71.8845 69.5264 71.7552 69.3761 71.6258 69.2258C71.5054 69.0858 71.3849 68.9458 71.2735 68.799C71.0249 68.4714 71.0126 68.1338 71.2033 67.748C71.4661 67.2167 71.7067 66.6743 71.9472 66.1319ZM102.417 52.997L102.395 52.6184C102.253 51.7921 102.654 51.53 103.199 51.217C103.961 50.7789 104.712 50.4041 105.599 50.467C106.025 50.4972 106.382 50.7083 106.023 51.218C105.414 52.0823 104.791 52.938 104.155 53.7828C103.867 54.1656 103.56 54.5341 103.253 54.9025L103.253 54.9026L103.253 54.9026L103.252 54.9026L103.252 54.9027L103.252 54.9027L103.252 54.9028L103.252 54.9028L103.252 54.9029L103.252 54.9029L103.252 54.903L103.252 54.903L103.252 54.9031L103.252 54.9031L103.252 54.9032C103.144 55.0327 103.036 55.1622 102.929 55.2924C102.891 55.3382 102.844 55.3765 102.798 55.4149C102.776 55.4327 102.754 55.4504 102.734 55.4689C102.715 55.4439 102.696 55.4192 102.676 55.3945C102.628 55.3318 102.579 55.2691 102.538 55.2015C102.525 55.1796 102.528 55.1484 102.532 55.1166C102.534 55.0988 102.535 55.0809 102.535 55.0644C102.496 54.3821 102.457 53.6999 102.418 53.0177L102.418 53.0171L102.418 53.0166L102.418 53.0161L102.417 52.997ZM72.1604 55.4565C72.1412 55.4878 72.122 55.5191 72.108 55.5494C71.7287 55.3685 71.3769 55.1526 71.0287 54.9387C70.7239 54.7516 70.4217 54.566 70.1062 54.4072C69.3929 54.0481 69.1419 53.3961 68.9135 52.748C68.6507 52.0022 69.2357 51.2898 70.0288 51.2952L70.135 51.2957H70.1351C70.4178 51.2967 70.7048 51.2977 70.9766 51.3573C71.5107 51.4744 71.5637 51.8883 71.6147 52.2871C71.6306 52.4108 71.6462 52.5331 71.676 52.6447C71.8667 53.3582 72.0059 54.0857 72.1451 54.8126L72.1451 54.8126L72.1451 54.8127L72.1451 54.8127L72.1451 54.8128L72.1451 54.8128L72.1451 54.8129L72.1451 54.8129L72.1451 54.8129L72.1452 54.813L72.1452 54.813L72.1452 54.8131L72.1452 54.8131L72.1452 54.8132L72.1452 54.8132C72.174 54.9637 72.2028 55.1141 72.2321 55.2643C72.2432 55.3216 72.2018 55.389 72.1604 55.4565ZM114.446 121.156C115.549 122.923 116.656 124.695 117.783 126.487C118.071 126.775 118.354 127.059 118.635 127.342C119.253 127.964 119.86 128.574 120.475 129.176C121.953 130.621 123.71 130.974 125.69 130.52C127.411 130.125 128.982 129.427 130.366 128.333C130.585 128.159 130.811 127.99 131.038 127.821C131.704 127.324 132.373 126.824 132.882 126.198C134.044 124.769 135.113 123.243 136.046 121.656C137.292 119.537 138.53 117.387 139.482 115.128C140.368 113.023 141.106 110.854 141.844 108.686L141.844 108.686C142.119 107.878 142.394 107.07 142.677 106.265C142.78 105.971 142.884 105.678 142.987 105.384L142.987 105.383L142.988 105.382L142.988 105.382C143.572 103.727 144.156 102.071 144.672 100.395C144.923 99.5809 145.135 98.7542 145.347 97.9277L145.347 97.9275C145.619 96.8635 145.892 95.7999 146.248 94.7645C146.656 93.5765 147.164 92.4229 147.672 91.269L147.672 91.2689L147.672 91.2687L147.672 91.2685L147.672 91.2684L147.672 91.2682L147.672 91.268L147.673 91.2678L147.673 91.2677L147.673 91.2675L147.673 91.2673L147.673 91.2672L147.673 91.267L147.673 91.2668L147.673 91.2666C147.936 90.6688 148.199 90.0709 148.449 89.4681C148.711 88.8338 148.975 88.1998 149.238 87.5659C150.244 85.1438 151.251 82.7216 152.205 80.2794C152.584 79.3113 152.849 78.2977 153.113 77.2863L153.113 77.286C153.183 77.0197 153.252 76.7535 153.324 76.4883C153.356 76.3681 153.292 76.2216 153.227 76.0752C153.197 76.0074 153.167 75.9396 153.147 75.8744C153.077 75.8967 153.003 75.9133 152.928 75.9299L152.928 75.9299C152.766 75.9661 152.604 76.0022 152.49 76.0966C151.776 76.6893 151.283 77.44 150.957 78.3164C150.79 78.7654 150.567 79.194 150.343 79.6211C150.297 79.7099 150.251 79.7986 150.205 79.8874C150.177 79.9415 150.102 79.9712 150.027 80.0008C149.992 80.0146 149.957 80.0283 149.927 80.0444C149.927 80.0145 149.924 79.9839 149.921 79.9534C149.915 79.8876 149.909 79.8219 149.927 79.7629C150.061 79.3004 150.201 78.8391 150.341 78.3779L150.341 78.3775L150.341 78.377L150.341 78.3766L150.341 78.3761L150.341 78.3756L150.342 78.3752L150.342 78.3747L150.342 78.3743L150.342 78.3738L150.342 78.3733L150.342 78.3729L150.342 78.3721L150.343 78.3714L150.343 78.3706C150.641 77.3861 150.939 76.4015 151.188 75.4046C151.392 74.5891 151.457 73.732 151.512 72.889C151.551 72.2787 150.993 71.9256 150.503 72.2433C150.248 72.408 150.038 72.6418 149.829 72.8751L149.828 72.8752C149.744 72.9693 149.659 73.0634 149.572 73.1528C149.503 73.2235 149.441 73.3011 149.379 73.3787L149.379 73.3788C149.35 73.4142 149.322 73.4497 149.293 73.4845C149.278 73.444 149.262 73.4039 149.245 73.3637C149.209 73.2754 149.173 73.187 149.156 73.0951C149.098 72.791 149.054 72.4838 149.014 72.1766C148.937 71.5975 148.603 71.0451 148.092 71.0334C147.744 71.0255 147.249 71.5304 147.053 71.9224C146.458 73.1119 145.934 74.342 145.461 75.5862C145.093 76.5534 144.766 77.5359 144.438 78.5185L144.438 78.5186C144.289 78.9664 144.14 79.4141 143.987 79.8604C143.954 79.9576 143.915 80.0527 143.876 80.1478C143.858 80.1919 143.839 80.236 143.822 80.2803C143.785 80.253 143.746 80.2278 143.707 80.2026C143.622 80.1482 143.537 80.0938 143.481 80.018C142.898 79.2291 142.065 78.8137 141.219 78.3916L141.116 78.3404C140.344 77.9548 139.581 78.0606 138.904 78.3949C137.988 78.8477 138.02 80.4908 138.825 81.2271C140.066 82.3623 140.925 83.7138 141.292 85.3705C141.789 87.6204 141.318 89.6538 139.988 91.5163L139.79 91.7928L139.79 91.7931C139.127 92.7202 138.464 93.6485 137.854 94.6101C136.292 97.0746 134.745 99.5496 133.233 102.045L133.143 102.194L133.143 102.194L133.143 102.194L133.143 102.194L133.143 102.194L133.143 102.195L133.143 102.195L133.142 102.195L133.142 102.195L133.142 102.195C131.745 104.502 130.346 106.811 129.055 109.177C128.47 110.248 127.997 111.379 127.523 112.509L127.523 112.509C127.356 112.908 127.189 113.307 127.017 113.704C126.864 114.057 126.755 114.182 126.463 113.822C126.244 113.553 125.993 113.3 125.719 113.088C125.635 113.023 125.508 113.014 125.38 113.006C125.322 113.002 125.264 112.998 125.211 112.988C125.207 113.028 125.198 113.073 125.189 113.118C125.169 113.216 125.149 113.313 125.189 113.358C125.241 113.416 125.293 113.475 125.345 113.534C125.615 113.841 125.888 114.152 126.215 114.383C127.235 115.104 127.356 115.02 127.807 113.831C127.863 113.682 127.92 113.533 127.976 113.383L127.976 113.383C128.366 112.344 128.759 111.297 129.292 110.333C130.74 107.715 132.268 105.139 133.806 102.572C135.326 100.033 136.874 97.51 138.459 95.0113C138.817 94.4471 139.215 93.9062 139.613 93.3658C140.169 92.6091 140.726 91.8533 141.17 91.0354C142.823 87.9957 142.581 84.971 140.657 82.1083C140.466 81.8244 140.218 81.5774 139.971 81.3308C139.698 81.059 139.426 80.7878 139.231 80.4681C139.021 80.1236 138.998 79.4995 139.176 79.1429C139.295 78.9023 139.967 78.7322 140.297 78.8349C141.882 79.329 143.389 79.9713 143.722 81.9023C143.738 81.9927 143.843 82.0677 143.949 82.1427C143.998 82.1775 144.047 82.2124 144.087 82.2488C144.106 82.2199 144.127 82.1917 144.149 82.1636C144.195 82.1029 144.242 82.0421 144.263 81.9735C144.459 81.3298 144.648 80.6838 144.837 80.0379L144.925 79.7354C145.068 79.2469 145.206 78.7568 145.344 78.2668L145.344 78.2664L145.344 78.2661L145.344 78.2658L145.344 78.2655L145.344 78.2652L145.344 78.2649L145.345 78.2646L145.345 78.2643L145.345 78.264L145.345 78.2637C145.67 77.1105 145.995 75.9573 146.381 74.8247C146.622 74.1147 146.974 73.4411 147.324 72.7691C147.433 72.5604 147.542 72.3518 147.648 72.1423C147.72 71.9986 147.91 71.8986 148.067 71.8234C148.108 71.8039 148.294 71.9464 148.304 72.0281C148.322 72.1695 148.347 72.3133 148.372 72.4576L148.372 72.4577V72.4578V72.4578V72.4579V72.4579V72.458V72.4581V72.4581V72.4582C148.441 72.8609 148.511 73.2675 148.428 73.6375C148.258 74.3881 148.025 75.1243 147.793 75.8609L147.793 75.861C147.661 76.2788 147.529 76.6966 147.409 77.1173C147.134 78.0759 146.881 79.0415 146.657 80.0129C146.638 80.0964 146.729 80.2053 146.82 80.3142C146.863 80.3647 146.905 80.4152 146.936 80.4631C146.979 80.4264 147.028 80.3921 147.077 80.3578C147.185 80.2835 147.292 80.2093 147.326 80.11C147.551 79.4586 147.756 78.8004 147.962 78.1422L147.962 78.1413L147.962 78.1404C148.033 77.9137 148.104 77.687 148.175 77.4607C148.655 75.9413 149.165 74.436 150.301 73.2498C150.372 73.1758 150.467 73.1249 150.562 73.074C150.606 73.0504 150.651 73.0267 150.692 73.0008C150.707 73.0539 150.728 73.1087 150.749 73.1634C150.795 73.2813 150.84 73.3992 150.816 73.5007C150.418 75.1932 150.002 76.8817 149.578 78.5682C149.516 78.8166 149.442 79.0628 149.369 79.3088L149.369 79.309L149.369 79.3092L149.369 79.3093L149.369 79.3095L149.369 79.3096L149.369 79.3098L149.369 79.31L149.369 79.3101L149.369 79.3103L149.369 79.3104L149.368 79.3106L149.368 79.3108L149.368 79.3109C149.25 79.7083 149.132 80.1053 149.059 80.5109C149.027 80.6909 149.106 80.8907 149.185 81.0904C149.221 81.1814 149.257 81.2723 149.283 81.3614C149.353 81.3365 149.433 81.3183 149.512 81.3001C149.685 81.2603 149.858 81.2206 149.941 81.1121C150.365 80.5578 150.757 79.9721 151.097 79.3625C151.297 79.0042 151.471 78.6316 151.645 78.2588L151.645 78.2587L151.645 78.2585C151.79 77.9484 151.935 77.6382 152.094 77.3361C152.152 77.2276 152.274 77.1535 152.397 77.0794L152.397 77.0794C152.453 77.0453 152.509 77.0112 152.559 76.9738C152.553 77.0296 152.551 77.0868 152.548 77.144V77.144C152.543 77.2674 152.538 77.3907 152.496 77.5003L152.312 77.9883L152.312 77.9886L152.312 77.9888C151.872 79.1532 151.432 80.3178 150.96 81.4688C150.765 81.9423 150.548 82.4063 150.33 82.8702L150.33 82.8705C150.118 83.3217 149.906 83.7729 149.716 84.2329C149.361 85.0894 149.02 85.9515 148.678 86.8136L148.678 86.814C148.069 88.3497 147.46 89.8852 146.78 91.3888C145.817 93.5183 145.047 95.7029 144.404 97.9415C144.148 98.8336 143.885 99.7248 143.591 100.605C143.277 101.545 142.951 102.482 142.626 103.419C141.99 105.249 141.355 107.08 140.8 108.935C139.984 111.666 139.075 114.352 137.87 116.934C136.586 119.686 135.001 122.271 133.154 124.668C132.287 125.794 131.191 126.838 129.993 127.591C128.625 128.45 127.159 129.243 125.52 129.572C124.43 129.791 123.331 129.92 122.331 129.343C120.491 128.283 119.117 126.701 117.904 125.007C116.989 123.73 116.124 122.418 115.259 121.106L115.259 121.106L115.258 121.105C114.761 120.35 114.263 119.595 113.756 118.847C113.674 118.725 113.53 118.645 113.385 118.565C113.318 118.527 113.252 118.49 113.191 118.448C113.189 118.491 113.187 118.535 113.185 118.578L113.18 118.657V118.657V118.657V118.657V118.657C113.17 118.843 113.16 119.028 113.17 119.212C113.172 119.251 113.215 119.285 113.262 119.321C113.297 119.349 113.334 119.378 113.355 119.411C113.719 119.993 114.082 120.574 114.446 121.156ZM108.32 160.471L108.319 160.472C108.159 161.495 108.002 162.495 107.656 163.424C107.021 165.134 105.55 166.168 103.851 166.694C102.181 167.21 100.467 167.589 98.756 167.967C98.5554 168.011 98.3548 168.055 98.1544 168.1C97.7001 168.201 97.2263 168.216 96.7531 168.23C96.5655 168.236 96.378 168.242 96.1919 168.253C95.253 168.31 94.314 168.365 93.3749 168.42L93.3631 168.421H93.3629H93.3627H93.3625H93.3624H93.3622H93.362H93.3619H93.3617H93.3615H93.3613H93.3612H93.361C91.9436 168.504 90.5261 168.587 89.109 168.675C88.5309 168.711 87.9533 168.756 87.3757 168.8L87.3726 168.8H87.3724H87.3722H87.372H87.3717H87.3715H87.3713H87.3711H87.3709H87.3707H87.3705H87.3703H87.3701H87.3699C86.6626 168.854 85.9552 168.908 85.2471 168.947L84.9022 168.967H84.9018H84.9015H84.9012H84.9008H84.9005H84.9002H84.8998H84.8995H84.8992H84.8988H84.8985H84.8982H84.8978C83.7783 169.03 82.6568 169.093 81.5376 169.076C80.7563 169.064 79.9758 168.969 79.1965 168.875L79.196 168.875L79.1919 168.874C78.9892 168.85 78.7866 168.825 78.5841 168.802C78.502 168.793 78.4276 168.715 78.3533 168.637C78.3189 168.601 78.2844 168.565 78.2492 168.535C78.2765 168.506 78.3026 168.47 78.3287 168.434L78.3289 168.434C78.3858 168.356 78.4426 168.279 78.5117 168.266L78.5797 168.253L78.6198 168.245L78.7295 168.222C79.0561 168.156 79.3898 168.088 79.706 168.129C81.8922 168.411 84.0607 168.226 86.2334 167.982C87.2956 167.862 88.3635 167.789 89.4305 167.715L89.6757 167.699C90.4167 167.648 91.1585 167.606 91.9003 167.564L91.9007 167.564L91.9011 167.564L91.9016 167.564L91.902 167.564L91.9024 167.564L91.9028 167.564L91.9033 167.564L91.9037 167.563L91.9041 167.563L91.9045 167.563L91.905 167.563L91.9054 167.563L91.9058 167.563L91.9075 167.563C93.3168 167.483 94.7261 167.404 96.1292 167.262C98.853 166.987 101.547 166.498 104.096 165.452C105.57 164.847 106.584 163.696 106.969 162.179L107.008 162.025C107.432 160.353 107.863 158.654 107.692 156.896C107.652 156.485 107.584 156.076 107.516 155.668C107.412 155.041 107.309 154.416 107.306 153.789C107.303 152.964 107.363 152.14 107.424 151.316L107.424 151.316C107.477 150.597 107.53 149.878 107.54 149.16C107.55 148.518 107.466 147.876 107.382 147.234C107.346 146.96 107.311 146.687 107.282 146.414C107.257 146.177 107.234 145.94 107.211 145.703L107.211 145.702C107.15 145.069 107.088 144.437 106.996 143.81C106.663 141.552 106.534 139.286 106.572 137.005C106.582 136.407 106.545 135.809 106.507 135.21V135.21V135.21V135.21V135.21V135.21V135.21V135.21V135.21V135.209V135.209V135.209V135.209V135.209C106.482 134.804 106.457 134.398 106.446 133.993C106.423 133.081 106.406 132.168 106.389 131.256V131.256V131.256V131.256V131.256V131.256V131.256V131.255V131.255V131.255V131.255V131.255V131.255V131.255C106.365 129.954 106.34 128.653 106.297 127.352C106.261 126.285 106.199 125.219 106.138 124.152L106.138 124.152L106.138 124.152L106.138 124.152L106.138 124.152L106.138 124.151L106.138 124.151L106.138 124.151L106.138 124.151L106.138 124.15L106.138 124.15L106.138 124.15L106.138 124.15L106.138 124.149C106.099 123.465 106.059 122.78 106.027 122.095C106 121.534 105.981 120.973 105.962 120.412V120.412V120.412V120.412V120.411V120.411V120.411V120.411V120.411V120.411V120.411V120.411V120.411V120.41L105.962 120.41C105.939 119.735 105.917 119.06 105.88 118.385C105.854 117.906 105.81 117.427 105.766 116.947V116.947V116.947V116.947V116.947V116.947V116.947V116.947V116.947V116.946V116.946V116.946V116.946V116.946C105.683 116.044 105.599 115.143 105.639 114.246C105.682 113.273 105.853 112.306 106.025 111.339L106.025 111.339C106.101 110.907 106.178 110.475 106.243 110.043C106.286 109.754 106.331 109.466 106.375 109.177C106.497 108.393 106.618 107.609 106.716 106.822C106.772 106.379 106.813 105.934 106.854 105.49L106.854 105.489L106.854 105.489L106.854 105.489L106.854 105.488L106.854 105.488L106.854 105.488L106.854 105.487L106.854 105.487L106.854 105.487L106.854 105.486L106.854 105.486L106.854 105.486L106.854 105.485L106.854 105.485C106.902 104.969 106.949 104.453 107.02 103.94C107.035 103.827 107.163 103.728 107.292 103.63C107.351 103.585 107.41 103.54 107.458 103.493C107.484 103.546 107.518 103.601 107.552 103.656C107.625 103.774 107.698 103.892 107.686 104.001C107.522 105.485 107.335 106.966 107.14 108.446C107.067 108.998 106.977 109.549 106.886 110.1C106.699 111.242 106.511 112.384 106.48 113.531C106.436 115.166 106.533 116.805 106.631 118.444V118.444V118.444V118.444V118.444V118.444V118.444V118.444V118.444V118.445V118.445V118.445V118.445V118.445C106.665 119.009 106.698 119.572 106.726 120.136C106.767 120.963 106.823 121.789 106.879 122.614L106.879 122.615L106.879 122.615L106.879 122.615L106.879 122.615L106.879 122.615L106.879 122.615L106.879 122.616L106.879 122.616L106.879 122.616L106.879 122.616L106.879 122.616L106.879 122.616L106.879 122.617L106.879 122.617C106.921 123.24 106.964 123.863 106.999 124.486C107.024 124.913 107.049 125.34 107.073 125.767L107.073 125.77C107.196 127.889 107.319 130.008 107.413 132.128C107.448 132.905 107.461 133.683 107.475 134.461V134.461V134.461V134.461V134.461V134.462V134.462V134.462V134.462V134.462V134.462V134.462V134.462V134.462V134.462C107.492 135.48 107.509 136.497 107.575 137.511C107.652 138.714 107.784 139.913 107.916 141.112L107.916 141.113L107.916 141.113L107.916 141.113L107.916 141.114L107.916 141.114L107.916 141.114L107.916 141.115L107.916 141.115L107.916 141.115L107.916 141.116L107.916 141.116L107.916 141.116L107.916 141.117C107.985 141.745 108.054 142.374 108.116 143.003C108.22 144.079 108.316 145.157 108.393 146.236C108.4 146.329 108.407 146.421 108.414 146.514L108.431 146.737L108.431 146.737C108.488 147.481 108.545 148.226 108.524 148.969C108.502 149.731 108.456 150.493 108.409 151.254C108.348 152.253 108.287 153.251 108.282 154.25C108.28 154.765 108.375 155.279 108.471 155.793C108.546 156.199 108.622 156.604 108.65 157.012C108.682 157.48 108.639 157.953 108.594 158.447C108.573 158.687 108.551 158.931 108.537 159.182C108.454 159.614 108.387 160.045 108.32 160.471ZM57.2142 161.734C57.8003 164.219 59.4063 166.062 61.4656 167.591L61.6372 167.66L61.6381 167.661C62.5355 168.02 63.3988 168.365 64.2797 168.658C64.4484 168.714 64.646 168.684 64.8436 168.653L64.8442 168.653C64.9347 168.639 65.0253 168.625 65.1131 168.62C65.0622 168.566 65.0116 168.512 64.961 168.458C64.8128 168.3 64.6646 168.142 64.5088 167.992C64.4887 167.972 64.4501 167.975 64.4093 167.978C64.3743 167.981 64.3377 167.984 64.3099 167.973C64.0797 167.88 63.8381 167.801 63.5965 167.722C63.0435 167.542 62.49 167.361 62.0696 167.017C61.044 166.179 60.1088 165.194 59.2909 164.15C58.4826 163.117 58.0704 161.877 58.1466 160.516C58.1741 160.024 58.1889 159.53 58.2036 159.037C58.2245 158.34 58.2453 157.643 58.3023 156.949C58.3455 156.422 58.4277 155.897 58.5098 155.373C58.5823 154.911 58.6548 154.448 58.7006 153.983C58.8009 152.965 58.8635 151.944 58.926 150.922C58.941 150.678 58.956 150.434 58.9714 150.19C58.9773 150.097 58.9165 149.968 58.8435 149.912C58.7833 149.867 58.6135 149.866 58.5714 149.914C58.5421 149.947 58.5105 149.982 58.4784 150.017C58.3382 150.169 58.188 150.332 58.1669 150.505C58.0786 151.226 58.0171 151.951 57.9557 152.676L57.9557 152.676L57.9557 152.676L57.9557 152.676L57.9557 152.677L57.9556 152.677L57.9556 152.677L57.9556 152.677L57.9556 152.677L57.9556 152.677L57.9556 152.677L57.9556 152.677L57.9556 152.678C57.9277 153.007 57.8998 153.336 57.8694 153.664C57.8602 153.763 57.8397 153.861 57.8192 153.959C57.8036 154.034 57.788 154.108 57.7773 154.183C57.7181 154.601 57.6541 155.018 57.5901 155.435C57.4355 156.444 57.2808 157.453 57.1924 158.467L57.1719 158.7C57.0817 159.715 56.9876 160.773 57.2142 161.734ZM94.6357 91.5853L94.636 91.585L94.6361 91.585C96.1486 90.5638 97.6422 89.5555 98.8661 88.2196C99.5114 87.5153 100.084 86.744 100.656 85.9727L100.656 85.9727C100.908 85.633 101.159 85.2934 101.418 84.9596C101.446 84.9225 101.471 84.8786 101.495 84.835C101.539 84.7561 101.582 84.6784 101.648 84.6449C101.783 84.5772 101.932 84.5395 102.082 84.5019C102.144 84.4862 102.206 84.4705 102.267 84.4526C102.248 84.5142 102.232 84.579 102.217 84.6437C102.184 84.7836 102.15 84.9236 102.072 85.0308C101.912 85.2514 101.752 85.4728 101.592 85.6943C100.948 86.5877 100.303 87.4818 99.6 88.3277C98.9665 89.0904 98.2682 89.8281 97.4876 90.4334C96.1327 91.4841 94.7402 92.5046 93.2736 93.3883C91.6692 94.3549 89.9853 95.1994 88.2914 96.0029C87.4519 96.4011 86.5367 96.3493 85.7055 95.8079C83.1925 94.1708 80.7422 92.452 78.6534 90.2779C78.0755 89.6765 77.5416 89.0284 77.0364 88.3645C76.9546 88.257 76.9654 88.079 76.9762 87.901C76.9812 87.819 76.9861 87.7371 76.9821 87.6621C77.0571 87.6762 77.1406 87.682 77.2241 87.6879C77.4059 87.7007 77.5876 87.7135 77.6814 87.8109C77.9344 88.0736 78.1661 88.3574 78.3976 88.6411C78.6659 88.97 78.9341 89.2987 79.2354 89.5941C80.0126 90.3562 80.8301 91.0844 81.6838 91.7597C82.7076 92.5695 83.7607 93.3426 84.8135 94.1156C85.0472 94.2872 85.2809 94.4588 85.5142 94.6308C85.6684 94.7444 85.8345 94.842 86.0006 94.9395C86.1734 95.0411 86.3462 95.1426 86.5056 95.2622C87.1702 95.761 87.7428 95.4341 88.2679 95.1344C88.3982 95.06 88.5257 94.9872 88.6508 94.9292C89.8959 94.3522 91.0995 93.6858 92.3208 93.0096L92.3209 93.0095L92.3211 93.0094L92.3232 93.0082C92.7122 92.7928 93.103 92.5765 93.4975 92.3617C93.8755 92.0985 94.2562 91.8415 94.6357 91.5853ZM147.157 85.3214C147.363 85.0684 147.573 84.8108 147.791 84.5456C147.94 84.529 148.081 84.5272 148.218 84.5253H148.218C148.369 84.5233 148.514 84.5214 148.657 84.4999C148.776 84.4817 148.889 84.4135 149.001 84.3452C149.051 84.3146 149.101 84.284 149.152 84.2579C149.112 84.211 149.074 84.1565 149.037 84.1019C148.955 83.9841 148.874 83.8662 148.764 83.8252C147.727 83.4385 145.896 84.8611 145.951 86.0046C145.956 86.1115 146.018 86.2157 146.08 86.3198C146.108 86.3681 146.137 86.4163 146.16 86.4648C146.195 86.4294 146.232 86.3949 146.269 86.3605L146.269 86.3604L146.269 86.3604L146.269 86.3603L146.269 86.3603L146.269 86.3602L146.269 86.3602L146.269 86.3601L146.269 86.3601L146.269 86.36L146.269 86.36C146.349 86.2851 146.429 86.2102 146.498 86.1265C146.716 85.863 146.932 85.598 147.152 85.3279L147.152 85.3278L147.152 85.3277L147.152 85.3277L147.154 85.325L147.154 85.3248L147.157 85.3219L147.157 85.3214ZM95.1724 66.122C95.5077 66.2015 95.8081 66.3158 96.1085 66.4301L96.1087 66.4302C96.0632 66.5063 96.0221 66.5869 95.981 66.6675C95.8923 66.8413 95.8037 67.0151 95.6715 67.1445C94.0519 68.7304 92.0792 69.657 89.8844 70.1173C89.6185 70.173 89.3222 70.1 89.0325 70.0286L89.0324 70.0285C88.9448 70.0069 88.8578 69.9855 88.7724 69.9678C88.6931 69.9514 88.5737 69.7356 88.5881 69.7203C88.6192 69.6873 88.6508 69.6509 88.6829 69.6138C88.8006 69.4779 88.9262 69.333 89.0667 69.3119C91.2667 68.9826 93.1115 67.9721 94.7057 66.4545C94.7811 66.3827 94.8698 66.3251 94.9678 66.2615C95.0324 66.2195 95.101 66.1749 95.1724 66.122ZM144.261 86.4562C144.59 85.6387 144.324 84.8635 144.023 84.0571C143.943 83.9651 143.865 83.8751 143.79 83.7871L143.789 83.7869C143.571 83.5338 143.367 83.296 143.152 83.0672C143.138 83.0524 142.877 83.2221 142.885 83.2409C142.993 83.4971 143.121 83.7462 143.259 83.9887C143.681 84.7326 143.736 85.5408 143.721 86.3717C143.719 86.4875 143.787 86.6045 143.856 86.7216C143.888 86.7756 143.92 86.8296 143.944 86.8835C143.978 86.8388 144.016 86.7955 144.054 86.7523C144.135 86.6587 144.217 86.565 144.261 86.4562ZM84.1462 38.4168C84.4191 38.5439 84.6865 38.6811 84.9516 38.8173C85.6164 39.1586 86.2672 39.4927 86.958 39.6411L87.0658 39.6643C88.0992 39.8873 89.2114 40.1272 90.2501 39.5631C90.6142 39.3655 90.9564 39.1221 91.2881 38.8724C91.4904 38.7201 91.6725 38.531 91.8316 38.3327C93.0942 36.7587 94.0259 36.9938 95.7645 38.0214C97.9889 39.3362 98.799 41.5804 99.5822 43.8131C99.9734 44.9284 100.219 46.0981 100.464 47.2615L100.464 47.2615L100.464 47.2616L100.464 47.2616L100.464 47.2617L100.465 47.2655C100.498 47.4205 100.53 47.5755 100.563 47.7301C100.725 48.4903 100.793 49.2742 100.853 50.0513C100.924 50.9731 100.958 51.8982 100.991 52.8226L100.998 52.9922C101.016 53.498 101.026 54.0045 101.035 54.511V54.5111V54.5112V54.5113V54.5115V54.5116V54.5117V54.5118C101.054 55.4986 101.073 56.4852 101.156 57.4665C101.284 58.9675 101.044 60.4143 100.709 61.8494C100.323 63.5021 99.067 64.2989 97.5444 64.6702C96.9031 64.8266 96.2336 64.8718 95.5655 64.9169C95.3348 64.9325 95.1042 64.948 94.875 64.9682C92.5176 65.1752 90.1748 65.467 87.8972 66.1422C87.1908 66.3517 86.5159 66.2553 85.9236 65.8615C84.7279 65.0667 83.3772 64.7761 81.9998 64.5533C79.4312 64.138 76.9926 63.4373 75.1102 61.4834C74.6133 60.9677 74.2945 60.4157 74.3265 59.6389C74.3833 58.2614 74.1844 56.9056 73.9858 55.5513C73.8724 54.7778 73.759 54.0048 73.6934 53.2285C73.495 50.8812 73.5819 48.5232 74.2996 46.1854C75.0999 43.578 76.3209 41.2746 78.258 39.3945C78.7901 38.878 79.4331 38.4763 80.0765 38.0744C80.3904 37.8782 80.7045 37.682 81.0059 37.4724L81.0566 37.4371C81.3862 37.208 81.7192 36.9765 82.0097 36.7029C82.4522 36.2862 82.7207 36.5062 82.9969 36.8893C83.3267 37.3467 83.6698 37.7947 84.035 38.2716L84.1462 38.4168ZM98.4175 42.6389C98.3806 42.5509 98.3435 42.4631 98.3063 42.3752L98.3062 42.3749C98.2261 42.1858 98.1461 41.9966 98.069 41.8062C97.3343 39.9921 96.0361 38.7191 94.2585 37.9534C93.9823 37.8345 93.5018 37.9036 93.2528 38.0795C93.0455 38.226 92.9 38.4562 92.7532 38.6883C92.6701 38.8195 92.5867 38.9514 92.4915 39.0692C91.641 40.1208 90.6438 40.9431 89.1883 40.8134C88.2877 40.7332 87.3778 40.6176 86.5057 40.3891C85.1389 40.0308 83.8944 39.388 83.0102 38.2418L82.924 38.1297C82.3431 37.3735 82.3359 37.3642 81.5441 37.8956C81.2831 38.0708 81.0147 38.2386 80.7462 38.4066L80.7462 38.4066C80.077 38.8252 79.4068 39.2443 78.8479 39.7786C76.9579 41.5852 75.7167 43.7569 74.9719 46.3276C74.3007 48.6444 74.2602 50.9416 74.3703 53.2647C74.4597 55.1511 74.7599 57.0328 75.0597 58.9017L75.0794 59.0254C75.2106 59.8532 75.3456 60.7046 76.0681 61.3454C77.4367 62.5591 79.0584 63.2122 80.802 63.5597C81.0384 63.6068 81.2749 63.6522 81.5113 63.6976L81.5119 63.6977C83.1747 64.0168 84.8273 64.3339 86.3249 65.2285C86.6744 65.4372 87.2031 65.4832 87.6201 65.418C88.5586 65.2711 89.4933 65.1 90.428 64.929C91.3965 64.7517 92.3651 64.5744 93.3378 64.4241C93.8889 64.3389 94.4473 64.293 95.0052 64.2471L95.0053 64.2471L95.0054 64.2471L95.0055 64.2471L95.0057 64.2471L95.0058 64.2471L95.0059 64.247L95.006 64.247C95.7681 64.1843 96.5293 64.1217 97.2698 63.9594C98.2896 63.7358 99.4362 63.39 99.7668 62.1967C100.088 61.0369 100.365 59.831 100.409 58.636C100.47 56.9841 100.4 55.3262 100.331 53.6704C100.318 53.3693 100.306 53.0683 100.294 52.7673C100.27 52.1543 100.218 51.5422 100.166 50.9301L100.166 50.9299C100.11 50.256 100.053 49.5821 100.033 48.9071C99.9696 46.8037 99.251 44.8754 98.5042 42.8717L98.4175 42.6389ZM96.9945 49.5995C95.8129 48.6763 94.4273 48.4873 92.9044 48.6405C92.763 48.6658 92.6428 48.6941 92.5316 48.7202L92.5315 48.7202C92.4383 48.7421 92.3515 48.7626 92.2638 48.7785C90.8246 49.0401 89.5909 49.6276 88.7432 50.8907C88.6542 51.0232 88.3218 51.0904 88.1384 51.0444C87.3296 50.8417 86.5789 50.8246 85.9508 51.4785C85.8729 51.5595 85.8006 51.6458 85.7283 51.7321C85.6951 51.7718 85.6618 51.8115 85.628 51.8507C85.6152 51.7929 85.5977 51.7347 85.5801 51.6765L85.58 51.6763C85.542 51.5507 85.5041 51.425 85.5146 51.3035C85.6402 49.8585 84.9481 48.9588 83.6877 48.3512C82.5081 47.7826 81.2692 47.6613 79.9949 47.6629C78.0541 47.6653 76.4011 48.9221 75.7188 50.7601C75.3021 51.8825 75.4151 52.9739 75.7744 54.0106C76.1251 55.0226 76.5238 56.1044 77.5662 56.6655C77.6981 56.7366 77.831 56.8111 77.9646 56.8861C78.5769 57.2296 79.2072 57.5832 79.8588 57.6611L79.9637 57.6738L80.0351 57.6825C81.0018 57.801 82.0387 57.9281 82.9519 57.2756C84.3323 56.2893 85.0852 54.8953 85.4848 53.3133C85.6734 52.5668 86.0543 52.1176 86.72 51.8192C87.7217 51.3701 88.35 51.7651 88.4546 52.8024C88.577 54.0158 88.844 55.2094 89.555 56.2488C90.3881 57.4666 91.5194 58.2071 92.9161 58.7222C94.5993 59.3428 95.8088 58.9646 97.0292 57.9777C99.2972 56.1438 99.523 51.5749 96.9945 49.5995ZM91.727 49.6545C92.6783 49.3707 93.7111 49.279 94.7188 49.5477C95.8631 49.6338 96.6147 50.279 97.1691 51.0626C97.7257 51.8492 98.2304 52.7408 98.1949 53.7604C98.1568 54.854 97.7455 55.8386 97.0583 56.699C96.4686 57.4373 95.7006 57.9091 94.7894 58.1114C94.5984 58.1538 94.3836 58.0985 94.1718 58.044C94.096 58.0245 94.0207 58.0051 93.9469 57.9904C91.5218 57.5041 89.8984 56.1762 89.4154 53.6579C89.3845 53.4973 89.3455 53.338 89.3065 53.1792C89.1498 52.5407 88.9948 51.9092 89.3865 51.227C89.9226 50.2935 90.8316 49.9215 91.727 49.6545ZM84.6676 51.2993C84.8187 52.5824 84.4035 53.7362 83.8321 54.8515C83.7173 55.0041 83.6186 55.1494 83.5253 55.2866L83.5253 55.2867L83.5252 55.2868L83.5252 55.2869L83.5251 55.287L83.525 55.2872C83.3886 55.4879 83.264 55.6713 83.1175 55.8354C82.3105 56.7394 81.3457 57.0236 80.1216 56.7652C79.2636 56.5842 78.5002 56.3621 77.7869 55.8163C76.9274 55.1587 76.5588 54.2513 76.3122 53.2964C75.9193 51.775 76.4546 50.4981 77.5451 49.4057C78.4256 48.5236 79.5393 48.4139 80.6518 48.5257C81.723 48.6334 82.7688 48.8992 83.7139 49.5329C84.3913 49.9872 84.584 50.5893 84.6676 51.2993ZM84.3904 45.9886C85.1005 46.0286 85.6901 45.9536 86.2276 45.5195C86.3261 45.44 86.5327 45.4944 86.7393 45.5488C86.8341 45.5738 86.929 45.5987 87.0134 45.6108C86.9736 45.6567 86.9351 45.704 86.8967 45.7514C86.8136 45.8538 86.7304 45.9562 86.6338 46.0436C85.7343 46.8566 84.7444 46.7999 83.6495 46.4611C82.6925 46.165 81.6874 45.9366 80.6914 45.8747C79.1957 45.7819 77.9165 46.3638 76.9162 47.5172C76.8298 47.6168 76.6961 47.6753 76.5624 47.7338C76.5004 47.761 76.4384 47.7881 76.3812 47.8193C76.3995 47.7386 76.4097 47.6511 76.42 47.5636C76.4421 47.3751 76.4642 47.1867 76.5663 47.066C78.2355 45.0926 80.409 45.0109 82.71 45.5031C83.0324 45.5721 83.3483 45.6715 83.6776 45.7752C83.9065 45.8472 84.1419 45.9213 84.3904 45.9886ZM95.4066 46.4879C94.047 46.2794 92.6937 46.3029 91.4737 47.2099C91.2956 47.3416 91.1199 47.4676 90.9472 47.5914L90.947 47.5916C90.6009 47.8397 90.2667 48.0794 89.9487 48.3389C89.877 48.3975 89.866 48.5304 89.8549 48.6633C89.8498 48.7245 89.8448 48.7857 89.8338 48.8397C89.8815 48.8335 89.9316 48.8315 89.9817 48.8294C90.0925 48.8249 90.2034 48.8203 90.2883 48.7711C90.5317 48.6301 90.7528 48.4472 90.971 48.2666L90.9711 48.2666L90.9813 48.2581C92.3351 47.1385 93.8393 46.6865 95.5728 47.1882C96.1754 47.3625 96.7833 47.5231 97.3968 47.651C97.4963 47.6717 97.6112 47.6188 97.7261 47.5659C97.779 47.5415 97.8318 47.5172 97.8831 47.5C97.8441 47.4585 97.8075 47.4102 97.7708 47.362C97.6911 47.2572 97.6115 47.1525 97.5081 47.1169C97.3766 47.0716 97.245 47.0248 97.1133 46.9779L97.1129 46.9777C96.5517 46.7779 95.9868 46.5768 95.4066 46.4879ZM88.0542 61.0974C87.236 61.1555 86.452 61.2033 85.67 61.1809C85.5664 61.1779 85.4664 61.0466 85.3665 60.9153C85.3204 60.8548 85.2743 60.7942 85.2279 60.7463C85.288 60.7209 85.3478 60.6895 85.4077 60.6581C85.5381 60.5896 85.6686 60.5212 85.8018 60.5151C86.522 60.4824 87.2443 60.4848 87.9656 60.4928C88.1378 60.4947 88.3097 60.5224 88.4817 60.55C88.5602 60.5626 88.6387 60.5752 88.7172 60.5854C88.5078 60.7444 88.2985 60.9035 88.0542 61.0974ZM92.3801 51.0491C91.8832 51.6012 91.9373 52.7639 92.5205 53.3511C93.7029 53.386 94.4122 52.2005 93.8616 51.2028C93.556 50.649 92.8097 50.5716 92.3801 51.0491ZM81.8781 50.3154C82.127 51.0505 81.9643 51.8119 81.4093 52.2221C81.248 52.3413 80.8392 52.3785 80.7254 52.2674C80.0839 51.6413 79.9763 50.5816 80.8943 50.0315C81.3124 49.781 81.6106 49.8971 81.8781 50.3154ZM127.104 46.9542C127.464 47.4961 127.828 48.0418 128.321 48.5088C128.353 49.5672 128.362 50.5544 128.091 51.5194C128.042 51.6925 128.078 51.8554 128.115 52.02C128.144 52.1541 128.338 52.2506 128.451 52.1864C128.597 52.1032 128.741 52.0149 128.878 51.9178C128.971 51.8526 129.062 51.7865 129.154 51.7203C129.543 51.4396 129.931 51.159 130.366 50.948C130.419 50.9223 130.472 50.8968 130.525 50.8714C130.727 50.7747 130.929 50.678 131.121 50.565C131.334 50.44 131.54 50.4224 131.769 50.5002C132.555 50.7686 133.366 50.9348 134.178 51.101C134.307 51.1276 134.437 51.1541 134.566 51.181C134.605 51.1891 134.644 51.1979 134.683 51.2066C134.781 51.2288 134.88 51.251 134.98 51.2634C135.303 51.3037 135.627 51.3349 135.951 51.3661C136.469 51.416 136.988 51.466 137.502 51.5533C137.613 51.5722 137.73 51.5802 137.84 51.5656C138.101 51.5309 138.364 51.5074 138.627 51.484C139.152 51.4371 139.676 51.3903 140.188 51.2538C140.539 51.1605 140.887 51.0559 141.235 50.9514C141.374 50.9097 141.513 50.8679 141.652 50.8269L141.845 50.7698C142.214 50.6612 142.582 50.5526 142.949 50.4408C143.056 50.4082 143.162 50.3682 143.262 50.3181C143.349 50.2747 143.436 50.2315 143.522 50.1883C144.242 49.8297 144.961 49.4716 145.614 48.9861C145.696 48.9249 145.779 48.8655 145.863 48.8062C146.123 48.6204 146.383 48.4353 146.605 48.1994C146.74 48.0566 146.89 47.9275 147.039 47.7992L147.041 47.7976C147.474 47.4261 147.821 46.9818 148.142 46.5157C148.543 45.9325 148.707 45.2581 148.87 44.5846L148.88 44.5458C148.86 44.3063 148.906 44.0756 148.952 43.8448C148.972 43.7441 148.993 43.6433 149.007 43.5418C149.212 42.125 149.03 40.785 148.185 39.5816C148.082 39.4346 147.997 39.2751 147.911 39.1156C147.876 39.0504 147.842 38.9853 147.806 38.921C147.598 38.5498 147.365 38.1968 147.062 37.8954C146.398 37.2373 145.697 36.6314 144.87 36.1752C144.284 35.8513 143.672 35.5874 143.06 35.3229C142.922 35.2632 142.783 35.2034 142.645 35.1429C141.571 34.673 140.452 34.4117 139.296 34.2941C138.939 34.2579 138.581 34.2392 138.223 34.2206C138.045 34.2113 137.867 34.202 137.689 34.1906C136.701 34.1269 135.712 34.105 134.725 34.184C133.881 34.2513 133.038 34.3316 132.195 34.4119C132.027 34.428 131.858 34.444 131.69 34.46C131.608 34.4677 131.525 34.4997 131.45 34.5354C131.055 34.7233 130.647 34.8803 130.239 35.0372C130.016 35.1229 129.793 35.2085 129.573 35.2992C128.613 35.6938 127.788 36.2602 127.204 37.14C127.12 37.2672 127.027 37.3888 126.934 37.5105C126.856 37.6135 126.777 37.7165 126.704 37.8229C126.171 38.5944 125.718 39.4056 125.531 40.337C125.494 40.5197 125.472 40.7053 125.451 40.891C125.436 41.0138 125.422 41.1366 125.403 41.2586C125.309 41.8752 125.303 42.481 125.428 43.1026C125.641 44.1672 126.079 45.1408 126.528 46.1146C126.539 46.14 126.556 46.1637 126.573 46.1864C126.758 46.4354 126.931 46.6943 127.104 46.9542ZM128.841 50.941C128.837 50.9414 128.833 50.9418 128.828 50.9424C128.825 50.9474 128.832 50.9546 128.849 50.9637C128.846 50.9561 128.844 50.9486 128.841 50.941ZM128.911 50.9385C128.887 50.9387 128.864 50.939 128.841 50.941C128.794 50.7804 128.82 50.618 128.865 50.4637C128.976 50.0861 129.024 49.6985 129.072 49.3109C129.1 49.0821 129.129 48.8533 129.17 48.6266C129.196 48.484 129.164 48.3384 129.013 48.2682C128.531 48.0458 128.216 47.6421 127.915 47.2344C127.665 46.8944 127.426 46.5392 127.231 46.165C127.05 45.817 126.915 45.441 126.792 45.0669C126.634 44.5845 126.497 44.0944 126.369 43.6026C126.254 43.1626 126.243 42.7085 126.247 42.256C126.248 42.1578 126.255 42.0595 126.261 41.9613C126.27 41.8335 126.279 41.7058 126.274 41.5784C126.229 40.188 126.788 38.9984 127.501 37.861C127.95 37.1464 128.594 36.6242 129.328 36.2541C130.182 35.8234 131.071 35.4458 132.015 35.2442C132.899 35.0557 133.788 34.8994 134.696 34.869C135.031 34.8578 135.363 34.8397 135.695 34.7256C135.924 34.6468 136.186 34.6489 136.438 34.6508C136.47 34.6511 136.501 34.6513 136.532 34.6514C136.87 34.6525 137.21 34.6752 137.547 34.7125C137.576 34.7157 137.605 34.719 137.635 34.7223C137.97 34.7598 138.304 34.7971 138.643 34.8016C138.869 34.8047 139.096 34.854 139.319 34.9027C139.345 34.9082 139.37 34.9137 139.395 34.9192C139.987 35.0468 140.562 35.2341 141.137 35.4214C141.501 35.5402 141.866 35.659 142.235 35.7626C142.446 35.8658 142.658 35.9686 142.869 36.0714C143.342 36.3013 143.815 36.5313 144.286 36.7661C145.205 37.2238 145.935 37.9238 146.664 38.6229L146.741 38.697C147.244 39.1784 147.542 39.7928 147.765 40.4338C147.977 41.0458 148.124 41.6778 148.168 42.3333C148.242 43.4256 148.055 44.4645 147.667 45.4848C147.264 46.5474 146.613 47.4298 145.714 48.0933C144.554 48.9504 143.29 49.6442 141.911 50.0986C141.323 50.2925 140.735 50.4858 140.124 50.6133C139.204 50.8053 138.274 50.8216 137.342 50.8314C137.304 50.8318 137.266 50.83 137.228 50.8282C137.181 50.826 137.134 50.8238 137.088 50.8256C135.394 50.8888 133.786 50.472 132.195 49.9549C132.043 49.9055 131.889 49.8614 131.735 49.8174C131.645 49.7916 131.555 49.7658 131.465 49.7389C131.291 49.6866 131.128 49.716 130.981 49.8152C130.696 50.0067 130.392 50.1628 130.087 50.319C129.738 50.4976 129.39 50.6762 129.071 50.908C129.032 50.937 128.971 50.9377 128.911 50.9385Z" fill="#00160A"/>
<path fill-rule="evenodd" clip-rule="evenodd" d="M108.683 95.6873C108.805 95.5801 108.93 95.4709 109.06 95.3626C109.147 95.2488 109.235 95.1402 109.321 95.0339L109.321 95.0339C109.531 94.7757 109.73 94.5309 109.87 94.2557C110.216 93.5732 110.032 93.3274 109.303 93C108.97 92.8508 108.665 92.6423 108.359 92.4335L108.359 92.4335C108.159 92.2968 107.959 92.1599 107.75 92.0392L107.703 92.0121C107.421 91.8484 107.114 91.67 106.806 91.6446C105.199 91.5119 103.821 93.6327 104.462 95.1688C105.124 96.7567 106.443 97.2372 107.824 96.3662C108.126 96.1755 108.398 95.9369 108.683 95.6873ZM105.044 94.5225C105.001 93.987 105.075 93.4967 105.466 93.0945C105.567 93.0175 105.652 92.9617 105.727 92.9128L105.727 92.9127L105.727 92.9127C105.8 92.8653 105.862 92.8243 105.919 92.7767C106.596 92.2135 107.029 92.2504 107.702 92.7969C108.1 93.1197 108.574 93.3705 109.049 93.5683C109.413 93.7201 109.451 93.9275 109.226 94.1432C109.083 94.2804 108.942 94.4218 108.8 94.5634L108.8 94.5634L108.8 94.5634C108.301 95.0622 107.799 95.565 107.207 95.9089C106.307 96.4323 105.131 95.5974 105.044 94.5225ZM64.1524 95.5371L64.2556 95.4455C64.8341 94.932 65.3889 94.4394 66.0095 94.0521C66.6987 93.6219 67.482 93.8063 68.0881 94.3733C69.02 95.2451 69.6382 95.1437 70.2463 94.3998C70.3048 94.3282 70.3692 94.2571 70.4437 94.2035C70.5246 94.1453 70.6047 94.0812 70.6854 94.0167C71.0465 93.7278 71.4178 93.4308 71.9139 93.6214C72.5255 93.8566 72.7713 94.412 72.9644 95.0448C73.4041 96.4861 72.5101 97.7103 71.3904 98.3486C70.1041 99.082 68.7185 99.3682 67.297 99.5808C66.2758 99.7335 64.3082 98.846 63.8656 98.1232C63.2943 97.1904 63.6428 96.3978 64.1524 95.5371ZM70.154 98.1192C70.2137 98.0893 70.2736 98.0597 70.3335 98.0301C71.386 97.5096 72.4324 96.9922 72.2554 95.4786C72.246 95.3987 72.2416 95.3149 72.2371 95.231C72.2169 94.8506 72.1964 94.467 71.7196 94.4183C71.4163 94.3873 71.016 94.6415 70.7648 94.8785C69.7237 95.8605 68.8603 95.9536 67.7687 94.9243C67.4358 94.6103 67.0628 94.2848 66.4297 94.5352C65.3276 94.9713 64.8374 95.8793 64.4613 96.8497C64.2897 97.2923 64.334 97.9139 64.9974 98.1228C65.1942 98.1847 65.392 98.2589 65.5901 98.3333C66.0963 98.5232 66.605 98.714 67.1082 98.7047C67.9039 98.6899 68.6961 98.4879 69.5245 98.2767C69.7318 98.2238 69.9415 98.1704 70.154 98.1192ZM93.5674 133.745C93.5396 133.802 93.5121 133.859 93.4846 133.915C93.0317 134.848 92.594 135.75 91.5767 136.147C90.5174 136.56 88.8067 136.696 87.9745 135.638C87.4814 135.012 87.4488 134.179 88.0015 133.585C88.176 133.397 88.3612 133.215 88.5465 133.032L88.5466 133.032L88.5467 133.032L88.5468 133.032L88.5469 133.032L88.547 133.032L88.5471 133.032L88.5472 133.032L88.5472 133.032L88.5473 133.032L88.5474 133.032L88.5475 133.031L88.5476 133.031L88.5477 133.031C89.0185 132.568 89.4905 132.103 89.7923 131.547C90.0809 131.015 90.2097 130.398 90.3387 129.779C90.3982 129.494 90.4577 129.209 90.5329 128.932C90.772 128.051 91.0227 127.159 91.8878 126.67C92.5111 126.317 93.0074 126.546 93.4731 127.114C94.3189 128.145 94.2381 129.31 94.1582 130.463V130.463V130.463V130.463V130.463V130.464V130.464V130.464V130.464V130.464V130.464V130.464V130.464V130.464C94.1375 130.763 94.1168 131.061 94.1124 131.355C94.1037 131.929 93.9322 132.501 93.7566 133.086C93.6914 133.304 93.6256 133.523 93.5674 133.745ZM91.5087 129.244C91.4943 129.332 91.4804 129.421 91.4664 129.509C91.3167 130.458 91.1657 131.415 90.5217 132.18C90.0336 132.759 89.4822 133.296 88.9026 133.785C88.3556 134.246 88.2614 134.79 88.7538 135.282C89.6207 136.148 91.723 135.754 92.3355 134.569C92.6993 133.866 93.0084 133.124 93.253 132.37C93.7057 130.975 93.4252 129.612 92.911 128.289C92.8332 128.089 92.6143 127.827 92.4436 127.813C92.2832 127.801 92.0599 128.053 91.937 128.238C91.7598 128.504 91.6482 128.813 91.5087 129.244ZM91.6027 100.12C90.9627 99.6603 90.3543 99.6529 89.6974 99.8032C88.622 100.049 87.4598 101.302 87.4598 102.585C87.4598 103.876 88.0342 104.821 89.093 105.43C90.115 106.018 91.1905 106.428 92.4581 106.312C93.9424 106.176 95.0643 105.595 95.6712 104.238C95.7976 103.956 95.7857 103.611 95.7738 103.267C95.7683 103.109 95.7629 102.952 95.7707 102.8C95.6402 102.801 95.5058 102.791 95.3714 102.781L95.3714 102.781C95.0689 102.759 94.7665 102.736 94.5089 102.833C94.0292 103.014 93.7729 102.848 93.6116 102.49C93.1662 101.501 92.4914 100.758 91.6027 100.12ZM89.3483 100.853C89.9665 100.562 91.1059 100.238 91.782 100.853C92.4581 101.469 92.7143 102.045 92.8841 102.44C93.2941 103.391 93.8706 103.704 94.8441 103.442C94.9359 103.417 95.0344 103.417 95.1329 103.417C95.1785 103.417 95.2241 103.417 95.269 103.415C95.2552 103.46 95.2428 103.506 95.2304 103.551C95.2037 103.65 95.177 103.748 95.1363 103.84C94.1744 106.019 91.0828 105.694 89.6376 104.774C88.7559 104.213 88.2549 103.481 88.2975 102.415C88.327 101.676 88.712 101.153 89.3483 100.853ZM95.661 118.113C95.4965 118.252 95.3408 118.4 95.1873 118.545C94.8409 118.872 94.5063 119.189 94.1105 119.376C93.2456 119.784 92.3225 119.574 91.4812 119.16C90.0613 118.462 89.1855 117.4 89.2733 115.72C89.3358 114.523 90.0508 113.824 91.0165 113.248C91.8308 112.763 92.626 112.66 93.4775 113.07C94.1139 113.377 94.2892 113.97 94.4622 114.557L94.4622 114.557L94.4622 114.557C94.4969 114.674 94.5315 114.791 94.5696 114.906C94.6192 115.054 94.6326 115.216 94.6461 115.377C94.6607 115.552 94.6752 115.727 94.7362 115.884C94.8247 116.112 95.0394 116.394 95.2531 116.453C96.3056 116.745 96.4104 117.003 95.7476 117.891C95.7298 117.915 95.721 117.946 95.7104 117.982C95.6995 118.02 95.6869 118.064 95.661 118.113ZM94.3001 118.218C94.3304 118.202 94.3619 118.188 94.3934 118.174C94.4613 118.144 94.5292 118.114 94.5848 118.068C95.2497 117.525 95.2477 117.523 94.6083 116.969L94.5747 116.94C94.3876 116.778 94.2361 116.521 94.1721 116.28C94.106 116.032 94.0605 115.776 94.0152 115.521L94.0152 115.521L94.0152 115.521L94.0151 115.521L94.0151 115.521L94.0151 115.521L94.0151 115.52L94.0151 115.52L94.0151 115.52L94.0151 115.52L94.0151 115.52L94.0151 115.52C93.9415 115.106 93.8681 114.694 93.7078 114.317C93.5655 113.982 93.1056 113.643 92.7384 113.574C91.9879 113.432 90.3324 114.771 90.266 115.536C90.1764 116.567 90.486 117.445 91.443 118.022C92.3411 118.564 93.2362 118.877 94.3001 118.218ZM55.9795 105.196C57.5185 104.208 58.5037 102.896 58.7091 100.98C58.7091 100.81 58.7148 100.647 58.7205 100.488C58.7325 100.147 58.7437 99.8292 58.6956 99.5202C58.5911 98.8497 58.3703 98.1975 57.4451 98.3474C56.9925 98.4208 56.5275 98.6287 56.1465 98.89C55.3584 99.4306 55.0924 100.325 54.8394 101.176L54.8167 101.252C54.442 102.509 53.8604 103.394 52.3704 103.393C52.1107 103.393 51.6884 103.881 51.6221 104.201C51.4415 105.074 52.3122 105.97 53.2483 106.006C54.2512 106.044 55.13 105.741 55.9795 105.196ZM53.9961 105.251C53.915 105.269 53.8339 105.286 53.7542 105.307C53.0803 105.382 52.759 105.03 52.449 104.69L52.4489 104.689L52.4489 104.689C52.4246 104.663 52.4003 104.636 52.376 104.61C52.3262 104.556 52.3526 104.337 52.4147 104.292L52.4597 104.259C52.6552 104.117 52.8677 103.962 53.092 103.923C54.2255 103.73 54.8527 103.071 55.2448 101.999C55.5749 101.096 56.0713 100.239 56.6053 99.4357C56.776 99.179 57.3101 99.0563 57.6627 99.0819C57.8003 99.0918 57.9891 99.6764 57.9965 100.003C58.0543 102.581 56.6216 104.186 54.5068 105.106C54.3459 105.176 54.171 105.213 53.9961 105.251ZM56.9993 111.413C57.2742 110.581 57.8724 110.049 58.4625 109.523L58.4625 109.523C58.6712 109.338 58.8789 109.153 59.0709 108.956C59.4518 108.565 60.3294 109.077 60.5238 109.739C60.605 110.015 60.6842 110.293 60.7634 110.57L60.7635 110.57L60.7635 110.57L60.7635 110.57L60.7635 110.57L60.7635 110.57L60.7635 110.57L60.7635 110.57L60.7635 110.57L60.7635 110.57L60.7635 110.57C60.9631 111.269 61.1627 111.967 61.3943 112.655C61.5952 113.251 61.5121 113.718 61.0846 114.185C60.7609 114.539 60.4682 114.943 60.2549 115.371C59.7305 116.423 58.959 116.686 57.7885 115.769C56.2426 114.559 56.4482 113.039 56.9993 111.413ZM60.6631 112.914L60.4027 112.262L60.4023 112.261C60.1634 111.663 59.9244 111.065 59.6868 110.467C59.638 110.344 59.5935 110.219 59.5489 110.095L59.5489 110.095L59.5489 110.095L59.5489 110.095L59.5489 110.095L59.5489 110.095L59.5489 110.095L59.5489 110.095L59.5488 110.095L59.5488 110.095C59.5283 110.038 59.5078 109.98 59.4869 109.923C59.4266 109.952 59.3644 109.978 59.3021 110.004L59.302 110.004L59.3019 110.004C59.1668 110.061 59.0316 110.118 58.9167 110.202C58.0643 110.826 57.6612 111.757 57.4826 112.728C57.3404 113.501 57.3063 114.383 57.9207 115.023C58.2028 115.317 58.6525 115.493 59.0583 115.595C59.1203 115.61 59.2313 115.417 59.3491 115.212C59.4159 115.096 59.4848 114.975 59.5482 114.888C59.6558 114.738 59.7673 114.592 59.8789 114.445C60.0622 114.205 60.2454 113.965 60.4106 113.712C60.5233 113.54 60.5712 113.325 60.6386 113.023L60.6631 112.914ZM76.3902 108.861C74.9844 108.329 73.584 108.65 73.5038 110.471C73.5886 110.666 73.6669 110.861 73.7441 111.053L73.7442 111.053L73.7442 111.053L73.7442 111.053L73.7443 111.054L73.7443 111.054L73.7444 111.054L73.7444 111.054C73.9637 111.6 74.1743 112.123 74.4992 112.563C75.6713 114.149 77.1541 114.625 78.8029 113.965C79.8513 113.545 79.856 112.585 79.154 111.983C78.4944 111.418 77.9264 110.781 77.5773 109.924C77.3942 109.475 76.8633 109.04 76.3902 108.861ZM77.7895 113.275C77.0316 113.413 76.2684 113.552 75.6672 112.844C74.9201 112.109 74.4039 111.363 74.3373 110.373C74.3106 109.975 74.468 109.759 74.8405 109.611C75.3636 109.402 76.5673 109.657 76.6835 110.173C76.8479 110.905 77.2813 111.436 77.7151 111.967C77.8864 112.176 78.0578 112.386 78.2127 112.608C78.3028 112.737 78.3987 112.972 78.3414 113.066C78.2713 113.182 78.0474 113.228 77.8816 113.258L77.7895 113.275ZM73.0063 126.994L73.0063 126.994C73.0443 126.606 73.0802 126.24 73.2518 125.957C73.6964 125.224 73.5926 124.592 73.228 123.913C73.1923 123.847 73.1727 123.771 73.1531 123.696C73.1342 123.624 73.1153 123.551 73.0819 123.486C72.7856 122.91 72.9246 122.345 73.442 122.105C73.8058 121.936 74.4142 121.989 74.7815 122.187C75.9755 122.831 76.517 123.975 76.7012 125.264C76.862 126.39 76.6096 127.484 76.1513 128.517C75.5602 129.85 74.3668 129.68 73.6055 128.89C73.3664 128.642 73.238 128.287 73.1021 127.912L73.1021 127.912C73.0528 127.776 73.0024 127.637 72.9455 127.499C72.9733 127.33 72.99 127.16 73.0063 126.994ZM75.1071 123.584L75.107 123.584L75.1069 123.584C74.9346 123.404 74.7622 123.225 74.5711 123.069C74.4903 123.003 74.3737 122.98 74.257 122.958C74.2041 122.948 74.1511 122.938 74.1015 122.924C74.0898 122.979 74.0691 123.04 74.0484 123.1C74.0038 123.231 73.9591 123.362 74.0044 123.441C74.5053 124.325 74.3911 125.139 73.8664 125.971C73.7557 126.147 73.7152 126.366 73.6747 126.586C73.6546 126.695 73.6345 126.804 73.6059 126.908C73.45 127.473 73.8656 128.546 74.3948 128.709L74.4399 128.723C74.7221 128.812 75.1024 128.931 75.3267 128.46C76.0488 126.944 76.2884 125.446 75.3182 123.801C75.2473 123.73 75.1775 123.657 75.1078 123.585L75.1077 123.584L75.1075 123.584L75.1074 123.584L75.1072 123.584L75.1071 123.584ZM116.402 109.329C117.301 109.724 118.81 109.592 119.947 108.343C120.031 108.214 120.114 108.088 120.197 107.963C120.455 107.574 120.702 107.203 120.91 106.811C121.432 105.831 120.527 104.322 119.41 104.345C119.092 104.351 118.776 104.411 118.46 104.472C118.165 104.528 117.871 104.584 117.574 104.597C116.677 104.635 115.966 104.954 115.464 105.707C114.598 107.01 114.924 108.679 116.402 109.329ZM117.825 105.589C117.869 105.587 117.914 105.586 117.958 105.586C118.063 105.569 118.163 105.557 118.257 105.545C118.514 105.515 118.721 105.49 118.838 105.374C119.22 104.993 119.552 105.17 119.847 105.401C120.166 105.651 120.342 105.959 120.189 106.447C119.827 107.6 119.175 108.449 117.983 108.756C117.315 108.928 116.689 108.763 116.226 108.184C115.808 107.662 115.744 107.108 116.053 106.516C116.365 105.916 116.802 105.512 117.539 105.584C117.634 105.594 117.729 105.591 117.825 105.589ZM100.546 107.226C101.427 106.644 102.266 106.607 103.065 107.267C103.292 107.454 103.491 107.694 103.642 107.946C103.709 108.057 103.748 108.187 103.788 108.317L103.788 108.317C103.838 108.484 103.888 108.649 103.995 108.766C104.468 109.288 104.172 109.755 103.785 109.947C102.809 110.429 101.779 110.823 100.738 111.148C100.19 111.319 99.4584 110.671 99.3254 110.052C99.0336 108.693 99.5843 107.797 100.546 107.226ZM102.954 109.145C102.886 109.053 102.819 108.96 102.752 108.868L102.752 108.867L102.752 108.867L102.752 108.867L102.752 108.867L102.752 108.867C102.589 108.642 102.427 108.416 102.251 108.201L102.236 108.182C102.118 108.037 101.967 107.851 101.815 107.834C100.68 107.711 99.7071 109.023 100.17 110.048C100.307 110.35 100.586 110.674 100.918 110.32C101.376 109.83 101.942 109.73 102.541 109.624L102.582 109.617C102.748 109.588 102.877 109.355 102.954 109.145ZM98.1895 137.788C98.1661 137.901 98.1417 138.019 98.1035 138.142C98.1094 138.232 98.1338 138.313 98.1569 138.39L98.1569 138.39C98.1795 138.465 98.2008 138.535 98.2025 138.607C98.2418 140.331 100.494 141.663 101.899 141.459C102.881 141.317 103.419 140.96 103.56 140.055C103.686 139.25 103.489 138.37 102.858 137.856C102.132 137.264 101.256 136.818 100.385 136.452C99.35 136.017 98.6969 136.365 98.2912 137.403C98.2441 137.524 98.2175 137.652 98.1895 137.788ZM99.2202 137.48C99.2818 137.363 99.3434 137.247 99.3945 137.13C99.5201 137.16 99.6453 137.188 99.7695 137.216C100.934 137.482 102.014 137.728 102.533 138.886C102.779 139.435 103.059 140.095 102.384 140.522C102.059 140.729 101.562 140.793 101.168 140.738C100.188 140.602 98.7968 139.546 98.9253 138.252C98.9515 137.987 99.0859 137.733 99.2202 137.48ZM99.883 120.381C101.019 120.488 101.92 120.99 102.107 122.187C102.173 122.611 102.441 122.667 102.736 122.729C102.779 122.738 102.822 122.747 102.866 122.757C103.518 122.913 104.036 123.45 103.933 124.298C103.859 124.913 103.543 125.163 102.663 125.114C102.075 125.081 101.457 125.018 100.914 124.808C99.1578 124.128 98.6545 122.682 98.7783 121.153C98.8248 120.579 99.2488 120.346 99.883 120.381ZM102.465 123.452C101.712 123.499 101.352 123.048 101.294 122.391C101.232 121.697 100.735 121.475 100.245 121.256L100.189 121.231C99.839 121.074 99.4268 121.482 99.4843 121.867C99.699 123.303 101.335 124.55 102.801 124.438C103.343 124.396 103.274 124.117 103.079 123.832C103.015 123.738 102.898 123.681 102.759 123.613C102.668 123.569 102.567 123.519 102.465 123.452ZM85.7862 147.458C85.8031 147.274 85.8042 147.087 85.8053 146.905C85.8078 146.503 85.8101 146.124 85.9814 145.85C86.3994 145.183 86.9033 144.57 87.4072 143.956C87.6124 143.707 87.8176 143.457 88.017 143.203C88.3599 142.768 88.8919 142.515 89.3256 142.751C89.7664 142.99 90.194 143.477 90.362 143.95C90.7612 145.075 90.2578 146.041 89.5047 146.866C89.2911 147.1 89.049 147.308 88.8066 147.516L88.8066 147.516C88.6157 147.679 88.4246 147.843 88.2473 148.02C87.2634 149.001 86.3863 148.544 85.7862 147.458ZM88.2287 147.179C89.2342 146.518 89.883 145.66 89.8404 144.385C89.8255 143.94 89.6587 143.643 89.2549 143.455C88.8307 143.257 88.5414 143.524 88.4108 143.81C88.081 144.535 87.6098 145.154 87.1377 145.774L87.1377 145.774L87.1375 145.774C86.9742 145.989 86.8108 146.203 86.653 146.423C86.4925 146.646 86.5916 147.185 86.7539 147.478C86.9429 147.819 87.3211 147.761 87.6406 147.499C87.7186 147.435 87.8128 147.391 87.9215 147.34C88.0138 147.297 88.1165 147.248 88.2287 147.179ZM82.419 139.123C82.854 138.114 82.9197 137.032 82.6807 135.908C82.6608 135.889 82.6454 135.874 82.6334 135.863C82.6144 135.846 82.6039 135.836 82.5972 135.824C82.115 134.966 81.6104 134.582 81.0437 134.769C80.3265 135.007 80.0592 135.543 80.0337 136.322C80.0156 136.878 79.7952 137.368 79.0484 137.586C77.94 137.909 78.0199 138.903 78.7037 139.441C78.9649 139.646 79.2971 139.765 79.6259 139.882C79.7293 139.919 79.8325 139.956 79.9329 139.995C80.5618 140.242 82.1086 139.843 82.419 139.123ZM81.9316 136.363C81.9596 136.41 81.9875 136.457 82.0177 136.502C82.0177 136.752 82.0339 136.992 82.0494 137.223C82.0818 137.706 82.1113 138.144 81.9834 138.53C81.6557 139.52 79.7086 139.697 79.0875 138.84C79.0211 138.748 79.206 138.3 79.3333 138.27C80.3628 138.03 80.7449 137.363 80.7802 136.369C80.7878 136.153 80.9953 135.895 81.1847 135.76C81.2559 135.71 81.5562 135.935 81.7172 136.074C81.8056 136.151 81.8686 136.257 81.9316 136.363Z" fill="#FFB61D"/>
<defs>
<linearGradient id="paint0_linear_114_2096" x1="15.7333" y1="26.2693" x2="197.303" y2="48.5947" gradientUnits="userSpaceOnUse">
<stop stop-color="#FD8686"/>
<stop offset="1" stop-color="#FFD178"/>
</linearGradient>
</defs>
</svg>
