<svg width="109" height="22" viewBox="0 0 109 22" fill="none" xmlns="http://www.w3.org/2000/svg">
<path fill-rule="evenodd" clip-rule="evenodd" d="M11 22C17.0751 22 22 17.0751 22 11C22 4.92487 17.0751 0 11 0C4.92486 0 0 4.92487 0 11C0 17.0751 4.92486 22 11 22ZM14.4316 5.12427C14.5987 4.53093 14.0229 4.18007 13.497 4.55472L6.15621 9.78427C5.58592 10.1906 5.67562 11 6.29096 11H8.22399V10.985H11.9914L8.92167 12.0681L7.56839 16.8758C7.40136 17.4691 7.9771 17.8199 8.50301 17.4453L15.8438 12.2158C16.4141 11.8095 16.3243 11 15.709 11H12.7777L14.4316 5.12427Z" fill="#EF4444"/>
<path d="M37.187 17.21C36.179 17.21 35.3203 16.9907 34.611 16.552C33.9017 16.1087 33.358 15.4927 32.98 14.704C32.6067 13.9153 32.42 13.0007 32.42 11.96C32.42 10.9193 32.6067 10.0047 32.98 9.216C33.358 8.42733 33.9017 7.81367 34.611 7.375C35.3203 6.93167 36.179 6.71 37.187 6.71C38.349 6.71 39.3103 7.004 40.071 7.592C40.8363 8.18 41.3683 8.971 41.667 9.965L40.183 10.364C39.987 9.65933 39.637 9.10633 39.133 8.705C38.6337 8.30367 37.985 8.103 37.187 8.103C36.473 8.103 35.878 8.264 35.402 8.586C34.926 8.908 34.5667 9.35833 34.324 9.937C34.086 10.5157 33.967 11.19 33.967 11.96C33.9623 12.73 34.079 13.4043 34.317 13.983C34.5597 14.5617 34.919 15.012 35.395 15.334C35.8757 15.656 36.473 15.817 37.187 15.817C37.985 15.817 38.6337 15.6163 39.133 15.215C39.637 14.809 39.987 14.256 40.183 13.556L41.667 13.955C41.3683 14.949 40.8363 15.74 40.071 16.328C39.3103 16.916 38.349 17.21 37.187 17.21ZM48.5126 17V13.283C48.5126 12.989 48.4869 12.688 48.4356 12.38C48.3889 12.0673 48.2956 11.778 48.1556 11.512C48.0202 11.246 47.8266 11.0313 47.5746 10.868C47.3272 10.7047 47.0029 10.623 46.6016 10.623C46.3402 10.623 46.0929 10.6673 45.8596 10.756C45.6262 10.84 45.4209 10.9777 45.2436 11.169C45.0709 11.3603 44.9332 11.6123 44.8306 11.925C44.7326 12.2377 44.6836 12.618 44.6836 13.066L43.7736 12.723C43.7736 12.037 43.9019 11.4327 44.1586 10.91C44.4152 10.3827 44.7839 9.972 45.2646 9.678C45.7452 9.384 46.3262 9.237 47.0076 9.237C47.5302 9.237 47.9689 9.321 48.3236 9.489C48.6782 9.657 48.9652 9.87867 49.1846 10.154C49.4086 10.4247 49.5789 10.721 49.6956 11.043C49.8122 11.365 49.8916 11.68 49.9336 11.988C49.9756 12.296 49.9966 12.5667 49.9966 12.8V17H48.5126ZM43.1996 17V6.92H44.5086V12.359H44.6836V17H43.1996ZM53.9548 17.21C53.3948 17.21 52.9258 17.1073 52.5478 16.902C52.1698 16.692 51.8828 16.4167 51.6868 16.076C51.4955 15.7307 51.3998 15.3527 51.3998 14.942C51.3998 14.5593 51.4675 14.2233 51.6028 13.934C51.7382 13.6447 51.9388 13.3997 52.2048 13.199C52.4708 12.9937 52.7975 12.828 53.1848 12.702C53.5208 12.604 53.9012 12.5177 54.3258 12.443C54.7505 12.3683 55.1962 12.2983 55.6628 12.233C56.1342 12.1677 56.6008 12.1023 57.0628 12.037L56.5308 12.331C56.5402 11.7383 56.4142 11.2997 56.1528 11.015C55.8962 10.7257 55.4528 10.581 54.8228 10.581C54.4262 10.581 54.0622 10.6743 53.7308 10.861C53.3995 11.043 53.1685 11.3463 53.0378 11.771L51.6728 11.351C51.8595 10.7023 52.2142 10.1867 52.7368 9.804C53.2642 9.42133 53.9642 9.23 54.8368 9.23C55.5135 9.23 56.1015 9.34667 56.6008 9.58C57.1048 9.80867 57.4735 10.1727 57.7068 10.672C57.8282 10.9193 57.9028 11.1807 57.9308 11.456C57.9588 11.7313 57.9728 12.0277 57.9728 12.345V17H56.6778V15.271L56.9298 15.495C56.6172 16.0737 56.2182 16.5053 55.7328 16.79C55.2522 17.07 54.6595 17.21 53.9548 17.21ZM54.2138 16.013C54.6292 16.013 54.9862 15.9407 55.2848 15.796C55.5835 15.6467 55.8238 15.4577 56.0058 15.229C56.1878 15.0003 56.3068 14.7623 56.3628 14.515C56.4422 14.291 56.4865 14.039 56.4958 13.759C56.5098 13.479 56.5168 13.255 56.5168 13.087L56.9928 13.262C56.5308 13.332 56.1108 13.395 55.7328 13.451C55.3548 13.507 55.0118 13.563 54.7038 13.619C54.4005 13.6703 54.1298 13.7333 53.8918 13.808C53.6912 13.878 53.5115 13.962 53.3528 14.06C53.1988 14.158 53.0752 14.277 52.9818 14.417C52.8932 14.557 52.8488 14.7273 52.8488 14.928C52.8488 15.124 52.8978 15.306 52.9958 15.474C53.0938 15.6373 53.2432 15.768 53.4438 15.866C53.6445 15.964 53.9012 16.013 54.2138 16.013ZM62.7935 17.21C62.0889 17.21 61.4799 17.035 60.9665 16.685C60.4579 16.335 60.0635 15.859 59.7835 15.257C59.5082 14.6503 59.3705 13.969 59.3705 13.213C59.3705 12.4523 59.5105 11.7733 59.7905 11.176C60.0705 10.574 60.4672 10.1003 60.9805 9.755C61.4985 9.405 62.1122 9.23 62.8215 9.23C63.5355 9.23 64.1352 9.405 64.6205 9.755C65.1105 10.1003 65.4792 10.574 65.7265 11.176C65.9785 11.778 66.1045 12.457 66.1045 13.213C66.1045 13.969 65.9785 14.648 65.7265 15.25C65.4745 15.852 65.1035 16.3303 64.6135 16.685C64.1235 17.035 63.5169 17.21 62.7935 17.21ZM62.9965 15.887C63.4772 15.887 63.8692 15.7727 64.1725 15.544C64.4759 15.3153 64.6975 15.0003 64.8375 14.599C64.9775 14.1977 65.0475 13.7357 65.0475 13.213C65.0475 12.6903 64.9752 12.2283 64.8305 11.827C64.6905 11.4257 64.4712 11.113 64.1725 10.889C63.8785 10.665 63.5029 10.553 63.0455 10.553C62.5602 10.553 62.1612 10.672 61.8485 10.91C61.5359 11.148 61.3025 11.4677 61.1485 11.869C60.9992 12.2703 60.9245 12.7183 60.9245 13.213C60.9245 13.7123 60.9992 14.165 61.1485 14.571C61.3025 14.9723 61.5312 15.292 61.8345 15.53C62.1425 15.768 62.5299 15.887 62.9965 15.887ZM65.0475 17V11.561H64.8795V6.92H66.3495V17H65.0475ZM71.9621 17.21C71.2388 17.21 70.5855 17.0863 70.0021 16.839C69.4235 16.587 68.9451 16.23 68.5671 15.768C68.1938 15.3013 67.9511 14.7483 67.8391 14.109L69.3651 13.878C69.5191 14.494 69.8411 14.9747 70.3311 15.32C70.8211 15.6607 71.3928 15.831 72.0461 15.831C72.4521 15.831 72.8255 15.768 73.1661 15.642C73.5068 15.5113 73.7798 15.327 73.9851 15.089C74.1951 14.8463 74.3001 14.557 74.3001 14.221C74.3001 14.039 74.2675 13.878 74.2021 13.738C74.1415 13.598 74.0551 13.4767 73.9431 13.374C73.8358 13.2667 73.7028 13.1757 73.5441 13.101C73.3901 13.0217 73.2198 12.954 73.0331 12.898L70.4501 12.135C70.1981 12.0603 69.9415 11.9647 69.6801 11.848C69.4188 11.7267 69.1785 11.5703 68.9591 11.379C68.7445 11.183 68.5695 10.9427 68.4341 10.658C68.2988 10.3687 68.2311 10.0187 68.2311 9.608C68.2311 8.98733 68.3898 8.46233 68.7071 8.033C69.0291 7.599 69.4631 7.27233 70.0091 7.053C70.5551 6.829 71.1665 6.717 71.8431 6.717C72.5245 6.72633 73.1335 6.84767 73.6701 7.081C74.2115 7.31433 74.6595 7.65033 75.0141 8.089C75.3735 8.523 75.6208 9.05033 75.7561 9.671L74.1881 9.937C74.1181 9.559 73.9688 9.23467 73.7401 8.964C73.5115 8.68867 73.2315 8.47867 72.9001 8.334C72.5688 8.18467 72.2095 8.10767 71.8221 8.103C71.4488 8.09367 71.1058 8.14967 70.7931 8.271C70.4851 8.39233 70.2378 8.56267 70.0511 8.782C69.8691 9.00133 69.7781 9.25333 69.7781 9.538C69.7781 9.818 69.8598 10.0443 70.0231 10.217C70.1865 10.3897 70.3871 10.5273 70.6251 10.63C70.8678 10.728 71.1081 10.8097 71.3461 10.875L73.2081 11.4C73.4415 11.4653 73.7051 11.554 73.9991 11.666C74.2978 11.7733 74.5848 11.925 74.8601 12.121C75.1401 12.317 75.3711 12.5783 75.5531 12.905C75.7351 13.227 75.8261 13.633 75.8261 14.123C75.8261 14.6317 75.7235 15.0797 75.5181 15.467C75.3128 15.8497 75.0305 16.1717 74.6711 16.433C74.3165 16.6897 73.9058 16.8833 73.4391 17.014C72.9725 17.1447 72.4801 17.21 71.9621 17.21ZM80.8669 17.21C80.1436 17.21 79.5369 17.035 79.0469 16.685C78.5569 16.3303 78.1859 15.852 77.9339 15.25C77.6819 14.648 77.5559 13.969 77.5559 13.213C77.5559 12.457 77.6796 11.778 77.9269 11.176C78.1789 10.574 78.5476 10.1003 79.0329 9.755C79.5229 9.405 80.1249 9.23 80.8389 9.23C81.5482 9.23 82.1596 9.405 82.6729 9.755C83.1909 10.1003 83.5899 10.574 83.8699 11.176C84.1499 11.7733 84.2899 12.4523 84.2899 13.213C84.2899 13.969 84.1499 14.6503 83.8699 15.257C83.5946 15.859 83.2002 16.335 82.6869 16.685C82.1782 17.035 81.5716 17.21 80.8669 17.21ZM77.3109 20.36V9.44H78.6129V14.879H78.7809V20.36H77.3109ZM80.6639 15.887C81.1306 15.887 81.5156 15.768 81.8189 15.53C82.1269 15.292 82.3556 14.9723 82.5049 14.571C82.6589 14.165 82.7359 13.7123 82.7359 13.213C82.7359 12.7183 82.6589 12.2703 82.5049 11.869C82.3556 11.4677 82.1246 11.148 81.8119 10.91C81.4992 10.672 81.1002 10.553 80.6149 10.553C80.1576 10.553 79.7796 10.665 79.4809 10.889C79.1869 11.113 78.9676 11.4257 78.8229 11.827C78.6829 12.2283 78.6129 12.6903 78.6129 13.213C78.6129 13.7357 78.6829 14.1977 78.8229 14.599C78.9629 15.0003 79.1846 15.3153 79.4879 15.544C79.7912 15.7727 80.1832 15.887 80.6639 15.887ZM87.9705 17.21C87.4105 17.21 86.9415 17.1073 86.5635 16.902C86.1855 16.692 85.8985 16.4167 85.7025 16.076C85.5111 15.7307 85.4155 15.3527 85.4155 14.942C85.4155 14.5593 85.4831 14.2233 85.6185 13.934C85.7538 13.6447 85.9545 13.3997 86.2205 13.199C86.4865 12.9937 86.8131 12.828 87.2005 12.702C87.5365 12.604 87.9168 12.5177 88.3415 12.443C88.7661 12.3683 89.2118 12.2983 89.6785 12.233C90.1498 12.1677 90.6165 12.1023 91.0785 12.037L90.5465 12.331C90.5558 11.7383 90.4298 11.2997 90.1685 11.015C89.9118 10.7257 89.4685 10.581 88.8385 10.581C88.4418 10.581 88.0778 10.6743 87.7465 10.861C87.4151 11.043 87.1841 11.3463 87.0535 11.771L85.6885 11.351C85.8751 10.7023 86.2298 10.1867 86.7525 9.804C87.2798 9.42133 87.9798 9.23 88.8525 9.23C89.5291 9.23 90.1171 9.34667 90.6165 9.58C91.1205 9.80867 91.4891 10.1727 91.7225 10.672C91.8438 10.9193 91.9185 11.1807 91.9465 11.456C91.9745 11.7313 91.9885 12.0277 91.9885 12.345V17H90.6935V15.271L90.9455 15.495C90.6328 16.0737 90.2338 16.5053 89.7485 16.79C89.2678 17.07 88.6751 17.21 87.9705 17.21ZM88.2295 16.013C88.6448 16.013 89.0018 15.9407 89.3005 15.796C89.5991 15.6467 89.8395 15.4577 90.0215 15.229C90.2035 15.0003 90.3225 14.7623 90.3785 14.515C90.4578 14.291 90.5021 14.039 90.5115 13.759C90.5255 13.479 90.5325 13.255 90.5325 13.087L91.0085 13.262C90.5465 13.332 90.1265 13.395 89.7485 13.451C89.3705 13.507 89.0275 13.563 88.7195 13.619C88.4161 13.6703 88.1455 13.7333 87.9075 13.808C87.7068 13.878 87.5271 13.962 87.3685 14.06C87.2145 14.158 87.0908 14.277 86.9975 14.417C86.9088 14.557 86.8645 14.7273 86.8645 14.928C86.8645 15.124 86.9135 15.306 87.0115 15.474C87.1095 15.6373 87.2588 15.768 87.4595 15.866C87.6601 15.964 87.9168 16.013 88.2295 16.013ZM97.0402 17.21C96.2655 17.21 95.6075 17.0373 95.0662 16.692C94.5248 16.3467 94.1095 15.873 93.8202 15.271C93.5355 14.669 93.3908 13.9853 93.3862 13.22C93.3908 12.4407 93.5402 11.7523 93.8342 11.155C94.1282 10.553 94.5482 10.0817 95.0942 9.741C95.6402 9.40033 96.2958 9.23 97.0612 9.23C97.8872 9.23 98.5918 9.43533 99.1752 9.846C99.7632 10.2567 100.151 10.819 100.337 11.533L98.8812 11.953C98.7365 11.5283 98.4985 11.1993 98.1672 10.966C97.8405 10.728 97.4648 10.609 97.0402 10.609C96.5595 10.609 96.1652 10.7233 95.8572 10.952C95.5492 11.176 95.3205 11.484 95.1712 11.876C95.0218 12.268 94.9448 12.716 94.9402 13.22C94.9448 13.9993 95.1222 14.6293 95.4722 15.11C95.8268 15.5907 96.3495 15.831 97.0402 15.831C97.5115 15.831 97.8918 15.7237 98.1812 15.509C98.4752 15.2897 98.6992 14.977 98.8532 14.571L100.337 14.921C100.09 15.6583 99.6815 16.2253 99.1122 16.622C98.5428 17.014 97.8522 17.21 97.0402 17.21ZM104.911 17.21C104.16 17.21 103.499 17.0467 102.93 16.72C102.365 16.3887 101.924 15.929 101.607 15.341C101.294 14.7483 101.138 14.0623 101.138 13.283C101.138 12.457 101.292 11.7407 101.6 11.134C101.913 10.5273 102.347 10.0583 102.902 9.727C103.457 9.39567 104.104 9.23 104.841 9.23C105.611 9.23 106.267 9.40967 106.808 9.769C107.349 10.1237 107.753 10.63 108.019 11.288C108.29 11.946 108.397 12.7277 108.341 13.633H106.878V13.101C106.869 12.2237 106.701 11.575 106.374 11.155C106.052 10.735 105.56 10.525 104.897 10.525C104.164 10.525 103.614 10.756 103.245 11.218C102.876 11.68 102.692 12.3473 102.692 13.22C102.692 14.0507 102.876 14.6947 103.245 15.152C103.614 15.6047 104.146 15.831 104.841 15.831C105.298 15.831 105.693 15.7283 106.024 15.523C106.36 15.313 106.621 15.0143 106.808 14.627L108.243 15.082C107.949 15.7587 107.503 16.2837 106.906 16.657C106.309 17.0257 105.644 17.21 104.911 17.21ZM102.216 13.633V12.492H107.613V13.633H102.216Z" fill="black"/>
</svg>
